/* XPM */
static char *image[] = {
"24 24 241 2",
"   c None",
"00 c #232322",
"10 c #1b1b1a",
"20 c #9494de",
"30 c #171716",
"40 c #c4c4c4",
"50 c #d1d1d1",
"60 c #4b4b4b",
"70 c #484848",
"80 c #a7a7a7",
"90 c #262626",
":0 c #ebebeb",
";0 c #a0a09f",
"A0 c #575755",
"B0 c #171717",
"C0 c #191a18",
"D0 c #1a1a1a",
"E0 c #60615e",
"F0 c #9e9e9d",
"G0 c #e7e7e7",
"H0 c #efefef",
"I0 c #9b9b9b",
"J0 c #969696",
"K0 c #20201f",
"L0 c #a1a1a1",
"M0 c #1a1a19",
"N0 c #888988",
"O0 c #c0c0c0",
"P0 c #c3c3c3",
"Q0 c #989998",
"R0 c #7e7f7c",
"S0 c #1f1f1e",
"T0 c #bdbebd",
"U0 c #999999",
"V0 c #a8a8a8",
"W0 c #d5dce4",
"X0 c #97b4d3",
"Y0 c #78a1ce",
"Z0 c #78a1cd",
"a0 c #96b3d2",
"b0 c #dbe2e9",
"c0 c #9a9a9a",
"d0 c #1c1d1c",
"e0 c #bdbdbc",
"f0 c #d2d2d1",
"g0 c #202120",
"h0 c #a0a0a0",
"i0 c #cccccc",
"j0 c #becede",
"k0 c #739fce",
"l0 c #7493b7",
"m0 c #b2c3d7",
"n0 c #b7c8da",
"o0 c #adc1d7",
"p0 c #7496bb",
"q0 c #b9cadc",
"r0 c #acadac",
"s0 c #1e1e1d",
"t0 c #eaeaea",
"u0 c #4e5937",
"v0 c #171816",
"w0 c #d2d9e0",
"x0 c #5b7d6c",
"y0 c #587955",
"z0 c #56764b",
"01 c #587750",
"11 c #5a7b5e",
"21 c #5d806d",
"31 c #608683",
"41 c #d1d9e1",
"51 c #6f7368",
"61 c #58673a",
"71 c #526526",
"81 c #5d6856",
"91 c #c5c6c3",
":1 c #88a8c9",
";1 c #598493",
"A1 c #558566",
"B1 c #518157",
"C1 c #4c7d49",
"D1 c #508053",
"E1 c #548461",
"F1 c #588770",
"G1 c #5c8a7f",
"H1 c #608c9f",
"I1 c #84a5c8",
"J1 c #c1c2c1",
"K1 c #1e211b",
"L1 c #4a712e",
"M1 c #cececd",
"N1 c #1f201e",
"O1 c #6d99c7",
"P1 c #56907e",
"Q1 c #518d70",
"R1 c #4d8c64",
"S1 c #4c8b5d",
"T1 c #73a483",
"U1 c #8ab29c",
"V1 c #9cbeb1",
"W1 c #92b7af",
"X1 c #75a2a4",
"Y1 c #759fcc",
"Z1 c #427c36",
"a1 c #5c8e8c",
"b1 c #598d82",
"c1 c #598d7c",
"d1 c #96b7ab",
"e1 c #aec8bf",
"f1 c #b2cac4",
"g1 c #b2cac7",
"h1 c #b0c8c9",
"i1 c #9cbcc3",
"j1 c #d8dadb",
"k1 c #487c44",
"l1 c #cdcecd",
"m1 c #1f201f",
"n1 c #6d98c7",
"o1 c #617687",
"p1 c #5e6f7b",
"q1 c #939da2",
"r1 c #b8bec1",
"s1 c #c0c6c8",
"t1 c #c7ced4",
"u1 c #c7d0d9",
"v1 c #c2ccd8",
"w1 c #b2c0ce",
"x1 c #6d99c8",
"y1 c #dcddde",
"z1 c #1c1c1b",
"02 c #7c8c8d",
"12 c #1b1b19",
"22 c #d9d9d8",
"32 c #81a2c6",
"42 c #6b88a1",
"52 c #758895",
"62 c #bcc4c9",
"72 c #c6cdd0",
"82 c #d2d9df",
"92 c #dae3ef",
":2 c #d1ddec",
";2 c #a6c0db",
"A2 c #6891be",
"B2 c #dadad9",
"C2 c #080808",
"D2 c #809aab",
"E2 c #6c7985",
"F2 c #a1a29e",
"G2 c #abb8c8",
"H2 c #709dcd",
"I2 c #8ca0af",
"J2 c #c3cdd4",
"K2 c #ced7e1",
"L2 c #dae4f0",
"M2 c #e5ecf4",
"N2 c #dee6f2",
"O2 c #cfdce9",
"P2 c #729fcd",
"Q2 c #9fb0c3",
"R2 c #a7a8a5",
"S2 c #636e7d",
"T2 c #6f8da3",
"U2 c #cdcdcd",
"V2 c #587497",
"W2 c #1c1c1d",
"X2 c #8da7c4",
"Y2 c #729ecd",
"Z2 c #a9c0d6",
"a2 c #c9d8e9",
"b2 c #d4e0ed",
"c2 c #d8e2ef",
"d2 c #c0d1e6",
"e2 c #729fce",
"f2 c #8ca7c5",
"g2 c #607a97",
"h2 c #5e809a",
"i2 c #cdcdcc",
"j2 c #4e729e",
"k2 c #50698d",
"l2 c #1c1d1b",
"m2 c #99abc1",
"n2 c #6691c0",
"o2 c #739ecd",
"p2 c #719ece",
"q2 c #74a0ce",
"r2 c #6b94c3",
"s2 c #95a8bf",
"t2 c #dadbdb",
"u2 c #1d1d1c",
"v2 c #919e7f",
"w2 c #5273a2",
"x2 c #4e7392",
"y2 c #3a6394",
"z2 c #415c83",
"03 c #c9c9c8",
"13 c #d7d8da",
"23 c #d6d8da",
"33 c #cfd4d8",
"43 c #d3d5d8",
"53 c #dadbdc",
"63 c #cacbc9",
"73 c #1b1c1b",
"83 c #647978",
"93 c #456a94",
":3 c #3a6199",
";3 c #3c6689",
"A3 c #dfdfdf",
"B3 c #465e7a",
"C3 c #515962",
"D3 c #090908",
"E3 c #20211f",
"F3 c #212120",
"G3 c #202020",
"H3 c #525960",
"I3 c #3f526f",
"J3 c #465c7c",
"K3 c #486074",
"L3 c #cccdcc",
"M3 c #e1e1e1",
"N3 c #e0e0e0",
"O3 c #dddddd",
"P3 c #dcdcdc",
"Q3 c #dbdbdb",
"R3 c #dedede",
"S3 c #dadada",
"T3 c #d8d8d8",
"U3 c #d7d7d7",
"V3 c #d6d6d6",
"W3 c #d5d5d5",
"X3 c #d4d4d4",
"Y3 c #d3d3d3",
"Z3 c #d2d2d2",
"a3 c #d9d9d9",
"b3 c #dbdddb",
"c3 c #e8e8e8",
"d3 c #e6e6e6",
"e3 c #e5e5e5",
"f3 c #e3e3e3",
"g3 c #e2e2e2",
"h3 c #e4e4e4",
"i3 c #d0d2d0",
"j3 c #000000",
"  j3j3j3j3j3j3j3j3j3j3j3j3j3j3j3j3j3j3j3j3      ",
"j3i3h3g3g3g3g3g3f3h3h3h3h3h3e3d3d3d3d3c3b3j3    ",
"j3a3Z3Z3Z3Z3Y3Y3X3X3W3V3V3U3T3T3a3a3S3S3R3j3    ",
"j3V3Z3Z3Z3Y3X3X3W3V3V3U3U3T3T3a3S3S3Q3P3O3j3    ",
"j3V3X3N3N3N3M3M3g3g3g3g3f3h3h3e3e3d3d3Y3R3j3    ",
"j3V3L3K3J3J3J3I3H3G3F3E3E3D3C3I3J3J3B3A3A3j3    ",
"j3U3L3;3:39383736353433323130373z2:3y2f3N3j3    ",
"j3T3L3x2w2v2u2t2s2r2q2p2o2n2m2R3l2k2j2A3M3j3    ",
"j3S3i2h2g2u2S3f2e2d2c2b2a2Z2Y2X2Q3W2V2A3g3j3    ",
"j3S3U2T2S2R2Q2P2O2N2M2L2K2J2I2H2G2F2E2A3f3j3    ",
"j3Q3U2D2C2B2A2;2:2c2928272625242322212A3h3j3    ",
"j3P3U202z1y1x1w1v1u1t1s1r1q1p1o1n1g3m1A3d3j3    ",
"j3O3l1k1l2j1p2i1h1g1f1e1d1c1b1a1p2g3E3A3d3j3    ",
"j3R3l1Z173A3Y1X1W1V1U1T1S1R1Q1P1O1Q3N1A3c3j3    ",
"j3A3M1L1K1J1I1H1G1F1E1D1C1B1A1;1:19181A3c3j3    ",
"j3N3M171615141e231211101z0y0x0e2w0v0u0A3t0j3    ",
"j3M3Y3f3f3s0r0q0e2p0o0n0m0l0k0j0i0h0g0f0t0j3    ",
"j3g3N3N3M3e0d0c0b0a0Z0e2Y0X0W0D3M3V0U0F3P3j3    ",
"j3f3M3g3g3f3T0S0R0Q0P0A3O0N0M0L0K0T3J0I0F3C2    ",
"j3H0h3h3e3d3d3G0F0E0D0C0B0A0;0:0V0K0Z3I0c0l2    ",
"  j3j3j3j3j3j3j3j3j3j3j3j3j3j3j3j390K0Z3L080C2  ",
"                        7060          m15040W330",
"                        V320            z1P3g310",
"                                          B000  "};
