/* XPM */
static char *image[] = {
"24 24 201 2",
"   c None",
"00 c #2f0502",
"10 c #851308",
"20 c #aa1b0b",
"30 c #b61d0d",
"40 c #871609",
"50 c #330702",
"60 c #3d0a04",
"70 c #b51d0d",
"80 c #b71f0e",
"90 c #bc2310",
":0 c #c02611",
";0 c #c12812",
"A0 c #9b1d0c",
"B0 c #591208",
"C0 c #200300",
"D0 c #bd2310",
"E0 c #c42812",
"F0 c #c72b13",
"G0 c #c72c13",
"H0 c #be2811",
"I0 c #240401",
"J0 c #a91a0b",
"K0 c #b81f0d",
"L0 c #bf2511",
"M0 c #c52912",
"N0 c #c52a13",
"O0 c #c72c14",
"P0 c #c82d14",
"Q0 c #ca3016",
"R0 c #2b0a04",
"S0 c #8e1609",
"T0 c #b61e0e",
"U0 c #c02511",
"V0 c #c82b14",
"W0 c #c82c15",
"X0 c #ca2e15",
"Y0 c #c92e14",
"Z0 c #b92c13",
"a0 c #350b05",
"b0 c #2f0602",
"c0 c #b61e0d",
"d0 c #be2410",
"e0 c #c52913",
"f0 c #c62a14",
"g0 c #ca2f15",
"h0 c #cc3017",
"i0 c #cc3016",
"j0 c #df401e",
"k0 c #3a0a03",
"l0 c #420f07",
"m0 c #851508",
"n0 c #b9200e",
"o0 c #c62b14",
"p0 c #c82c14",
"q0 c #c92d15",
"r0 c #cd3016",
"s0 c #cd3217",
"t0 c #d03317",
"u0 c #ce3217",
"v0 c #b62f14",
"w0 c #561309",
"x0 c #1e0703",
"y0 c #ab1c0c",
"z0 c #bf2411",
"01 c #ce4632",
"11 c #d8624e",
"21 c #d9634f",
"31 c #da644f",
"41 c #db6550",
"51 c #dc6650",
"61 c #d64e35",
"71 c #cf3418",
"81 c #d03417",
"91 c #e44922",
":1 c #29130f",
";1 c #080403",
"A1 c #b71e0d",
"B1 c #c22711",
"C1 c #c62b13",
"D1 c #d5604d",
"E1 c #ba2e16",
"F1 c #f15428",
"G1 c #0c0c0c",
"H1 c #b8200e",
"I1 c #c42912",
"J1 c #c82c13",
"K1 c #d6604d",
"L1 c #bb3116",
"M1 c #d23719",
"N1 c #f65c2e",
"O1 c #090909",
"P1 c #b8200d",
"Q1 c #c62a13",
"R1 c #c92c15",
"S1 c #d7614d",
"T1 c #ffffff",
"U1 c #da3f1e",
"V1 c #0d0d0d",
"W1 c #262626",
"X1 c #ae1e0d",
"Y1 c #c52a12",
"Z1 c #ca2f16",
"a1 c #bc2d14",
"b1 c #bd2f15",
"c1 c #c03016",
"d1 c #bb2f16",
"e1 c #bd3217",
"f1 c #be3417",
"g1 c #c23618",
"h1 c #c13618",
"i1 c #bf3518",
"j1 c #ce3818",
"k1 c #d5391a",
"l1 c #e44c22",
"m1 c #e85025",
"n1 c #250904",
"o1 c #401208",
"p1 c #89180a",
"q1 c #c42913",
"r1 c #c92e15",
"s1 c #cb2f15",
"t1 c #ce3117",
"u1 c #dc3f1c",
"v1 c #f25d2c",
"w1 c #bc3719",
"x1 c #5b160a",
"y1 c #330802",
"z1 c #c22712",
"02 c #cc2f16",
"12 c #cf3318",
"22 c #d13618",
"32 c #da3e1c",
"42 c #df421e",
"52 c #e44d24",
"62 c #f86431",
"72 c #3e0e06",
"82 c #320e06",
"92 c #9d1e0c",
":2 c #c92d14",
";2 c #ce3116",
"A2 c #d03318",
"B2 c #d23519",
"C2 c #d43719",
"D2 c #d83b1b",
"E2 c #dc3f1d",
"F2 c #dd401d",
"G2 c #dc401c",
"H2 c #df4620",
"I2 c #ca401e",
"J2 c #3d0e06",
"K2 c #c02a12",
"L2 c #cb2f16",
"M2 c #cd3116",
"N2 c #cf3317",
"O2 c #d13518",
"P2 c #d53819",
"Q2 c #d73b1a",
"R2 c #d93c1b",
"S2 c #db3e1c",
"T2 c #da3d1c",
"U2 c #e04620",
"V2 c #f56330",
"W2 c #ea5727",
"X2 c #240601",
"Y2 c #cc3218",
"Z2 c #cc3116",
"a2 c #ce3316",
"b2 c #d03418",
"c2 c #d23618",
"d2 c #d43819",
"e2 c #d6391a",
"f2 c #d73b1b",
"g2 c #d83c1b",
"h2 c #d93b1b",
"i2 c #e64e25",
"j2 c #f96731",
"k2 c #ea5729",
"l2 c #290a04",
"m2 c #bb3016",
"n2 c #e0441f",
"o2 c #d83c1c",
"p2 c #d33719",
"q2 c #d33718",
"r2 c #d63a1a",
"s2 c #dc421f",
"t2 c #e65025",
"u2 c #f2602d",
"v2 c #f86731",
"w2 c #cb411e",
"x2 c #371208",
"y2 c #3b0b03",
"z2 c #b93217",
"03 c #e74c23",
"13 c #f35a2a",
"23 c #f7612e",
"33 c #f45c2c",
"43 c #e95327",
"53 c #be3a1c",
"63 c #3f1106",
"73 c #000000",
"                                                ",
"                73737373737373                  ",
"            7363534333231303z2y2x2              ",
"          73w2v2u2t2s2r2q2p2o2n2m273            ",
"        l2k2j2i2h2g2f2e2d2c2b2a2Z2Y2X2          ",
"      73W2V2U2T2S2T2R2Q2P2q2O2N2M2L2K273        ",
"    J2I2v2H2T2G2F2E2T2D2r2C2B2A2;2L2:29282      ",
"    726252R2S2F242F232o2r2d22212;202:2z1y1      ",
"  x1w1v1r2D2S2E2F2u1T2g2r2C2O2N2t1s1r1q1p1o1    ",
"  n1m1l1k1j1i1h1g1h1i1f1e1d1c1b1a1Z1:2Y1X1W1    ",
"  V113U1d2e1T1T1T1T1T1T1T1T1T1T1T1S1R1Q1P1O1    ",
"  73N1M1p2L1T1T1T1T1T1T1T1T1T1T1T1K1J1I1H173    ",
"  G1F1A2O2E1T1T1T1T1T1T1T1T1T1T1T1D1C1B1A1;1    ",
"  :191817161515151515141312111S1K101Q1z0y0x0    ",
"  w0v0k1M2u0N212t0t0N2u0s0r0s1q0p0o0q1n0m0l0    ",
"    k0j002i0M2M2t1s0h0i0L2g0q0p0f0e0d0c0b0      ",
"    a0Z0Y0g0L2L2s1s1Z1X0q0W0V0C1e0U0T0S0R0      ",
"      73Q0p0:2q0q0q0P0p0O0C1N0M0L0K0J073        ",
"        I0H0C1o0G0F0F0C1N0M0E0D0A1J0C0B0        ",
"          73A0L0;0E0e0z1:0908070S07360          ",
"            735040y0c0T03020100073              ",
"                73737373737373                  ",
"                                                ",
"                                                "};
