/* XPM */
static char *image[] = {
"22 22 201 2",
"   c None",
"00 c #c3a000",
"10 c #a58330",
"20 c #8b8c88",
"30 c #82857d",
"40 c #a48530",
"50 c #b04d49",
"60 c #e4e5e2",
"70 c #e4e5e3",
"80 c #cecfcc",
"90 c #b04f4b",
":0 c #a61110",
";0 c #c39e00",
"A0 c #e04343",
"B0 c #f27e7d",
"C0 c #f2807f",
"D0 c #ae1212",
"E0 c #972d2c",
"F0 c #ae8d02",
"G0 c #b51a19",
"H0 c #ee5151",
"I0 c #f13d3d",
"J0 c #f1dcdb",
"K0 c #f3f3f1",
"L0 c #f2dad9",
"M0 c #f13f3f",
"N0 c #b51c1b",
"O0 c #9e332c",
"P0 c #ad1211",
"Q0 c #ef5151",
"R0 c #f03535",
"S0 c #f06463",
"T0 c #f7d9d8",
"U0 c #fafafa",
"V0 c #fcfcfc",
"W0 c #fcfcfb",
"X0 c #fafaf9",
"Y0 c #f5c6c6",
"Z0 c #f04b4b",
"a0 c #f03636",
"b0 c #ef5656",
"c0 c #ae1312",
"d0 c #e04040",
"e0 c #f03b3b",
"f0 c #f16c6c",
"g0 c #f9d7d6",
"h0 c #e3c8c8",
"i0 c #b58887",
"j0 c #91938d",
"k0 c #b28280",
"l0 c #dfadad",
"m0 c #f7b8b7",
"n0 c #f15252",
"o0 c #f13e3e",
"p0 c #e14646",
"q0 c #a71212",
"r0 c #b04744",
"s0 c #f37f7e",
"t0 c #f06362",
"u0 c #f9d0d0",
"v0 c #ca8d8b",
"w0 c #a21312",
"x0 c #c87573",
"y0 c #f6afaf",
"z0 c #f04a4a",
"01 c #ef2b2b",
"11 c #f38383",
"21 c #b2534e",
"31 c #cfcfce",
"41 c #f1dcdc",
"51 c #f5d2d2",
"61 c #dfbdbc",
"71 c #a11413",
"81 c #dba09f",
"91 c #f4bdbd",
":1 c #f2d8d7",
";1 c #d1d1cf",
"A1 c #e5e5e3",
"B1 c #f8f8f7",
"C1 c #b08582",
"D1 c #ac7a78",
"E1 c #e7e7e4",
"F1 c #f8f8f8",
"G1 c #eeeeed",
"H1 c #f7f7f6",
"I1 c #f5f5f4",
"J1 c #efefee",
"K1 c #e6e6e3",
"L1 c #f4f4f3",
"M1 c #ae7574",
"N1 c #ac7875",
"O1 c #f3f3f2",
"P1 c #e7e7e5",
"Q1 c #8f918b",
"R1 c #d0d0ce",
"S1 c #f0f0ee",
"T1 c #eed1cf",
"U1 c #f18b8a",
"V1 c #e05555",
"W1 c #a61010",
"X1 c #de4848",
"Y1 c #f08685",
"Z1 c #efd0ce",
"a1 c #d2d2d0",
"b1 c #90938b",
"c1 c #ac8c2d",
"d1 c #ac5c58",
"e1 c #f2bbba",
"f1 c #ee5f5f",
"g1 c #f35d5d",
"h1 c #d03c3b",
"i1 c #a60f0f",
"j1 c #cf3534",
"k1 c #ef2929",
"l1 c #f3b7b7",
"m1 c #ac5450",
"n1 c #ad9330",
"o1 c #a41716",
"p1 c #d99796",
"q1 c #f09998",
"r1 c #ef3636",
"s1 c #f35a5a",
"t1 c #df4f4f",
"u1 c #aa716e",
"v1 c #8d8f8a",
"w1 c #a96f6e",
"x1 c #dd4848",
"y1 c #f24f4f",
"z1 c #ef2d2d",
"02 c #f1908f",
"12 c #db9d9d",
"22 c #a31817",
"32 c #d1b33f",
"42 c #a61d1b",
"52 c #ef9594",
"62 c #ee5e5e",
"72 c #ef3131",
"82 c #f18a89",
"92 c #f2f2f0",
":2 c #f08887",
";2 c #ef2a2a",
"A2 c #ef3f3f",
"B2 c #f08b8a",
"C2 c #a71f1e",
"D2 c #b7793a",
"E2 c #a93433",
"F2 c #ecc1c0",
"G2 c #f09b9a",
"H2 c #ee6060",
"I2 c #eed2d1",
"J2 c #eed1d0",
"K2 c #ef4141",
"L2 c #f29493",
"M2 c #eec7c6",
"N2 c #ab3736",
"O2 c #9e362e",
"P2 c #c9a815",
"Q2 c #fefdf9",
"R2 c #c4a001",
"S2 c #a71e1d",
"T2 c #d89b9a",
"U2 c #f3bfbe",
"V2 c #f0f0ef",
"W2 c #eeeeec",
"X2 c #efefed",
"Y2 c #f1f1ef",
"Z2 c #f4bebd",
"a2 c #dba2a1",
"b2 c #a7211f",
"c2 c #9d3130",
"d2 c #c59f02",
"e2 c #d3b942",
"f2 c #f3eccd",
"g2 c #c4a000",
"h2 c #a31514",
"i2 c #ad5d59",
"j2 c #d2d3d0",
"k2 c #e8e8e6",
"l2 c #f1f1f0",
"m2 c #e8e9e7",
"n2 c #d4d5d2",
"o2 c #af605b",
"p2 c #a21615",
"q2 c #b5773c",
"r2 c #c5a206",
"s2 c #d3b841",
"t2 c #f7f2db",
"u2 c #d3b73f",
"v2 c #c5a000",
"w2 c #d2b74a",
"x2 c #ab8a32",
"y2 c #8a8c87",
"z2 c #8f908b",
"03 c #8f9289",
"13 c #ac8932",
"23 c #d1b54a",
"33 c #faf8eb",
"43 c #f1e9c4",
"53 c #d5bc4b",
"63 c #c39f00",
"73 c #c4a100",
"      737373                    737373      ",
"  6353433343231303z2y2y2z203x2w24333435363  ",
"v2u2t2s2r2q2p2o2n2m2l2l2k2j2i2h2q2r2s2t2u2v2",
"g2f2e2d2c2b2a2Z2Y2X2W2W2X2V2U2T2S2c2d2e2f2g2",
"R2Q2P2O2N2M2L2K2J2W2W2W2W2I2H2G2F2E2O2P2Q2R2",
"g2f2D2C2M2B2A2;2:2Y29292l282726252F242D2f2g2",
"v232221202A2z1y1x1w1v1v1u1t1s1r162q1p1o132v2",
"  n1m1l1K2k1y1j1i1        i1h1g172f1e1d1c1  ",
"  b1a1V2Z1Y1X1W1            W1V1U1T1S1R1b1  ",
"  Q1P1X2W2O1N1                M1L1W2X2K1Q1  ",
"  y2J1W2S1I1v1                v1H1S1W2G1y2  ",
"  y2J1J1l2H1v1                v1F1l2J1G1y2  ",
"  Q1E1Y292H1D1                C1B192Y2A1Q1  ",
"  b1;192:1918171            71615141l231b1  ",
"  c1211101z0y0x0w0        w0v0u0t001s0r0n1  ",
"v232q0p0o0k1n0m0l0k0j0j0i0h0g0f0k1e0d0q032v2",
"g2f2D2c0b0a0k1Z0Y0X0W0V0U0T0S0k1R0Q0P0D2f2g2",
"R2Q2P2O0N0b0M001L0K0O1O1K0J001I0H0G0O0P2Q2R2",
"g2f2e2F0E0D0p0C092Y2V2V2Y2l2B0A0D0E0F0e2f2g2",
";0u2t2s2r2q2:0908070X2G1608050:0q2r2s2t2u2;0",
"  6353433343w2403020y2y2203010234333435363  ",
"      737300                    007373      "};
