/* XPM */
static char *image[] = {
"48 48 527 2",
"   c None",
"00 c #aa5f00",
"10 c #d67c00",
"20 c #ca7a00",
"30 c #b56700",
"40 c #b16100",
"50 c #9c5800",
"60 c #9d5800",
"70 c #a95e00",
"80 c #b06100",
"90 c #b06000",
":0 c #c96f00",
";0 c #d67e00",
"A0 c #a76700",
"B0 c #a75c00",
"C0 c #d97700",
"D0 c #e77f00",
"E0 c #fc9400",
"F0 c #feb600",
"G0 c #ffc500",
"H0 c #faae00",
"I0 c #f38e00",
"J0 c #f99b00",
"K0 c #f9a800",
"L0 c #c07300",
"M0 c #c36d00",
"N0 c #fa9a00",
"O0 c #fdaa00",
"P0 c #f89b00",
"Q0 c #ec8300",
"R0 c #fda100",
"S0 c #ffbd00",
"T0 c #efa500",
"U0 c #e48b00",
"V0 c #ab6c00",
"W0 c #ef8300",
"X0 c #dc7900",
"Y0 c #d77600",
"Z0 c #de7b00",
"a0 c #dc9000",
"b0 c #e6bd00",
"c0 c #c78b00",
"d0 c #c06900",
"e0 c #d07300",
"f0 c #c76f00",
"g0 c #a45a00",
"h0 c #5d3503",
"i0 c #5d3403",
"j0 c #b96e00",
"k0 c #eeae00",
"l0 c #fbd300",
"m0 c #feca00",
"n0 c #fd9f00",
"o0 c #ffc400",
"p0 c #fff500",
"q0 c #ffe600",
"r0 c #ffd900",
"s0 c #b46300",
"t0 c #bd6800",
"u0 c #aa5d00",
"v0 c #a65b00",
"w0 c #9e5700",
"x0 c #905200",
"y0 c #7e4500",
"z0 c #844800",
"01 c #8b4d00",
"11 c #804703",
"21 c #684214",
"31 c #534533",
"41 c #4d402f",
"51 c #643f11",
"61 c #905e03",
"71 c #b18400",
"81 c #b98800",
"91 c #d58600",
":1 c #fcba00",
";1 c #ffd800",
"A1 c #ffe500",
"B1 c #ffe300",
"C1 c #ffea00",
"D1 c #d2c800",
"E1 c #623500",
"F1 c #774200",
"G1 c #703e00",
"H1 c #673900",
"I1 c #583306",
"J1 c #4f3718",
"K1 c #55442e",
"L1 c #5e4f3d",
"M1 c #6f6458",
"N1 c #7e7872",
"O1 c #868584",
"P1 c #83827f",
"Q1 c #78726b",
"R1 c #6f6253",
"S1 c #66533d",
"T1 c #5f492d",
"U1 c #644418",
"V1 c #8b5c06",
"W1 c #aa7900",
"X1 c #c99500",
"Y1 c #edbb00",
"Z1 c #a28a00",
"a1 c #574d40",
"b1 c #625f5a",
"c1 c #6f6f6e",
"d1 c #818180",
"e1 c #908f8e",
"f1 c #9c9a99",
"g1 c #a4a4a3",
"h1 c #a8a8a7",
"i1 c #aaa9a8",
"j1 c #a6a5a4",
"k1 c #a3a29e",
"l1 c #a5a19a",
"m1 c #a39c92",
"n1 c #a1988b",
"o1 c #9f9281",
"p1 c #8e7e68",
"q1 c #836e53",
"r1 c #765e3e",
"s1 c #484848",
"t1 c #7b7b7b",
"u1 c #9d9c9b",
"v1 c #a4a3a2",
"w1 c #a9a8a7",
"x1 c #abaaaa",
"y1 c #b0b0af",
"z1 c #afafae",
"02 c #b0afae",
"12 c #aeadab",
"22 c #abaaa6",
"32 c #a8a6a1",
"42 c #a9a69f",
"52 c #aba499",
"62 c #aba191",
"72 c #aca08a",
"82 c #998e7b",
"92 c #59544b",
":2 c #6b6b6b",
";2 c #a5a4a4",
"A2 c #aaaaa9",
"B2 c #adadac",
"C2 c #afaeae",
"D2 c #afb0af",
"E2 c #adaeaf",
"F2 c #a9aaab",
"G2 c #a8a9aa",
"H2 c #ababaa",
"I2 c #b1aeaa",
"J2 c #b1aea6",
"K2 c #afaba1",
"L2 c #a6a297",
"M2 c #73706b",
"N2 c #707070",
"O2 c #b3b3b2",
"P2 c #b5b4b4",
"Q2 c #b7b6b6",
"R2 c #c4c3c4",
"S2 c #e3e2e1",
"T2 c #e3e2e0",
"U2 c #cececd",
"V2 c #bbbab9",
"W2 c #737372",
"X2 c #d2d1d1",
"Y2 c #d2d2d1",
"Z2 c #d0d0d0",
"a2 c #d7d7d6",
"b2 c #e4e3e2",
"c2 c #ebeaea",
"d2 c #f4f3f2",
"e2 c #f3f2f0",
"f2 c #e6e6e5",
"g2 c #dcdddd",
"h2 c #dadbdb",
"i2 c #494949",
"j2 c #0f0f0f",
"k2 c #767676",
"l2 c #e3e2e2",
"m2 c #f2f1f0",
"n2 c #efeeee",
"o2 c #e1e1e1",
"p2 c #e2e2e1",
"q2 c #f5f5f4",
"r2 c #f3f2f1",
"s2 c #f5f4f3",
"t2 c #f6f6f5",
"u2 c #f8f8f7",
"v2 c #ededed",
"w2 c #8f8f90",
"x2 c #969696",
"y2 c #b4b4b3",
"z2 c #f0efef",
"03 c #f8f7f7",
"13 c #faf9f8",
"23 c #c6c6c5",
"33 c #232323",
"43 c #b5b5b5",
"53 c #aeaeae",
"63 c #afafaf",
"73 c #cccbcb",
"83 c #fafaf9",
"93 c #fcfcfb",
":3 c #fdfdfc",
";3 c #fffefe",
"A3 c #c7c7c7",
"B3 c #242424",
"C3 c #b4b4b4",
"D3 c #cacac9",
"E3 c #a5a5a5",
"F3 c #a6a5a5",
"G3 c #d4d4d4",
"H3 c #f2f1f1",
"I3 c #f5f4f4",
"J3 c #f9f8f7",
"K3 c #fbfbfa",
"L3 c #080808",
"M3 c #696969",
"N3 c #b6b6b6",
"O3 c #c0c0c0",
"P3 c #aaaaaa",
"Q3 c #a7a7a7",
"R3 c #a1a1a1",
"S3 c #9a9a9a",
"T3 c #979797",
"U3 c #d8d8d7",
"V3 c #dedddc",
"W3 c #e1e0e0",
"X3 c #e6e5e4",
"Y3 c #eae9e9",
"Z3 c #f3f2f2",
"a3 c #fefefd",
"b3 c #898989",
"c3 c #404040",
"d3 c #acacac",
"e3 c #dcdcdb",
"f3 c #adadad",
"g3 c #868686",
"h3 c #949494",
"i3 c #aaa9a9",
"j3 c #bfbfbe",
"k3 c #c8c8c7",
"l3 c #d0d0cf",
"m3 c #d6d6d5",
"n3 c #dedddd",
"o3 c #f4f3f3",
"p3 c #fcfbfa",
"q3 c #fffffe",
"r3 c #4c4c4c",
"s3 c #101010",
"t3 c #8a8a8a",
"u3 c #e1e1e0",
"v3 c #c8c7c7",
"w3 c #a4a4a4",
"x3 c #8f8f8f",
"y3 c #858585",
"z3 c #797979",
"04 c #6f6f6f",
"14 c #6c6c6c",
"24 c #747474",
"34 c #828282",
"44 c #999999",
"54 c #aeadad",
"64 c #bababa",
"74 c #c7c6c6",
"84 c #d5d5d4",
"94 c #b2b2b2",
":4 c #a8a8a8",
";4 c #c0c0bf",
"A4 c #ababab",
"B4 c #959595",
"C4 c #909090",
"D4 c #75716d",
"E4 c #776a59",
"F4 c #7e6443",
"G4 c #93662c",
"H4 c #ae6d1a",
"I4 c #ba7a1b",
"J4 c #a87c2d",
"K4 c #8b7344",
"L4 c #7a6e5c",
"M4 c #7d7975",
"N4 c #959494",
"O4 c #a9a9a9",
"P4 c #b9b9b8",
"Q4 c #d0cfcf",
"R4 c #e6e5e5",
"S4 c #f7f6f6",
"T4 c #e9e9e8",
"U4 c #2b2b2a",
"V4 c #535353",
"W4 c #9e9e9e",
"X4 c #a2a2a2",
"Y4 c #989898",
"Z4 c #8c8b8a",
"a4 c #83776a",
"b4 c #8b6b44",
"c4 c #8b5f2a",
"d4 c #895414",
"e4 c #7f4703",
"f4 c #753700",
"g4 c #aa2a00",
"h4 c #c84001",
"i4 c #a76600",
"j4 c #b07903",
"k4 c #af7e18",
"l4 c #a87e2d",
"m4 c #a0804c",
"n4 c #94897a",
"o4 c #a7a6a5",
"p4 c #cdcccc",
"q4 c #ececeb",
"r4 c #edecec",
"s4 c #787878",
"t4 c #cdcdcd",
"u4 c #d9d9d9",
"v4 c #c6b6a0",
"w4 c #aa7c42",
"x4 c #7f4f16",
"y4 c #523007",
"z4 c #412401",
"05 c #2c1800",
"15 c #1c0e00",
"25 c #450600",
"35 c #870100",
"45 c #900201",
"55 c #4e0a00",
"65 c #2a1a00",
"75 c #422c00",
"85 c #553601",
"95 c #6e4b07",
":5 c #8e6218",
";5 c #ba8747",
"A5 c #e7d3bc",
"B5 c #636363",
"C5 c #e0e0e0",
"D5 c #eeeeee",
"E5 c #f4a63a",
"F5 c #f79704",
"G5 c #ef9100",
"H5 c #e38a00",
"I5 c #cf7d00",
"J5 c #c37600",
"K5 c #b46c00",
"L5 c #ae6800",
"M5 c #aa6e00",
"N5 c #ae7f00",
"O5 c #b38900",
"P5 c #b89500",
"Q5 c #c1a200",
"R5 c #d3b100",
"S5 c #e0bf00",
"T5 c #f1cf00",
"U5 c #fad905",
"V5 c #fde03c",
"W5 c #f4f4f4",
"X5 c #3a3a3a",
"Y5 c #9c9c9c",
"Z5 c #f7f7f6",
"a5 c #f4deb9",
"b5 c #f4c76c",
"c5 c #fcba2a",
"d5 c #ffb100",
"e5 c #ffb200",
"f5 c #ffb400",
"g5 c #ffb700",
"h5 c #ffc200",
"i5 c #ffdc00",
"j5 c #fff800",
"k5 c #fffc00",
"l5 c #fffc30",
"m5 c #fffc78",
"n5 c #fffdc2",
"o5 c #151515",
"p5 c #3c3c3c",
"q5 c #d8d8d8",
"r5 c #f7f6f5",
"s5 c #f4efe5",
"t5 c #f0e1c1",
"u5 c #facb61",
"v5 c #feb910",
"w5 c #ffba00",
"x5 c #ffbe00",
"y5 c #ffc900",
"z5 c #ffdd00",
"06 c #fffb00",
"16 c #ffff00",
"26 c #fffe00",
"36 c #fffd00",
"46 c #fffd13",
"56 c #fffe73",
"66 c #ffffd7",
"76 c #fffff6",
"86 c #e5e5e5",
"96 c #4d4d4d",
":6 c #fcfcfc",
";6 c #fbfbfc",
"A6 c #f8f9fa",
"B6 c #f6f7f9",
"C6 c #f7f8f8",
"D6 c #f7f6f4",
"E6 c #d5d1cc",
"F6 c #b9a687",
"G6 c #dea739",
"H6 c #f9b50b",
"I6 c #f3ba00",
"J6 c #ffdf00",
"K6 c #fffa00",
"L6 c #f9e300",
"M6 c #fcee0b",
"N6 c #ebe041",
"O6 c #d3d0a5",
"P6 c #e8e8e7",
"Q6 c #8f8e8e",
"R6 c #131313",
"S6 c #a3a3a3",
"T6 c #fcfdfd",
"U6 c #fafbfc",
"V6 c #fafcfd",
"W6 c #fcfdfe",
"X6 c #efefef",
"Y6 c #4e4d4c",
"Z6 c #1c1b1a",
"a6 c #534c41",
"b6 c #f5d37e",
"c6 c #fecc26",
"d6 c #ffe001",
"e6 c #fffa01",
"f6 c #fefb22",
"g6 c #fbf57e",
"h6 c #5f5c4a",
"i6 c #282826",
"j6 c #555555",
"k6 c #b0b0b0",
"l6 c #191919",
"m6 c #1c1c1c",
"n6 c #b8b8b8",
"o6 c #feffff",
"p6 c #c6c7c7",
"q6 c #050505",
"r6 c #e0ded8",
"s6 c #fff2c7",
"t6 c #ffee73",
"u6 c #fffb72",
"v6 c #fffec5",
"w6 c #d9d9cf",
"x6 c #040403",
"y6 c #030303",
"z6 c #c3c3c3",
"07 c #232222",
"17 c #bfbfbf",
"27 c #e6e6e6",
"37 c #212121",
"47 c #0c0c0c",
"57 c #323232",
"67 c #292929",
"77 c #e3e3e3",
"87 c #c8c8c8",
"97 c #252525",
":7 c #1d1d1d",
";7 c #fefefe",
"A7 c #bdbdbd",
"B7 c #919191",
"C7 c #c6c6c6",
"D7 c #c5c5c5",
"E7 c #9a9a99",
"F7 c #c4c4c4",
"G7 c #bbbbbb",
"H7 c #111111",
"I7 c #a1a1a0",
"J7 c #a0a0a0",
"K7 c #121212",
"L7 c #6d6d6d",
"M7 c #f5f5f5",
"N7 c #f3f3f3",
"O7 c #6c6c6b",
"P7 c #030302",
"Q7 c #333333",
"R7 c #d5d5d5",
"S7 c #d2d2d2",
"T7 c #838383",
"U7 c #060606",
"V7 c #090909",
"W7 c #b7b7b7",
"X7 c #c5c5c4",
"Y7 c #fdfdfd",
"Z7 c #fbfbfb",
"a7 c #b9b9b9",
"b7 c #0b0b0b",
"c7 c #2c2c2c",
"d7 c #b1b1b1",
"e7 c #bcbcbc",
"f7 c #363635",
"g7 c #353535",
"h7 c #bebebe",
"i7 c #fafafa",
"j7 c #f9f9f9",
"k7 c #b3b3b3",
"l7 c #2e2e2e",
"m7 c #202020",
"n7 c #7e7e7e",
"o7 c #f1f1f1",
"p7 c #f7f7f7",
"q7 c #8c8c8c",
"r7 c #262626",
"s7 c #282828",
"t7 c #888888",
"u7 c #f8f8f8",
"v7 c #ffffff",
"w7 c #f2f2f2",
"x7 c #808080",
"y7 c #222222",
"z7 c #040404",
"08 c #141414",
"18 c #7c7c7c",
"28 c #565656",
"38 c #1a1a1a",
"48 c #1e1e1e",
"58 c #585858",
"68 c #7b7a7a",
"78 c #777777",
"88 c #4e4e4e",
"98 c #181818",
":8 c #000000",
";8 c #020201",
"A8 c #020202",
"B8 c #010101",
"                                                                                                ",
"                                                                                                ",
"                                                                                                ",
"                                                                                                ",
"                                                                                                ",
"                                                                                                ",
"                                      B8A8A8A8A8A8A8;8B8B8                                      ",
"                                  B8A8A8A8A8A8A8A8A8A8B8B8B8B8                                  ",
"                              B8A8A8A8A8A8A8A8A8A8A8B8B8B8B8B8B8B8                              ",
"                            A8A8A8A8A8A8A8A8A8A8A8B8B8B8B8B8B8B8B8B8                            ",
"                          A8A8A8A8A8A8A8A8A8A8A8B8B8B8B8B8B8B8B8B8B8:8                          ",
"                        A8A8A8988878685848A8A8B8B8B8B8382818788808B8:8:8                        ",
"                      B8z7y7x7w7v7v7v7v7u7t7s7z7z7r7q7p7v7v7v7v7o7n7m7A8:8                      ",
"                      A8l7k7j7v7v7v7v7v7v7i7h7g7f7e7i7v7v7v7v7v7v7u7d7c7:8                      ",
"                    B8b7a7Z7v7v7v7v7v7v7v7v7Y7X7X7Y7v7v7v7v7v7v7v7v7Z7W7V7:8                    ",
"                    U7T7v7v7v7v7v7v7v7v7v7v7v7v7v7v7v7v7v7v7v7v7v7v7v7v7T7U7                    ",
"                    l7S7v7v7v7v7v7v7v7v7v7v7v7v7v7v7v7v7v7v7v7v7v7v7v7v7R7Q7                    ",
"                  P7O7N7v7v7v7v7v7v7v7v7v7v7v7v7v7v7v7v7v7v7v7v7v7v7v7v7M7L7B8                  ",
"                  K7J7v7v7v7v7v7v7v7v7v7v7v7v7v7v7v7v7v7v7v7v7v7v7v7v7v7v7I7H7                  ",
"                  48G7v7v7v7v7v7v7v7F7E7D7v7v7v7v7v7v7C7B7A7v7v7v7v7v7v7;7a7:7                  ",
"                  9787v7v7v7v7v7v777s7H767N7v7v7v7v7N757473727v7v7v7v7;7;717m7                  ",
"                  07z6v7v7v7v7v7v7C7y6:8x6w6v6u6t6s6r6q6:8A8p6v7o6;7;7;7;7n6m6                  ",
"                  l6k6v7v7v7v7v7v7M7j6i6h6g6f6e6d6c6b6a6Z6Y6X6W6V6U6T6Y7Y7S6R6                  ",
"                  V7Q6;7v7v7v7v7v7v7P6O6N6M6L6K6J6I6H6G6F6E6D6C6B6A6;6:6u7x7U7                  ",
"                  :89686v7v7v7v77666564636261606z5y5x5w5v5u5t5s5r5j7i7i7q5p5:8                  ",
"                    o5d7v7v7v7n5m5l5k5060606K6j5i5h5g5f5e5d5c5b5a5Z5u7p7Y547                    ",
"                    B8X5W5v7v7V5U5T5S5R5Q5P5O5N5M5L5K5J5I5H5G5F5E5D5W5C5c7:8                    ",
"                    B8B8B5W5Z7A5;5:595857565554535251505z4y4x4w4v4u4t488:8:8                    ",
"                    A8A8s4r4q4p4o4n4m4l4k4j4i4h4g4f4e4d4c4b4a4Z4Y4X4W4V4:8:8                    ",
"                  A8A8U4T4S4R4Q4P4O4N4M4L4K4J4I4H4G4F4E4D4x7C4B4W4A4;4:497:8:8                  ",
"                A8B8H794;7Z5P68474176454443424L71404z3y3x3B4J7w3:4v3u3t4t3s3:8:8                ",
"                B8B8r386q3p3o3T4n3m3l3k3j3i3h3t334g3x344W4w3A4f3k7e3t4G7d3c3:8:8                ",
"              B8B8V7b3Z7v7a3Y7Z7Z3Y3X3W3V3U3j3W4T3S3R3Q3P3d3k69417e3O3N3N3M3L3:8:8              ",
"              B8B838k7v7v7v7v7q3;7K3J3J3J3I3H3G3F3E3d3d3d3d3d7k764D3W7C3k7b398:8:8              ",
"              B8:8B3A3v7v7v7v7;3:3;7;3:3K39383r573f36353k6k694k7C3A74394C3T348:8:8              ",
"              :8:83323v7v7a3;79313:3v7v793S403S4z2C7d7949443C394d7y2y2k743x2:7:8:8              ",
"              :8:8H7w2v2u2t2s2r2Z313p3q2z2p2o2n2m2l2e7k7C3C3434343C3C39494k2j2:8:8              ",
"                :8y6i243h2g2f2m2e2d2c2R4b2a2Z2Y2X2Q4G7k7k7d79494C3C3d753Q3i2y6:8                ",
"                      W2V217U2T2S2e3X287R2h764W7Q2P2k7y2O2d7k6635363f3f3N2                      ",
"                        M2L2K2J2I2H2G2F2E2D2d7d7d7k6d7C2k6B2A2;2S6S6S3:2                        ",
"                          92827262524232221202z1y1C2f3x1w1v1u1B7t3t1s1                          ",
"                              r1q1p1o1n1m1l1k1j1i1h1g1f1e1d1c1b1a1                              ",
"                          Z1Y1X1W1V1U1T1S1R1Q1P1O1N1M1L1K1J1I1H1G1F1E1                          ",
"                        D1C1B1A1;1:191817161514131211101z0y0x0w0v0u0t0s0                        ",
"                        J6r0q0p0A1o0n0m0l0k0j0i0h0g0f0e0d0c0b0a0Z0Y0X0W0                        ",
"                        V0U0T0m0S0R0Q0P0O0N0M0    L0K0J0I0H0G0F0E0D0C0B0                        ",
"                              A0;0:090807060        50704030201000                              ",
"                                                                                                "};
