/* XPM */
static char *image[] = {
"48 48 223 2",
"   c None",
"00 c #464646",
"10 c #515151",
"20 c #5b5b5b",
"30 c #6e6e70",
"40 c #7d7d81",
"50 c #86868e",
"60 c #83838b",
"70 c #808088",
"80 c #757579",
"90 c #606061",
":0 c #3b3b3b",
";0 c #404040",
"A0 c #535353",
"B0 c #7e7e82",
"C0 c #a8a8af",
"D0 c #c9c9d1",
"E0 c #d9d9e2",
"F0 c #dadae4",
"G0 c #d6d6e2",
"H0 c #d2d2dd",
"I0 c #ceceda",
"J0 c #d4d4de",
"K0 c #d2d2de",
"L0 c #c4c4d0",
"M0 c #94949b",
"N0 c #656566",
"O0 c #484848",
"P0 c #595959",
"Q0 c #9999a0",
"R0 c #c4c4cd",
"S0 c #dedee6",
"T0 c #e5e5eb",
"U0 c #a7a7ac",
"V0 c #3e3e3e",
"W0 c #4b4b4b",
"X0 c #666668",
"Y0 c #828289",
"Z0 c #adadb7",
"a0 c #d3d3dd",
"b0 c #7d7d82",
"c0 c #656565",
"d0 c #4c4c4c",
"e0 c #3f3f3f",
"f0 c #4e4e4e",
"g0 c #5c5c5c",
"h0 c #909099",
"i0 c #b9b9c6",
"j0 c #e4e4ec",
"k0 c #afafb9",
"l0 c #e0e0e9",
"m0 c #c9c9d2",
"n0 c #a1a1a9",
"o0 c #808084",
"p0 c #767679",
"q0 c #6d6d6e",
"r0 c #727275",
"s0 c #7a7a7e",
"t0 c #838389",
"u0 c #9c9ca6",
"v0 c #d0d0db",
"w0 c #dcdce6",
"x0 c #e7e7ee",
"y0 c #f6f6f8",
"z0 c #efeff3",
"01 c #f3f3f5",
"11 c #e6c9cf",
"21 c #e39a9e",
"31 c #e48184",
"41 c #e6696c",
"51 c #e9b6bb",
"61 c #e7ccd1",
"71 c #dc585b",
"81 c #d10303",
"91 c #f01112",
":1 c #ebc5ca",
";1 c #e58588",
"A1 c #da0202",
"B1 c #f52526",
"C1 c #eadce2",
"D1 c #e8797c",
"E1 c #f55f61",
"F1 c #eb8c8f",
"G1 c #fb2323",
"H1 c #ebc8cd",
"I1 c #ed0606",
"J1 c #fe0101",
"K1 c #e7d6dc",
"L1 c #f1494b",
"M1 c #fe0000",
"N1 c #e9c3c9",
"O1 c #edc4c9",
"P1 c #fd0b0b",
"Q1 c #e5e3ea",
"R1 c #f18c8f",
"S1 c #f93638",
"T1 c #f45e61",
"U1 c #f70000",
"V1 c #f37e81",
"W1 c #f64142",
"X1 c #f52021",
"Y1 c #eae3e8",
"Z1 c #f36a6c",
"a1 c #f10000",
"b1 c #eda2a6",
"c1 c #f09c9f",
"d1 c #f40000",
"e1 c #e40000",
"f1 c #ea0000",
"g1 c #ed797c",
"h1 c #ecdde2",
"i1 c #f31818",
"j1 c #ed0000",
"k1 c #de0000",
"l1 c #e40101",
"m1 c #e98689",
"n1 c #ebc0c5",
"o1 c #ed0b0c",
"p1 c #e70000",
"q1 c #e00000",
"r1 c #da0000",
"s1 c #d40000",
"t1 c #d10000",
"u1 c #d70000",
"v1 c #e02122",
"w1 c #e8acb1",
"x1 c #eac4c9",
"y1 c #e86365",
"z1 c #e10e0e",
"02 c #da0101",
"12 c #d71d1e",
"22 c #d84041",
"32 c #e39b9f",
"42 c #e9e8ee",
"52 c #e9e4ea",
"62 c #e1e1e9",
"72 c #d8d8e3",
"82 c #d4d4df",
"92 c #d0d0dc",
":2 c #dbdbe4",
";2 c #e0e0e8",
"A2 c #d1d1dd",
"B2 c #cdcdda",
"C2 c #cacad8",
"D2 c #cdcdd9",
"E2 c #d5d5e0",
"F2 c #eaeaf0",
"G2 c #f2f2f5",
"H2 c #e8e8ee",
"I2 c #d8d8e1",
"J2 c #b7b7c0",
"K2 c #9d9da4",
"L2 c #85858b",
"M2 c #757578",
"N2 c #68686a",
"O2 c #69696a",
"P2 c #69696c",
"Q2 c #78787d",
"R2 c #8b8b92",
"S2 c #b2b2bb",
"T2 c #dddde5",
"U2 c #eeeef2",
"V2 c #e2e2ea",
"W2 c #bbbbc6",
"X2 c #94949c",
"Y2 c #626262",
"Z2 c #8f8f95",
"a2 c #d7d7e0",
"b2 c #6a6a6b",
"c2 c #474747",
"d2 c #b0b0ba",
"e2 c #ededf2",
"f2 c #e9e9ef",
"g2 c #e8e8ef",
"h2 c #dddde6",
"i2 c #c7c7d2",
"j2 c #9d9da6",
"k2 c #7b7b80",
"l2 c #616162",
"m2 c #636363",
"n2 c #4d4d4d",
"o2 c #acacb6",
"p2 c #ececf1",
"q2 c #f1f1f4",
"r2 c #fbfbfc",
"s2 c #fefefe",
"t2 c #fdfdfd",
"u2 c #fafafb",
"v2 c #f4f4f7",
"w2 c #f1f1f5",
"x2 c #eeeef3",
"y2 c #ebebf1",
"z2 c #e3e3ea",
"03 c #d3d3de",
"13 c #b7b7c2",
"23 c #88888f",
"33 c #6a6a6c",
"43 c #646465",
"53 c #7e7e83",
"63 c #bcbcc4",
"73 c #dfdfe7",
"83 c #f7f7f9",
"93 c #f9f9fa",
":3 c #f5f5f8",
";3 c #f0f0f4",
"A3 c #ebebf0",
"B3 c #e5e5ec",
"C3 c #d7d7e1",
"D3 c #babac4",
"E3 c #94949e",
"F3 c #747479",
"G3 c #616161",
"H3 c #5e5e5e",
"I3 c #5d5d5d",
"J3 c #606060",
"K3 c #78787b",
"L3 c #828286",
"M3 c #8e8e94",
"N3 c #8a8a8f",
"O3 c #828287",
"P3 c #79797c",
"Q3 c #6d6d6f",
"R3 c #5f5f5f",
"                                                                                                ",
"                                                                                                ",
"                                                                                                ",
"                                                                                                ",
"                                                                                                ",
"                                                                                                ",
"                                                              R3R3Q3P3O3N3M3L3K3J3I3            ",
"                                                      H3G3F3E3D3C3B3A3;3:39383A373635343        ",
"                                                H333231303z2y2x2w2v283u2t2s2r283v2q2p2o2n2      ",
"    m243                                R3l2k2j2i2h2g2f2f2f2y2x2w2v283u2t2s2r283v2q2e2d2c2      ",
"    b2a2Z2Y2H3                  H3G3P3X2W2a2V2f2f2f2f2f2f2f2y2x2w2v283u2t2s2r283v2q2e2d2c2      ",
"    b2U293T2S2R2Q2P2O2O2N2M2L2K2J2I2h2H2f2f2f2f2f2f2f2f2f2f2y2x2w2v283u2t2s2r283v2q2e2d2c2      ",
"    b2U2u2G2F2V2E2D2C2B2A2E2;2B3f2f2f2f2f2f2f2f2f2f2f2f2f2f2y2x2w2v283u2t2s2r283v2q2e2d2c2      ",
"    b2U2u2G2F2V2:203928272h262B3f2f2f2f2f2f2f2f2f2f2f2f2f2f2y2x2w2v283u2t2s2r283v2q2e2d2c2      ",
"    b2U2u2G2F2V2:203928272h262B3f2f2f2f2f2f2f2f2f2f2f2f2f2f2y2x2w2v283u2t2s2r283v2q2e2d2c2      ",
"    b2U2u2G2F2V2:203928272h262B3f2f2f2f2f2f2f2f2f2f252f2f2f2y2x2w2v283u2t2s2r283v2q2e2d2c2      ",
"    b2U2u2G2F2V2:203928272h262B3f2f2f2f2f24232221202z1y1x1f2y2x2w2v283u2t2s2r283v2q2e2d2c2      ",
"    b2U2u2G2F2V2:203928272h262B3f2f2f2f2w1v1u1t1s1r1q1p1o1n1y2x2w2v283u2t2s2r283v2q2e2d2c2      ",
"    b2U2u2G2F2V2:203928272h262B3f2f2f2m1l1k1u1t1s1r1q1p1j1i1h1x2w2v283u2t2s2r283v2q2e2d2c2      ",
"    b2U2u2G2F2V2:203928272h262B3f2f2g1f1e1k1u1t1s1r1q1p1j1d1c1x2w2v283u2t2s2r283v2q2e2d2c2      ",
"    b2U2u2G2F2V2:203928272h262B3f2b1a1f1e1k1u1t1s1r1q1p1j1d1Z1x2w2v283u2t2s2r283v2q2e2d2c2      ",
"    b2U2u2G2F2V2:203928272h262B3Y1X1a1f1e1k1u1t1s1r1q1p1j1d1W1x2w2v283u2t2s2r283v2q2e2d2c2      ",
"    b2U2u2G2F2V2:203928272h262B3V1U1a1f1e1k1u1t1s1r1q1p1j1d1T1x2w2v283u2t2s2r283v2q2e2d2c2      ",
"    b2U2u2G2F2V2:203928272h262B3S1U1a1f1e1k1u1t1s1r1q1p1j1d1R1x2w2v283u2t2s2r283v2q2e2d2c2      ",
"    b2U2u2G2F2V2:203928272h262Q1P1U1a1f1e1k1u1t1s1r1q1p1j1d1O1x2w2v283u2t2s2r283v2q2e2d2c2      ",
"    b2U2u2G2F2V2:203928272h262N1M1U1a1f1e1k1u1t1s1r1q1p1j1L1y2x2w2v283u2t2s2r283v2q2e2d2c2      ",
"    b2U2u2G2F2V2:203928272h262K1J1U1a1f1e1k1u1t1s1r1q1p1I1H1y2x2w2v283u2t2s2r283v2q2e2d2c2      ",
"    b2U2u2G2F2V2:203928272h262B3G1U1a1f1e1k1u1t1s1r1q1p1F1f2y2x2w2v283u2t2s2r283v2q2e2d2c2      ",
"    b2U2u2G2F2V2:203928272h262B3E1U1a1f1e1k1u1t1s1r1q1D1f2f2y2x2w2v283u2t2s2r283v2q2e2d2c2      ",
"    b2U2u2G2F2V2:203928272h262B3C1B1a1f1e1k1u1t1s1A1;1f2f2f2y2x2w2v283u2t2s2r283v2q2e2d2c2      ",
"    b2U2u2G2F2V2:203928272h262B3f2:191f1e1k1u1817161f2f2f2f2y2x2w2v283u2t2s2r283v2q2e2d2c2      ",
"    b2U2u2G2F2V2:203928272h262B3f2f2f25141312111f2f2f2f2f2f2y2x2w2v283u2t2s2r283v2q2e2d2c2      ",
"    b2U2u2G2F2V2:203928272h262B3f2f2f2f2f2f2f2f2f2f2f2f2f2f2y2x2w2v283u2t2s2r283v2q2e2d2c2      ",
"    b2U2u2G2F2V2:203928272h262B3f2f2f2f2f2f2f2f2f2f2f2f2f2f2y2x2w2v283u2t2s2r283v2q2e2d2c2      ",
"    b2U2u2G2F2V2:203928272h262B3f2f2f2f2f2f2f2f2f2f2f2f2f2f2y2x2w2;3q2w201G2z0y0v2q2e2d2c2      ",
"    b2U2u2G2F2V2:203928272h262B3f2f2f2f2f2f2f2f2f2f2f2f2x0w0v0W2u0t0s0r0q0b2p0o0n0m0l0k0c2      ",
"    b2U2u2G2F2V2:203928272h262B3f2f2f2f2f2f2f2f2f2j0E2i0h0F3g0f0e0              e0d0c0b0c2      ",
"    b2U2u2G2F2V2:203928272h262B3f2f2f2f2f2f2V2a0Z0Y0X0W0                              V0        ",
"    l2U0T0;3F2V2:203928272h262B3f2f2H2S0R0Q0M2P0c2                                              ",
"      O0N0M0L0K0J0I0D2H0G0:2F0E0D0C0B0Y2A0;0                                                    ",
"          :0f09080706050234030201000:0                                                          ",
"                                                                                                ",
"                                                                                                ",
"                                                                                                ",
"                                                                                                ",
"                                                                                                ",
"                                                                                                ",
"                                                                                                "};
