/* XPM */
static char *image[] = {
"16 16 3 1",
"  c None",
"0 c #ffffff",
"1 c #000000",
"1011011    10111",
"10000001  000001",
"001111011 101011",
"1001 1001000001 ",
"101110011010101 ",
"100000110110011 ",
"0011111101 1011 ",
"1001  1001 101  ",
"1011 1001 0011  ",
"1001000110100110",
"1111000000010001",
"   1011010001011",
"   1111111101111",
"         1001   ",
"         1011   ",
"         1111   "};
