/* XPM */
static char *image[] = {
"48 48 213 2",
"   c None",
"00 c #1f1f1f",
"10 c #0b0b0b",
"20 c #555555",
"30 c #a7a7a7",
"40 c #292929",
"50 c #666666",
"60 c #272727",
"70 c #656565",
"80 c #ababab",
"90 c #7d7d7d",
":0 c #b0b0b0",
";0 c #b2b2b2",
"A0 c #191919",
"B0 c #2b2b2b",
"C0 c #707070",
"D0 c #7f7f7f",
"E0 c #bbbbbb",
"F0 c #bdbdbd",
"G0 c #070707",
"H0 c #8a8a8a",
"I0 c #030303",
"J0 c #b6b6b6",
"K0 c #bfbfbf",
"L0 c #0d0d0d",
"M0 c #444444",
"N0 c #8c8c8b",
"O0 c #888888",
"P0 c #959595",
"Q0 c #222222",
"R0 c #040404",
"S0 c #575757",
"T0 c #cce4b6",
"U0 c #d5efbf",
"V0 c #bdc6b5",
"W0 c #c2c8bc",
"X0 c #d2e9bf",
"Y0 c #d6f2bf",
"Z0 c #d4edbf",
"a0 c #090909",
"b0 c #545454",
"c0 c #414141",
"d0 c #515151",
"e0 c #565656",
"f0 c #7e7e7e",
"g0 c #a9a9a9",
"h0 c #a2a2a2",
"i0 c #434343",
"j0 c #484848",
"k0 c #4d4d4d",
"l0 c #878787",
"m0 c #b1b1b1",
"n0 c #cdcdcd",
"o0 c #cfcfcf",
"p0 c #dcdcdc",
"q0 c #4e4e4e",
"r0 c #c2c2c2",
"s0 c #b4b4b4",
"t0 c #4a4a4a",
"u0 c #8e8e8e",
"v0 c #777777",
"w0 c #595959",
"x0 c #383838",
"y0 c #8d8d8d",
"z0 c #eeeeee",
"01 c #f3f3f3",
"11 c #c8c8c8",
"21 c #b8b8b8",
"31 c #e7e7e7",
"41 c #e9e9e9",
"51 c #3e3e3e",
"61 c #111111",
"71 c #464646",
"81 c #3c3c3c",
"91 c #8c8c8c",
":1 c #dadada",
";1 c #646464",
"A1 c #818181",
"B1 c #7b7b7b",
"C1 c #363636",
"D1 c #212121",
"E1 c #585858",
"F1 c #acacac",
"G1 c #f5f5f5",
"H1 c #f6f6f6",
"I1 c #fbfbfb",
"J1 c #5e5e5e",
"K1 c #1b1b1b",
"L1 c #5f5f5f",
"M1 c #8b8b8b",
"N1 c #494949",
"O1 c #dedede",
"P1 c #afafaf",
"Q1 c #7c7c7c",
"R1 c #525252",
"S1 c #333333",
"T1 c #3a3a3a",
"U1 c #2c2c2c",
"V1 c #2e2e2e",
"W1 c #3b3b3b",
"X1 c #f9f9f9",
"Y1 c #fcfcfc",
"Z1 c #e3e3e3",
"a1 c #bababa",
"b1 c #626262",
"c1 c #323232",
"d1 c #999999",
"e1 c #d3d3d3",
"f1 c #393939",
"g1 c #adadad",
"h1 c #c5c5c5",
"i1 c #cacaca",
"j1 c #d0d0d0",
"k1 c #d5d5d5",
"l1 c #e0e0e0",
"m1 c #ebebeb",
"n1 c #f0f0f0",
"o1 c #aaaaaa",
"p1 c #717171",
"q1 c #5d5d5d",
"r1 c #373737",
"s1 c #353535",
"t1 c #2f2f2f",
"u1 c #303030",
"v1 c #2a2a2a",
"w1 c #252525",
"x1 c #4b4b4b",
"y1 c #6a6a6a",
"z1 c #c3c3c3",
"02 c #a6a6a6",
"12 c #6f6f6f",
"22 c #2d2d2d",
"32 c #232323",
"42 c #141414",
"52 c #101010",
"62 c #1c1c1c",
"72 c #4c4c4c",
"82 c #a1a1a1",
"92 c #b7b7b7",
":2 c #bcbcbc",
";2 c #c1c1c1",
"A2 c #c7c7c7",
"B2 c #cccccc",
"C2 c #d2d2d2",
"D2 c #d7d7d7",
"E2 c #e2e2e2",
"F2 c #ededed",
"G2 c #f2f2f2",
"H2 c #f8f8f8",
"I2 c #fdfdfd",
"J2 c #a5a5a5",
"K2 c #757575",
"L2 c #3d3d3d",
"M2 c #474747",
"N2 c #454545",
"O2 c #1e1e1e",
"P2 c #171717",
"Q2 c #313131",
"R2 c #4f4f4f",
"S2 c #9b9b9b",
"T2 c #a8a8a8",
"U2 c #aeaeae",
"V2 c #b3b3b3",
"W2 c #b9b9b9",
"X2 c #bebebe",
"Y2 c #c4c4c4",
"Z2 c #c9c9c9",
"a2 c #cecece",
"b2 c #d4d4d4",
"c2 c #d9d9d9",
"d2 c #dfdfdf",
"e2 c #e4e4e4",
"f2 c #eaeaea",
"g2 c #efefef",
"h2 c #f4f4f4",
"i2 c #fafafa",
"j2 c #ffffff",
"k2 c #e8e8e8",
"l2 c #535353",
"m2 c #181818",
"n2 c #0c0c0c",
"o2 c #151515",
"p2 c #121212",
"q2 c #343434",
"r2 c #404040",
"s2 c #6e6e6e",
"t2 c #a4a4a4",
"u2 c #b5b5b5",
"v2 c #c0c0c0",
"w2 c #c6c6c6",
"x2 c #cbcbcb",
"y2 c #d1d1d1",
"z2 c #d6d6d6",
"03 c #dbdbdb",
"13 c #e1e1e1",
"23 c #e6e6e6",
"33 c #ececec",
"43 c #f1f1f1",
"53 c #e5e5e5",
"63 c #424242",
"73 c #0a0a0a",
"83 c #0f0f0f",
"93 c #161616",
":3 c #1a1a1a",
";3 c #505050",
"A3 c #6b6b6b",
"B3 c #9a9a9a",
"C3 c #d8d8d8",
"D3 c #dddddd",
"E3 c #868686",
"F3 c #282828",
"G3 c #080808",
"H3 c #000000",
"                                                                                                ",
"                                                                                                ",
"                                                                                                ",
"                                                                                                ",
"                                                                                                ",
"                                                                                                ",
"                                                                                                ",
"                                                                                                ",
"                                                                                                ",
"                                                                                                ",
"                                                                                                ",
"                                                                                                ",
"                                                                                                ",
"                                                                                                ",
"                                                                                                ",
"                                                                                                ",
"                                          H3                                                    ",
"                                      G3F3E3D3C3B3A3;3:39383H3H3H3                              ",
"                                  7363534333231303z2y2x2w2v2u2t2s2r2q2p2o2n2H3H3H3              ",
"                              m2l2k2j2j2i2h2g2f2e2d2c2b2a2Z2Y2X2W2V2U2T2S2R2Q2H3H3              ",
"                  H3P283O2N2M2L2M2K2J2c2j2I2H2G2F2k2E2D3D2C2B2A2;2:2928272L2M2;3625242          ",
"          32P222631202z1u2y1x1w1v1u1t1s1r1q1p1o123n1m153l103k1j1i1h1g1;3f172K2V2k1e1d1c1        ",
"        b1a1z1Z1j2j2j2j2I2Y1i2X1i1b1W1V1U1T1r1t1S1R1Q1P1C2Z1O1C3e1a2N1r2M1A2D2k1M1L1N2K1        ",
"        J1e2m1f2k2X2a1a2Y1I1X1H2H1G1h2l1F1E1W1c1t1c1D1t1C1N2B1t2Y2A1;1:1c2D291J1M2817161        ",
"        51f241k23153Z113l121u211H1h20143n1z0F2B2y0;3q2x0r272v1F3w0v003v2u0w0t051N1R1R2p2        ",
"        C141k223e2E213d2D303:1c2D2W2F1s0g2F233f2413123:2y0T1t0A2D3r0E3J1N17172q0l2R27252        ",
"        513153e2E213d2D3p0:1C3z2b2e1y2o0n0m002U2k22353Z1E2l1d2Y2l0L1k071R1k0R2l2R272j0G3        ",
"        i023e2E2l1O1D303c2D2k1b2e1y2o0n0B2i111w2Y2s0h0g0A2V2f0e0d0c072R1j0;3b0;372j063a0        ",
"        L2Z113d2O1p003c2C3z2b2C2j1o0n0x2Z2A2w2Z0Y0X0W0X2:271b0;3R2x172;3M2;3;372j0N2W1n2        ",
"        32E2l1O1p0:1c2D2k1e1y2j1a2n0x2Z211w2Y2V0U0Y0T0d1W271S0b072q0;3k0N1;372j0N263W1R0        ",
"        Q0d2D303:1C3z2k1e1C2j1a2B2x2Z2A2h1z1r0P1P0O0N0t2S2M0R1d0q0x1d0M0;372j0N2i06363H3        ",
"        Q0D3p0:1C3z2k1e1y2o0n0B2i111A2h1Y2r0v2X2:2u2T2g0y0N2t0N2M0q063t0k0N171i0N2V1L0H3        ",
"        D103c2D2z2b2C2j1o0a2B2i111w2h1z1;2K0X2:2a1W292J091L2t0k0L2q0M2k0N17163t042I0H3          ",
"        H3c2D2z2b2C2y2o0n0x2Z211w2Y2r0;2K0X2:2a12192u2V2H063r2j0M2j0k0N171N1s1G0H3H3            ",
"        H3d1x2e1C2j1a2B2x2Z211w2Y2r0;2K0F0E0W221J0s0V2m0D0L2i0t0N1k0N171M061I0H3H3              ",
"          o2U1M2A3g1n0x2Z2A2h1Y2r0v2X2:2E0a121J0s0V2m0P1C0x0M0i071N1N1B0G3H3H3                  ",
"                H3A0t1c0v0s0z1r0v2X2F0E0W292u2s0;0:0U2g1y151r271t0M261R0H3                      ",
"                        H3P2U16390J2922192u2s0;0:0P1g18070W163x160G3H3H3                        ",
"                              H3H3D1t1j050l0F1:0U2F1o1T2b1i081p2R0H3                            ",
"                                        H3w140T1q1f0t230206210H3H3                              ",
"                                                p260Q2E100G3H3                                  ",
"                                                                                                ",
"                                                                                                ",
"                                                                                                ",
"                                                                                                ",
"                                                                                                ",
"                                                                                                ",
"                                                                                                "};
