/* XPM */
static char *image[] = {
"48 48 327 2",
"   c None",
"00 c #10223e",
"10 c #21242a",
"20 c #595a5c",
"30 c #323539",
"40 c #2b3543",
"50 c #1b2f4f",
"60 c #0c2955",
"70 c #0d131b",
"80 c #1c1d1e",
"90 c #555555",
":0 c #a7a7a7",
";0 c #7e7e7e",
"A0 c #3b3d40",
"B0 c #2b2f34",
"C0 c #293240",
"D0 c #0b2449",
"E0 c #0b264e",
"F0 c #131518",
"G0 c #64686f",
"H0 c #878787",
"I0 c #666666",
"J0 c #494b4f",
"K0 c #31353c",
"L0 c #242c38",
"M0 c #091c3a",
"N0 c #0d2955",
"O0 c #0c2954",
"P0 c #081a36",
"Q0 c #0a0e15",
"R0 c #28292b",
"S0 c #676b72",
"T0 c #ababab",
"U0 c #7d7d7d",
"V0 c #43474c",
"W0 c #2f353e",
"X0 c #1b2433",
"Y0 c #091e3f",
"Z0 c #081220",
"a0 c #6c7077",
"b0 c #b0b0b0",
"c0 c #b2b2b2",
"d0 c #42454a",
"e0 c #323841",
"f0 c #1d2737",
"g0 c #081c39",
"h0 c #2c2d2f",
"i0 c #72777e",
"j0 c #6c6d6f",
"k0 c #484c51",
"l0 c #303a49",
"m0 c #213d67",
"n0 c #0d2b59",
"o0 c #0a2145",
"p0 c #060e19",
"q0 c #81868e",
"r0 c #b1b1b1",
"s0 c #b4b4b4",
"t0 c #bbbbbb",
"u0 c #bdbdbd",
"v0 c #0a1f41",
"w0 c #0d2954",
"x0 c #07152b",
"y0 c #090d13",
"z0 c #36373a",
"01 c #8c9097",
"11 c #b8b8b8",
"21 c #0a2144",
"31 c #0b254c",
"41 c #070f1d",
"51 c #15181c",
"61 c #8e9299",
"71 c #b6b6b6",
"81 c #bababa",
"91 c #bfbfbf",
":1 c #273447",
";1 c #0b244b",
"A1 c #101824",
"B1 c #2f3033",
"C1 c #8f939a",
"D1 c #a9a9a9",
"E1 c #06152a",
"F1 c #434343",
"G1 c #444444",
"H1 c #9ca0a5",
"I1 c #8c8c8b",
"J1 c #888888",
"K1 c #959595",
"L1 c #c2c2c2",
"M1 c #283548",
"N1 c #081221",
"O1 c #575757",
"P1 c #999999",
"Q1 c #cce4b6",
"R1 c #d5efbf",
"S1 c #bdc6b5",
"T1 c #29364a",
"U1 c #0f1620",
"V1 c #c2c8bc",
"W1 c #d2e9bf",
"X1 c #d6f2bf",
"Y1 c #d4edbf",
"Z1 c #414956",
"a1 c #0c111a",
"b1 c #424242",
"c1 c #545454",
"d1 c #414141",
"e1 c #515151",
"f1 c #565656",
"g1 c #808489",
"h1 c #b5b9be",
"i1 c #c8cacd",
"j1 c #abb0b7",
"k1 c #a4a8af",
"l1 c #b5b7ba",
"m1 c #c8c8c8",
"n1 c #464c55",
"o1 c #0a0f16",
"p1 c #484848",
"q1 c #4d4d4d",
"r1 c #5f5f5f",
"s1 c #898f97",
"t1 c #c5c7cb",
"u1 c #b0b5bc",
"v1 c #a8adb5",
"w1 c #b3b6bb",
"x1 c #cdcdcd",
"y1 c #cfcfcf",
"z1 c #dcdcdc",
"02 c #40464e",
"12 c #111316",
"22 c #535353",
"32 c #4e4e4e",
"42 c #888e96",
"52 c #c3c5c9",
"62 c #b6bbc2",
"72 c #aeb3bb",
"82 c #bbbec3",
"92 c #383d44",
":2 c #131519",
";2 c #4f4f4f",
"A2 c #3e3e3e",
"B2 c #4a4a4a",
"C2 c #5a5b5e",
"D2 c #90969e",
"E2 c #c1c3c7",
"F2 c #777777",
"G2 c #595959",
"H2 c #282828",
"I2 c #383838",
"J2 c #343434",
"K2 c #8d8d8d",
"L2 c #eeeeee",
"M2 c #f3f3f3",
"N2 c #caced3",
"O2 c #b7bcc4",
"P2 c #babec5",
"Q2 c #e7e7e7",
"R2 c #e9e9e9",
"S2 c #3f4347",
"T2 c #121418",
"U2 c #464646",
"V2 c #3c3c3c",
"W2 c #5f6164",
"X2 c #8f949d",
"Y2 c #dadada",
"Z2 c #646464",
"a2 c #818181",
"b2 c #7b7b7b",
"c2 c #363636",
"d2 c #212121",
"e2 c #323232",
"f2 c #585858",
"g2 c #acacac",
"h2 c #f5f5f5",
"i2 c #f6f6f6",
"j2 c #fbfbfb",
"k2 c #d0d4d9",
"l2 c #bcc1c9",
"m2 c #c0c5cc",
"n2 c #5e5e5e",
"o2 c #1b1c1e",
"p2 c #454545",
"q2 c #606469",
"r2 c #8e939c",
"s2 c #8b8b8b",
"t2 c #404040",
"u2 c #494949",
"v2 c #dedede",
"w2 c #e3e3e3",
"x2 c #afafaf",
"y2 c #7c7c7c",
"z2 c #525252",
"03 c #333333",
"13 c #3a3a3a",
"23 c #2c2c2c",
"33 c #2e2e2e",
"43 c #3b3b3b",
"53 c #626262",
"63 c #f9f9f9",
"73 c #fcfcfc",
"83 c #e4e7ec",
"93 c #c6ced9",
":3 c #bec6d2",
";3 c #636568",
"A3 c #33363b",
"B3 c #9ba0a8",
"C3 c #d3d3d3",
"D3 c #393939",
"E3 c #505050",
"F3 c #adadad",
"G3 c #c5c5c5",
"H3 c #cacaca",
"I3 c #d0d0d0",
"J3 c #d5d5d5",
"K3 c #e0e0e0",
"L3 c #ebebeb",
"M3 c #f0f0f0",
"N3 c #aaaaaa",
"O3 c #717171",
"P3 c #5d5d5d",
"Q3 c #373737",
"R3 c #353535",
"S3 c #2f2f2f",
"T3 c #303030",
"U3 c #2a2a2a",
"V3 c #252525",
"W3 c #4b4b4b",
"X3 c #6a6a6a",
"Y3 c #c3c3c3",
"Z3 c #a6a6a6",
"a3 c #6f6f6f",
"b3 c #434446",
"c3 c #2f333a",
"d3 c #1a2029",
"e3 c #2a394f",
"f3 c #18202e",
"g3 c #131821",
"h3 c #1d2025",
"i3 c #52565c",
"j3 c #4c4c4c",
"k3 c #a1a1a1",
"l3 c #b7b7b7",
"m3 c #bcbcbc",
"n3 c #c1c1c1",
"o3 c #c7c7c7",
"p3 c #cccccc",
"q3 c #d2d2d2",
"r3 c #d7d7d7",
"s3 c #e2e2e2",
"t3 c #e8e8e8",
"u3 c #ededed",
"v3 c #f2f2f2",
"w3 c #f8f8f8",
"x3 c #fdfdfd",
"y3 c #a5a5a5",
"z3 c #757575",
"04 c #3d3d3d",
"14 c #474747",
"24 c #46494e",
"34 c #1f2227",
"44 c #121822",
"54 c #1b2533",
"64 c #081a35",
"74 c #081b38",
"84 c #364355",
"94 c #505153",
":4 c #9b9b9b",
";4 c #a8a8a8",
"A4 c #aeaeae",
"B4 c #b3b3b3",
"C4 c #b9b9b9",
"D4 c #bebebe",
"E4 c #c4c4c4",
"F4 c #c9c9c9",
"G4 c #cecece",
"H4 c #d4d4d4",
"I4 c #d9d9d9",
"J4 c #dfdfdf",
"K4 c #e4e4e4",
"L4 c #eaeaea",
"M4 c #efefef",
"N4 c #f4f4f4",
"O4 c #fafafa",
"P4 c #ffffff",
"Q4 c #e9eaed",
"R4 c #596578",
"S4 c #20334f",
"T4 c #0b2347",
"U4 c #0c264f",
"V4 c #0b2245",
"W4 c #122035",
"X4 c #1a2639",
"Y4 c #16202e",
"Z4 c #383e46",
"a4 c #5b5c5c",
"b4 c #898989",
"c4 c #a4a4a4",
"d4 c #b5b5b5",
"e4 c #c0c0c0",
"f4 c #c6c6c6",
"g4 c #cbcbcb",
"h4 c #d1d1d1",
"i4 c #d6d6d6",
"j4 c #dbdbdb",
"k4 c #e1e1e1",
"l4 c #e6e6e6",
"m4 c #ececec",
"n4 c #f1f1f1",
"o4 c #e5e5e5",
"p4 c #475160",
"q4 c #132644",
"r4 c #0c2751",
"s4 c #0a1f40",
"t4 c #081b37",
"u4 c #152338",
"v4 c #1b2535",
"w4 c #1f2a3a",
"x4 c #535b66",
"y4 c #707988",
"z4 c #9ea6b2",
"05 c #d8d8d8",
"15 c #dddddd",
"25 c #89919c",
"35 c #2d3848",
"45 c #0f2039",
"55 c #0d2b58",
"                                                                                                ",
"                                                                                                ",
"                                                                                                ",
"                                                                                                ",
"                                                                                                ",
"                                                                                                ",
"                                                                                                ",
"                                                                                                ",
"                                                                                                ",
"                                                                                                ",
"                                                                                                ",
"                                                                                                ",
"                                                                                                ",
"                                                                                                ",
"                                                                                                ",
"                                                                                                ",
"                                          55                                                    ",
"                                      4535251505z4y4x4w4v4u4t4s4r4                              ",
"                                  q4p4o4n4m4l4k4j4i4h4g4f4e4d4c4b4a4Z4Y4X4W4V4U4T4              ",
"                              S4R4Q4P4P4O4N4M4L4K4J4I4H4G4F4E4D4C4B4A4;4:494847464              ",
"                  7454443424140414z3y3I4P4x3w3v3u3t3s315r3q3p3o3n3m3l3k3j30414i3h3g3f3          ",
"          e3d3c3b3a3Z3Y3d4X3W3V3U3T3S3R3Q3P3O3N3l4M3L3o4K3j4J3I3H3G3F3E3D3j3z3B4J3C3B3A3        ",
"        ;3:39383P4P4P4P4x373O463H35343332313Q3S303z2y2x2q3w2v205C3G4u2t2s2o3r3J3r2q2p2o2        ",
"        n2K4L3L4t3m2l2k273j263w3i2h2N4K3g2f243e2S3e2d2S3c2p2b2c4E4a2Z2Y2I4r3X2W214V2U2T2        ",
"        S2L4R2t3Q2o4w2k4K3P2O2N2i2N4M2n4M3L2u3p3K2E3J2I2t2j3U3H2G2F2j4E2D2C2B2A2u2z2;2:2        ",
"        92R2t3l4K4s3k4J415j4Y2I4r3827262M4u3m4L4R2Q2l4m3K213B2o3155242n2u2U2j33222;2j312        ",
"        02Q2o4K4s3k4J415z1Y205i4H4C3h4y1x1w1v1u1t3l4o4w2s3K3J4t1s1r1q1U2z2q1;222;2j3p1o1        ",
"        n1l4K4s3K3v215j4I4r3J3H4C3h4y1x1p3H3m1f4E4l1k1j1i1h1g1f1e1d1j3z2p1E3c1E3j3p1b1a1        ",
"        Z1w2k4J4v2z1j4I405i4H4q3I3y1x1g4F4o3f4Y1X1W1V1D4m3U2c1E3;2W3j3E314E3E3j3p1p243U1        ",
"        T1s3K3v2z1Y2I4r3J3C3h4I3G4x1g4F4m1f4E4S1R1X1Q1P1C4U2O1c1j332E3q1u2E3j3p1p2b143N1        ",
"        M1J415j4Y205i4J3C3q3I3G4p3g4F4o3G3Y3L1x2K1J1I1c4H1G1z2e132W3e1G1E3j3p1p2F1b1b1E1        ",
"        M115z1Y205i4J3C3h4y1x1p3H3m1o3G3E4L1e4D4m3d4;4D1C1p2B2p2G132b1B2q1u2U2F1p2B1A1;1        ",
"        :1j4I4r3i4H4q3I3y1G4p3H3m1f4G3Y3n391D4m381C4l3716104B2q1043214q1u2U2b1B2514131          ",
"        21I4r3i4H4q3h4y1x1g4F4m1f4E4L1n391D4m38111l3d4B401b1t2p114p1q1u2U2u2z0y0x0w0            ",
"        v0P1g4C3q3I3G4p3g4F4m1f4E4L1n391u0t0C41171s0B4r0q004F1B2u2q1u2U2G1T2p0o0n0              ",
"          m0l0k0j0F3x1g4F4o3G3E4L1e4D4m3t0811171s0B4r0x2i0I2G1F1U2u2u2h0o1g0w0                  ",
"                21f0e0d0F2s0Y3L1e4D4u0t0C4l3d4s0c0b0A4F3a0A2t2U2B214T2Z031                      ",
"                        Y0X0W0V0U0y3l311l3d4s0c0b0x2F3T0S043b1W3R0Q0P0O0                        ",
"                              N0M0L0K0J0I0H0g2b0A4g2N3;4G0F1V2F0Z0E0                            ",
"                                        D0C0B0A0P3;0c4:09080707460                              ",
"                                                504030201000;1                                  ",
"                                                                                                ",
"                                                                                                ",
"                                                                                                ",
"                                                                                                ",
"                                                                                                ",
"                                                                                                ",
"                                                                                                "};
