/* XPM */
static char *image[] = {
"48 48 784 2",
"   c None",
"00 c #777778",
"10 c #6a696a",
"20 c #5f5f5f",
"30 c #565656",
"40 c #555556",
"50 c #5a5a5a",
"60 c #666665",
"70 c #757370",
"80 c #676563",
"90 c #52514f",
":0 c #434141",
";0 c #393837",
"A0 c #272629",
"B0 c #181919",
"C0 c #131213",
"D0 c #1d1d1d",
"E0 c #373635",
"F0 c #464442",
"G0 c #504e4c",
"H0 c #635f5e",
"I0 c #6f6e6e",
"J0 c #555355",
"K0 c #313033",
"L0 c #313135",
"M0 c #3d3d37",
"N0 c #646050",
"O0 c #939283",
"P0 c #afb6b1",
"Q0 c #c3cdcb",
"R0 c #bdc4b9",
"S0 c #a4a494",
"T0 c #726e63",
"U0 c #3c3432",
"V0 c #342a2b",
"W0 c #615e5c",
"X0 c #1b1918",
"Y0 c #38302d",
"Z0 c #231b14",
"a0 c #5a5554",
"b0 c #9c9f9d",
"c0 c #c2c4b3",
"d0 c #bebaa4",
"e0 c #c2c9c1",
"f0 c #cad5d2",
"g0 c #dae1d4",
"h0 c #f1f0d8",
"i0 c #f1e6d1",
"j0 c #cfb5ab",
"k0 c #907770",
"l0 c #2e2824",
"m0 c #282728",
"n0 c #606060",
"o0 c #5c5956",
"p0 c #373634",
"q0 c #393331",
"r0 c #a89695",
"s0 c #e9d3d4",
"t0 c #e1d9d8",
"u0 c #d0d6cb",
"v0 c #bdb8a0",
"w0 c #c2c8be",
"x0 c #cbd5d3",
"y0 c #dce3d5",
"z0 c #f4f1d8",
"01 c #f1e0ce",
"11 c #e6c2b8",
"21 c #ceb09e",
"31 c #a29578",
"41 c #57543e",
"51 c #0f0f0c",
"61 c #434443",
"71 c #686663",
"81 c #383530",
"91 c #39342f",
":1 c #cfbbb1",
";1 c #eed7d2",
"A1 c #edd3d4",
"B1 c #d6dad3",
"C1 c #bdb79b",
"D1 c #c2c7bb",
"E1 c #cbd6d2",
"F1 c #e0e6d4",
"G1 c #f3edd6",
"H1 c #dcb7ac",
"I1 c #bfa890",
"J1 c #8c8a60",
"K1 c #5a5a3f",
"L1 c #13130f",
"M1 c #333233",
"N1 c #070505",
"O1 c #322f2d",
"P1 c #474239",
"Q1 c #cdc0a5",
"R1 c #f0dacf",
"S1 c #eed6d2",
"T1 c #ebd3d5",
"U1 c #dfd9d6",
"V1 c #ced2c5",
"W1 c #bdb599",
"X1 c #c2c5b7",
"Y1 c #ccd6d3",
"Z1 c #e4e9d6",
"a1 c #f1e6d3",
"b1 c #ebcbc1",
"c1 c #caae9a",
"d1 c #aa9c7c",
"e1 c #8d8b62",
"f1 c #8c8b61",
"g1 c #99966f",
"h1 c #7d7a5d",
"i1 c #1f1e1b",
"j1 c #5d5957",
"k1 c #1e1b1a",
"l1 c #cebdae",
"m1 c #eadabe",
"n1 c #e9dabb",
"o1 c #eddbc7",
"p1 c #efd9d0",
"q1 c #eed4d4",
"r1 c #e4d6d5",
"s1 c #d4d7ce",
"t1 c #c0baa1",
"u1 c #c1c2b2",
"v1 c #cdd6d3",
"w1 c #e9ecd9",
"x1 c #f0dfcf",
"y1 c #e3c0b6",
"z1 c #b8a48a",
"02 c #98916c",
"12 c #8c8c61",
"22 c #96946c",
"32 c #a39f7b",
"42 c #afaa86",
"52 c #736c5b",
"62 c #393432",
"72 c #747270",
"82 c #363033",
"92 c #8f807e",
":2 c #efdacc",
";2 c #ebdac1",
"A2 c #e9d9bc",
"B2 c #eddac7",
"C2 c #efd8d0",
"D2 c #ecd4d5",
"E2 c #dddad7",
"F2 c #c6c4ad",
"G2 c #bfbeab",
"H2 c #ced8d3",
"I2 c #edeed8",
"J2 c #ecd3c5",
"K2 c #cfb1a0",
"L2 c #9d9471",
"M2 c #8c8b60",
"N2 c #98966f",
"O2 c #a5a17c",
"P2 c #bbb292",
"Q2 c #d6c5ab",
"R2 c #d6c2b2",
"S2 c #504843",
"T2 c #615c60",
"U2 c #635e5f",
"V2 c #3f3839",
"W2 c #d7bfc1",
"X2 c #eed5d3",
"Y2 c #efd7d1",
"Z2 c #efdace",
"a2 c #eddac4",
"b2 c #eadabd",
"c2 c #e6d6d5",
"d2 c #cacbb9",
"e2 c #c0bda8",
"f2 c #cfd8d3",
"g2 c #ece9d5",
"h2 c #e3c6b9",
"i2 c #b7a389",
"j2 c #8d8c62",
"k2 c #94926a",
"l2 c #bdb393",
"m2 c #ddcab5",
"n2 c #e0cab9",
"o2 c #cfbaa9",
"p2 c #9e8e80",
"q2 c #29262a",
"r2 c #3c3a3d",
"s2 c #969290",
"t2 c #e5d7d6",
"u2 c #e9d4d5",
"v2 c #ecd4d4",
"w2 c #eed6d3",
"x2 c #efd9d1",
"y2 c #eddac8",
"z2 c #eadabf",
"03 c #f1dddb",
"13 c #f0f0ee",
"23 c #f2f1ed",
"33 c #f9faf9",
"43 c #fbf8f3",
"53 c #e3d4cb",
"63 c #a59f7f",
"73 c #aca683",
"83 c #cec0a6",
"93 c #e2ccbb",
":3 c #cebaa8",
";3 c #c1ae9d",
"A3 c #b7a595",
"B3 c #453e3a",
"C3 c #666263",
"D3 c #7e7d7f",
"E3 c #29292a",
"F3 c #c8cdc4",
"G3 c #d7dad5",
"H3 c #dedbd8",
"I3 c #e4d7d6",
"J3 c #e9d4d4",
"K3 c #edd4d4",
"L3 c #efd7d2",
"M3 c #f0e5d4",
"N3 c #fbf6f4",
"O3 c #f7f3f3",
"P3 c #eae9e2",
"Q3 c #f0f3f0",
"R3 c #f9f1ec",
"S3 c #e9e7df",
"T3 c #e0dfd4",
"U3 c #b8b292",
"V3 c #d7c5ae",
"W3 c #d3bfad",
"X3 c #c5b2a0",
"Y3 c #b6a596",
"Z3 c #b2a192",
"a3 c #b4a494",
"b3 c #766b60",
"c3 c #514d50",
"d3 c #656461",
"e3 c #4d4b45",
"f3 c #c6c4ae",
"g3 c #c9c9b5",
"h3 c #cdd0c0",
"i3 c #cfd6c9",
"j3 c #d7d9d2",
"k3 c #ded8d3",
"l3 c #e5d6d6",
"m3 c #edd8d7",
"n3 c #fcf8f6",
"o3 c #f8f3ec",
"p3 c #9d9996",
"q3 c #535251",
"r3 c #515151",
"s3 c #5a5551",
"t3 c #b3b2a6",
"u3 c #ece9e1",
"v3 c #eee6e0",
"w3 c #c4b2a2",
"x3 c #b3a394",
"y3 c #b7a797",
"z3 c #bbab9a",
"04 c #c0b09c",
"14 c #c3b3a0",
"24 c #a29485",
"34 c #4c4646",
"44 c #5a5856",
"54 c #636053",
"64 c #bcb599",
"74 c #bdb699",
"84 c #c0b99c",
"94 c #c0b99f",
":4 c #c4c0a7",
";4 c #cac9b3",
"A4 c #d1d2c5",
"B4 c #e8e6e0",
"C4 c #f7f6f5",
"D4 c #c4bdbc",
"E4 c #464341",
"F4 c #7e7a7a",
"G4 c #878484",
"H4 c #65615f",
"I4 c #56534f",
"J4 c #d0cac4",
"K4 c #ece7e3",
"L4 c #c6b9ac",
"M4 c #bfae9d",
"N4 c #c7b8a4",
"O4 c #cbbaa7",
"P4 c #cfbeaa",
"Q4 c #d3c1ae",
"R4 c #c3b4a2",
"S4 c #59595a",
"T4 c #797a71",
"U4 c #c0c3b3",
"V4 c #c1c3b2",
"W4 c #c1c2b1",
"X4 c #c1c1af",
"Y4 c #c0c0ad",
"Z4 c #c0beaa",
"a4 c #bfbca6",
"b4 c #e7e5dd",
"c4 c #e8e7df",
"d4 c #6f706d",
"e4 c #4e4d51",
"f4 c #1e1c1d",
"g4 c #4e4b4c",
"h4 c #686564",
"i4 c #474344",
"j4 c #b0aba6",
"k4 c #f3eee9",
"l4 c #e6d9cd",
"m4 c #e2cebd",
"n4 c #e6d2c2",
"o4 c #ead6c5",
"p4 c #ecd8c7",
"q4 c #eedac9",
"r4 c #efdbcb",
"s4 c #e9d5c6",
"t4 c #4c4541",
"u4 c #5e5e5e",
"v4 c #7b8080",
"w4 c #c4cecc",
"x4 c #c6cfcc",
"y4 c #c6d0cd",
"z4 c #c8d2cd",
"05 c #cad3ce",
"15 c #ccd5ce",
"25 c #edf0ed",
"35 c #eff1ed",
"45 c #747571",
"55 c #5b5959",
"65 c #616061",
"75 c #676565",
"85 c #595657",
"95 c #484440",
":5 c #b4adaa",
";5 c #f3ebea",
"A5 c #e0cbcb",
"B5 c #d4b7b5",
"C5 c #d6bab6",
"D5 c #dabeb9",
"E5 c #dbc0ba",
"F5 c #d8beb7",
"G5 c #473e3c",
"H5 c #676666",
"I5 c #6e7471",
"J5 c #d3dcd4",
"K5 c #d5ddd5",
"L5 c #d7dfd4",
"M5 c #dce2d4",
"N5 c #e2e7d6",
"O5 c #e6e9d6",
"P5 c #edebd5",
"Q5 c #f7f1e5",
"R5 c #f9f6f1",
"S5 c #bdb4af",
"T5 c #31302c",
"U5 c #433f40",
"V5 c #484544",
"W5 c #413d3d",
"X5 c #605c5b",
"Y5 c #e2ddd8",
"Z5 c #fbf5ee",
"a5 c #eedccc",
"b5 c #e1c8b7",
"c5 c #dbc0b3",
"d5 c #d3b5b0",
"e5 c #ceafae",
"f5 c #cbabad",
"g5 c #b79a9b",
"h5 c #473a40",
"i5 c #828282",
"j5 c #7d7c7a",
"k5 c #5a5d59",
"l5 c #e4e8d5",
"m5 c #eaecd7",
"n5 c #eef0d9",
"o5 c #f0eed7",
"p5 c #f2ebd5",
"q5 c #f2e5d1",
"r5 c #edd3c6",
"s5 c #e2c5b8",
"t5 c #f2eeea",
"u5 c #dfddd1",
"v5 c #8f8d84",
"w5 c #464240",
"x5 c #373432",
"y5 c #5b5653",
"z5 c #d0cbc9",
"06 c #fcf7f6",
"16 c #fdf8f4",
"26 c #faede0",
"36 c #f3e1ca",
"46 c #eedac2",
"56 c #ead3ba",
"66 c #e6cdb9",
"76 c #e1c7b8",
"86 c #ddc1b6",
"96 c #b09892",
":6 c #5f4a4c",
";6 c #e2b29b",
"A6 c #f5c0a6",
"B6 c #2a2a2a",
"C6 c #373735",
"D6 c #e7e2cc",
"E6 c #f1ead4",
"F6 c #f1e3d1",
"G6 c #f0dbcc",
"H6 c #eaccc1",
"I6 c #e1bcb2",
"J6 c #c4ab95",
"K6 c #a79a7a",
"L6 c #b3b195",
"M6 c #eae9e0",
"N6 c #f1ece6",
"O6 c #e7e2dc",
"P6 c #f4ede8",
"Q6 c #f3ebe6",
"R6 c #fefcfa",
"S6 c #fdf7f6",
"T6 c #f7dfdd",
"U6 c #fae7e2",
"V6 c #fcefe9",
"W6 c #fbeee3",
"X6 c #f6e8d5",
"Y6 c #f2e1c9",
"Z6 c #efdbbf",
"a6 c #ecd7bc",
"b6 c #958676",
"c6 c #745446",
"d6 c #db997a",
"e6 c #d07d59",
"f6 c #555252",
"g6 c #a1968b",
"h6 c #efdacb",
"i6 c #ecccc2",
"j6 c #e4c0b7",
"k6 c #d2b1a1",
"l6 c #bca68d",
"m6 c #9c9470",
"n6 c #8f8d63",
"o6 c #9f9d76",
"p6 c #d4c9b4",
"q6 c #e8e0db",
"r6 c #f0ece9",
"s6 c #faf7f6",
"t6 c #f5efec",
"u6 c #f9f1e6",
"v6 c #fceee8",
"w6 c #f6dbd9",
"x6 c #fbebe5",
"y6 c #fcf0e8",
"z6 c #fbefe3",
"07 c #f7e8d4",
"17 c #f3e2ca",
"27 c #61574a",
"37 c #8a5943",
"47 c #b97e5c",
"57 c #c2724b",
"67 c #403534",
"77 c #ceaba3",
"87 c #d2b2a2",
"97 c #c3a991",
":7 c #a89c7c",
";7 c #948f69",
"A7 c #9a9870",
"B7 c #bbb392",
"C7 c #d7c4b1",
"D7 c #b7a696",
"E7 c #c1b19e",
"F7 c #e7d2c4",
"G7 c #d0b3b0",
"H7 c #ebd6bf",
"I7 c #f9ecdd",
"J7 c #f7dedc",
"K7 c #f5d8d8",
"L7 c #f8e0dd",
"M7 c #fae8e4",
"N7 c #fbede7",
"O7 c #fdf0e9",
"P7 c #cdc3ba",
"Q7 c #39261e",
"R7 c #ba7c61",
"S7 c #d68a6d",
"T7 c #483e3e",
"U7 c #79695c",
"V7 c #b8a58a",
"W7 c #a69979",
"X7 c #918c65",
"Y7 c #8b8b60",
"Z7 c #98976e",
"a7 c #a8a37f",
"b7 c #d3c3ab",
"c7 c #cebaa9",
"d7 c #b3a293",
"e7 c #c4b4a0",
"f7 c #e8d4c5",
"g7 c #cfb0b0",
"h7 c #e4ccba",
"i7 c #f3e2cb",
"j7 c #fcf1ea",
"k7 c #fae7e3",
"l7 c #f6dcda",
"m7 c #f4d7d7",
"n7 c #f7dfdc",
"o7 c #edded9",
"p7 c #5d5856",
"q7 c #9c7365",
"r7 c #eba38a",
"s7 c #ef9d84",
"t7 c #2e2a28",
"u7 c #867f60",
"v7 c #8e8b62",
"w7 c #8d8c60",
"x7 c #97956d",
"y7 c #a7a37e",
"z7 c #c4b99a",
"08 c #dec8b9",
"18 c #bdab9a",
"28 c #b5a595",
"38 c #c7b7a4",
"48 c #ead6c7",
"58 c #d3b7b4",
"68 c #dabeb3",
"78 c #ecd9be",
"88 c #f9ecdc",
"98 c #fcefe8",
":8 c #fae5e1",
";8 c #f7dddb",
"A8 c #f4d6d6",
"B8 c #f6dbda",
"C8 c #8e8280",
"D8 c #5f4741",
"E8 c #e9a288",
"F8 c #f5a88d",
"G8 c #505052",
"H8 c #2a2a1d",
"I8 c #7c7b55",
"J8 c #96936b",
"K8 c #a09d78",
"L8 c #b7af8e",
"M8 c #dfccb7",
"N8 c #cdb9a8",
"O8 c #b5a495",
"P8 c #b9a898",
"Q8 c #c9b9a6",
"R8 c #ead7c7",
"S8 c #d8bcb7",
"T8 c #d2b5af",
"U8 c #e8d1ba",
"V8 c #f4e4ce",
"W8 c #fcf0e7",
"X8 c #fbece7",
"Y8 c #f9e4e1",
"Z8 c #f6dada",
"a8 c #bca4a4",
"b8 c #3b2f2d",
"c8 c #c08676",
"d8 c #f1a68c",
"e8 c #f2a78d",
"f8 c #60605f",
"g8 c #2b2a21",
"h8 c #8a8767",
"i8 c #aea985",
"j8 c #d2c4aa",
"k8 c #dec9b8",
"l8 c #c0ad9d",
"m8 c #b1a193",
"n8 c #bcac9a",
"o8 c #cbbba7",
"p8 c #ecd9c8",
"q8 c #dcc1bb",
"r8 c #ccacad",
"s8 c #e2c9b9",
"t8 c #efddc1",
"u8 c #f8ead8",
"v8 c #fdf1ea",
"w8 c #fbeae5",
"x8 c #9e908e",
"y8 c #241f1f",
"z8 c #140f11",
"09 c #6f6d6a",
"19 c #28271e",
"29 c #87806a",
"39 c #e1cdbb",
"49 c #d4bfae",
"59 c #b9a897",
"69 c #b2a193",
"79 c #bfaf9c",
"89 c #cdbca8",
"99 c #ecd9c9",
":9 c #dfc4bd",
";9 c #cbabac",
"A9 c #dcc1b5",
"B9 c #ebd7bc",
"C9 c #f3e3cb",
"D9 c #eee3d9",
"E9 c #938c87",
"F9 c #1d1b1b",
"G9 c #120f11",
"H9 c #0e0c0c",
"I9 c #574e49",
"J9 c #8f8175",
"K9 c #a9998b",
"L9 c #b4a393",
"M9 c #c1b09f",
"N9 c #cebdaa",
"O9 c #eddac9",
"P9 c #e1c8c0",
"Q9 c #cbacac",
"R9 c #d4b8b2",
"S9 c #ccb7a3",
"T9 c #9c907e",
"U9 c #35322d",
"V9 c #151314",
"W9 c #a6b5d1",
"X9 c #bacae3",
"Y9 c #0b090a",
"Z9 c #231d20",
"a9 c #36312c",
"b9 c #60574f",
"c9 c #978a7b",
"d9 c #bcad9c",
"e9 c #e4d3c2",
"f9 c #c7b1a9",
"g9 c #8c7777",
"h9 c #615352",
"i9 c #38322c",
"j9 c #231e19",
"k9 c #0a0908",
"l9 c #050505",
"m9 c #8593aa",
"n9 c #6a6666",
"o9 c #4b4948",
"p9 c #393736",
"q9 c #1b191a",
"r9 c #150e15",
"s9 c #170f16",
"t9 c #060405",
"u9 c #000000",
"v9 c #a29fa6",
"w9 c #a1a5b4",
"x9 c #aaaab3",
"y9 c #f9b69e",
"z9 c #e39884",
"0: c #f9ac8a",
"1: c #eaa383",
"2: c #d37f5a",
"3: c #df8f6c",
"4: c #ef9e7e",
"5: c #eb9a7a",
"6: c #db8668",
"7: c #c6745b",
"8: c #af5c4c",
"9: c #9a4739",
":: c #9d9fae",
";: c #9da1b2",
"A: c #a4a4af",
"B: c #eca991",
"C: c #c6714b",
"D: c #d48461",
"E: c #c0835f",
"F: c #c3734c",
"G: c #c26d47",
"H: c #c0694b",
"I: c #d07f63",
"J: c #c26f59",
"K: c #ae5b4d",
"L: c #8f3f36",
"M: c #87899e",
"N: c #9ca0af",
"O: c #aea3aa",
"P: c #d08365",
"Q: c #bd704e",
"R: c #d58c6c",
"S: c #d98c6e",
"T: c #cf8064",
"U: c #c1755e",
"V: c #b26755",
"W: c #bd6a54",
"X: c #c77258",
"Y: c #bb654e",
"Z: c #a65447",
"a: c #712f26",
"b: c #919dba",
"c: c #a4a8bf",
"d: c #e5afa4",
"e: c #f6a58f",
"f: c #f5ac92",
"g: c #f6ab91",
"h: c #f09e85",
"i: c #df8b74",
"j: c #cb7f68",
"k: c #ba6b53",
"l: c #b7644a",
"m: c #b4614b",
"n: c #ae5945",
"o: c #8e3b2d",
"p: c #330d08",
"q: c #9ba6c4",
"r: c #a1a7c2",
"s: c #ffb7a0",
"t: c #feac8f",
"u: c #f8ac91",
"v: c #f8aa8f",
"w: c #eb967c",
"x: c #d68369",
"y: c #bb6c50",
"z: c #b3634a",
"0; c #aa563f",
"1; c #973f28",
"2; c #510f02",
"3; c #150502",
"4; c #aab6db",
"5; c #c2bdd2",
"6; c #ffb8a2",
"7; c #f6aa8f",
"8; c #f3a88e",
"9; c #eb997c",
":; c #d7866a",
";; c #c7785c",
"A; c #b96d56",
"B; c #aa5a41",
"C; c #934026",
"D; c #5f1704",
"E; c #270800",
"F; c #150202",
"G; c #b2c4e3",
"H; c #bdcde6",
"I; c #e6a297",
"J; c #c57366",
"K; c #d0614b",
"L; c #d16d52",
"M; c #ffc2aa",
"N; c #ffb098",
"O; c #ff9578",
"P; c #e78364",
"Q; c #ca684d",
"R; c #ac4639",
"S; c #983a37",
"T; c #8e3939",
"U; c #893230",
"V; c #8795ac",
"W; c #9dabc2",
"X; c #fbaa9c",
"Y; c #e47867",
"Z; c #da6e59",
"a; c #fdae92",
"b; c #ffd4bf",
"c; c #ffb89d",
"d; c #ff9e7c",
"e; c #e38362",
"f; c #c26147",
"g; c #a4493f",
"h; c #954040",
"i; c #8b3e3e",
"j; c #a4a6af",
"k; c #b3b3b8",
"l; c #daaca5",
"m; c #f59684",
"n; c #ffc8b2",
"o; c #ffddc7",
"p; c #ffdac7",
"q; c #ffcdb2",
"r; c #ffb598",
"s; c #f79978",
"t; c #d47c5d",
"u; c #b45c47",
"v; c #9e4a41",
"w; c #903f3f",
"x; c #6a6a6a",
"y; c #a6a8b5",
"z; c #acacb3",
"0A c #c3b6b8",
"1A c #ffab95",
"2A c #f9a490",
"3A c #ffc8b0",
"4A c #ffc9af",
"5A c #fbc5aa",
"6A c #ffc8ad",
"7A c #ffb99a",
"8A c #faa583",
"9A c #dd886a",
":A c #c16850",
";A c #a95044",
"AA c #97413a",
"BA c #010101",
"CA c #bababa",
"                                                                                                ",
"                                                                                                ",
"CABA    BABAAA;A:A9A8A7A6A5A4A3A2A1A0Az;y;BABA    BA                                            ",
"x;BA    BABAw;v;u;t;s;r;q;p;o;n;m;m;l;k;j;BABA    BA                                            ",
"x;BABABABABAi;h;g;f;e;d;c;3Ab;a;Z;Y;X;W;V;BABABABABA                                            ",
"x;BABABABABAU;T;S;R;Q;P;O;N;M;L;K;J;I;H;G;BABABABABA                                            ",
"x;BA    BABABABABABABABABABABABABABABABABABABA    BA                                            ",
"x;BA    BABABABABABABABABABABABABABABABABABABA    BA                                            ",
"x;BABABABABAF;E;D;C;B;A;;;:;9;8;7;N;6;5;4;BABABABABA                                            ",
"x;BABABABABA3;2;1;0;z:y:;;x:w:v:u:t:s:r:q:BABABABABA                                            ",
"x;BA    BABAp:o:n:m:l:k:j:i:h:g:f:e:d:c:b:BABA    BA                                            ",
"x;BA    BABAa:Z:Y:X:W:V:U:T:S:R:Q:P:O:N:M:BABA    BA                                            ",
"x;BABABABABAL:K:J:I:I:H:G:F:E:D:C:B:A:;:::BABABABABA                                            ",
"x;BABABABABA9:8:7:6:5:4:3:2:1:0:z9y9x9w9v9BABABABABA                                            ",
"x;BA    BABAAA;A:A9A8A7A6A5A4A3A2A1A0Az;y;BABA    u9                                            ",
"x;BA    BABAw;v;u;t;s;r;q;p;o;n;m;m;l;k;j;BAu9  t9s9r9q9p9o9n9                                  ",
"x;BABABABABAi;h;g;f;e;d;c;3Ab;a;Z;Y;X;W;m9l9k9j9i9h9g9f9e9d9c9b9a9Z9Y9                          ",
"x;BABABABABAU;T;S;R;Q;P;O;N;M;L;K;J;I;X9W9V9U9T9S9R9Q9P9O9N9M9L9K9J9I9H9                        ",
"x;BA    BABABABABABABABABABABABABAu9BAG9F9E9D9C9B9A9;9:999897969594939291909                    ",
"x;BA    BABABABABABABABABABABABABABAz8y8x8w8v8u8t8s8r8q8p8o8n8m8l8k8j8i8h8g8f8                  ",
"x;BABABABABAF;E;D;C;B;A;;;:;9;e8d8c8b8a8Z8Y8X8W8V8U8T8S8R8Q8P8O8N8M8L8K8J8I8H8G8                ",
"x;BABABABABA3;2;1;0;z:y:;;x:w:F8E8D8C8B8A8;8:898887868584838281808z7y7x7w7v7u7t7                ",
"x;BA    BABAp:o:n:m:l:k:j:i:s7r7q7p7o7:8n7m7l7k7j7i7h7g7f7e7d7c7b7a7Z7Y7X7W7V7U7T7              ",
"x;BA    BABAa:Z:Y:X:W:V:U:T:S7R7Q7P7O7N7M7L7K7J7w8I7H7G7F7E7D7C7B7A7w7;7:797877767              ",
"x;BABABABABAL:K:J:I:I:H:G:574737271707z6y6x6Y8w6J7v6u6t6s6r6q6p6o6n6m6l6k6j6i6h6g6f6            ",
"x;BABABABABA9:8:7:6:5:4:3:e6d6c6b6a6Z6Y6X6W6V6U6T6S6R6Q6P6O6N6M6L6K6J6I6H6G6F6E6D6C6            ",
"B6BA    BABAAA;A:A9A8A7A6AA6;6:696867666564636261606z5y5x5w5v5u5t5s5r5q5p5o5n5m5l5k5j5          ",
"                            i5h5g5f5f5e5d5c5b5a5Z5Y5X5W5V5U5T5S5R5Q5P5O5N5M5L5K5J5I5H5          ",
"                              G5F5q8E5D5S8C5B5A5;5:595857565554535251505z4y4x4x4w4v4u4          ",
"                              t4s4r4q4p4o4n4m4l4k4j4i4h4g4f4e4d4c4b4a4Z4Y4X4W4V4U4T4S4          ",
"                              t4R4Q4P4O4N4e7M4L4K4J4I4H4G4F4E4D4C4B4A4;4:4948474645444          ",
"                              34241404z3y3x3O8w3v3u3t3s3r3q3p3o3n3m3l3k3j3i3h3g3f3e3d3          ",
"                              c3b3a3d7Z3Y3X3W3V3U3T3S3R3Q3P3O3N3M3h6L3K3J3I3H3G3F3E3D3          ",
"                              C3B369A3;3:3938373x763534333231303h6z2y2x2w2v2u2t2s2r2            ",
"                                q2p2o2n2m2l2y7k2j2i2h2g2f2e2d2c2w2q4b2a2Z2Y2X2W2V2U2            ",
"                                T2S2R2Q2P2O2N2M2L2K2J2I2H2G2F2E2D2C2B2A2;2:2x2928272            ",
"                                  62524232221202z1y1x1w1v1u1t1s1r1q1p1o1n1m1l1k1g4              ",
"                                  j1i1h1g1f1e1d1c1b1a1Z1Y1X1W1V1U1T1S1R1B2Q1P1O1N1              ",
"                                    M1L1K1J1L2I1H1:2G1F1E1D1C1g3B1c2A1;1:1918171                ",
"                                      61514131211101z0y0x0w0v0:4u0t0s0r0q0p0o0                  ",
"                                        n0m0l0k0j0i0h0g0f0e0d084c0b0a0Z0Y0X0                    ",
"                                          W0W5V0U0T0S0R0Q0P0O0N0M0L0K0J0I0                      ",
"                                              H0G0F0E0D0C0B0A0;0:09080                          ",
"                                                  7060504030201000                              ",
"                                                                                                ",
"                                                                                                ",
"                                                                                                ",
"                                                                                                "};
