/* XPM */
static char *image[] = {
"48 48 562 2",
"   c None",
"00 c #69697f",
"10 c #85859d",
"20 c #9090a7",
"30 c #8f8fa6",
"40 c #82829b",
"50 c #75758f",
"60 c #a0a0b4",
"70 c #7e7e94",
"80 c #b4b4c4",
"90 c #84849c",
":0 c #8e8ea5",
";0 c #9090a6",
"A0 c #8d8da1",
"B0 c #c5c5d0",
"C0 c #84849b",
"D0 c #afafbf",
"E0 c #e2e2e7",
"F0 c #9d9db0",
"G0 c #cdcdd7",
"H0 c #d1d1da",
"I0 c #a2a2b5",
"J0 c #87879f",
"K0 c #d4d4dd",
"L0 c #a2a2b6",
"M0 c #acacbd",
"N0 c #d5d5dc",
"O0 c #d8d8e0",
"P0 c #ababbd",
"Q0 c #bdbdca",
"R0 c #d9d9e1",
"S0 c #dddde4",
"T0 c #dbdbe3",
"U0 c #c8c8d4",
"V0 c #9e9eb2",
"W0 c #adadba",
"X0 c #dadae2",
"Y0 c #ceced9",
"Z0 c #b7b7c6",
"a0 c #a3a3b5",
"b0 c #9191a4",
"c0 c #d5d5dd",
"d0 c #8f8f97",
"e0 c #9292a4",
"f0 c #a5a5b9",
"g0 c #a8a8bb",
"h0 c #acacbe",
"i0 c #aeaec0",
"j0 c #afafc0",
"k0 c #9494aa",
"l0 c #e5e5ea",
"m0 c #c9c9d6",
"n0 c #a8a8bd",
"o0 c #a7a7ba",
"p0 c #b6b6c6",
"q0 c #e9e9ee",
"r0 c #9e9eb3",
"s0 c #dfdfe7",
"t0 c #e6e6eb",
"u0 c #d6d6df",
"v0 c #b1b1c4",
"w0 c #b2b2c3",
"x0 c #c7c7d3",
"y0 c #e4e4ea",
"z0 c #f5f5f8",
"01 c #c2bfcd",
"11 c #b3acbc",
"21 c #b2a3af",
"31 c #b09ca9",
"41 c #b09ba7",
"51 c #b3868b",
"61 c #f32d00",
"71 c #f32c00",
"81 c #f32b00",
"91 c #f32900",
":1 c #f32700",
";1 c #f32600",
"A1 c #f32400",
"B1 c #f32200",
"C1 c #f32100",
"D1 c #f31f00",
"E1 c #f41f00",
"F1 c #f82000",
"G1 c #f51000",
"H1 c #7d7d95",
"I1 c #7f7f98",
"J1 c #707087",
"K1 c #7c7c8a",
"L1 c #cfcfd9",
"M1 c #b4b4c5",
"N1 c #bfbfcd",
"O1 c #ececf2",
"P1 c #c1becb",
"Q1 c #bbafad",
"R1 c #dac154",
"S1 c #f3d017",
"T1 c #ffd201",
"U1 c #ffcc00",
"V1 c #ffc000",
"W1 c #ffb900",
"X1 c #ffb300",
"Y1 c #ff9a00",
"Z1 c #ff8700",
"a1 c #ff8100",
"b1 c #e4e4eb",
"c1 c #8d8da5",
"d1 c #7f7f96",
"e1 c #b5b5c6",
"f1 c #b6b6c7",
"g1 c #cfcfda",
"h1 c #f4f4f8",
"i1 c #c9c7d2",
"j1 c #c5b899",
"k1 c #f5cc16",
"l1 c #ffd500",
"m1 c #ffd600",
"n1 c #ffd400",
"o1 c #ffcf00",
"p1 c #ffca00",
"q1 c #ffc400",
"r1 c #ffbe00",
"s1 c #ffb800",
"t1 c #ffb200",
"u1 c #ffa600",
"v1 c #ff9300",
"w1 c #ff8d00",
"x1 c #9393a8",
"y1 c #ebebf1",
"z1 c #e9e9ef",
"02 c #d3d3dc",
"12 c #b0b0c0",
"22 c #9d9daf",
"32 c #888898",
"42 c #a8a8b8",
"52 c #b6b6c5",
"62 c #dadae3",
"72 c #eaeaf1",
"82 c #c0b9bb",
"92 c #ecbd2f",
":2 c #ffc800",
";2 c #fecb00",
"A2 c #fdcd00",
"B2 c #ffd000",
"C2 c #ffce00",
"D2 c #ffcb00",
"E2 c #ffc600",
"F2 c #ffc100",
"G2 c #ffbc00",
"H2 c #ffb000",
"I2 c #fca800",
"J2 c #ff9e00",
"K2 c #ff9800",
"L2 c #ff8c00",
"M2 c #ff8500",
"N2 c #ff7f00",
"O2 c #9b9bb0",
"P2 c #e8e8ee",
"Q2 c #e5e5eb",
"R2 c #d9d9e0",
"S2 c #bbbbca",
"T2 c #b7b7c8",
"U2 c #dedee6",
"V2 c #e4e4ec",
"W2 c #c6baab",
"X2 c #fbb909",
"Y2 c #cf9b00",
"Z2 c #af8500",
"a2 c #96770d",
"b2 c #a99447",
"c2 c #af9846",
"d2 c #b99929",
"e2 c #dcab01",
"f2 c #ffc200",
"g2 c #ffbd00",
"h2 c #e6a500",
"i2 c #bb8300",
"j2 c #9c6a01",
"k2 c #9e782f",
"l2 c #af8b4e",
"m2 c #b38338",
"n2 c #c3770c",
"o2 c #fe8f00",
"p2 c #ce6f00",
"q2 c #a56725",
"r2 c #a76628",
"s2 c #f1821a",
"t2 c #c76000",
"u2 c #a46021",
"v2 c #af6928",
"w2 c #77778e",
"x2 c #9595aa",
"y2 c #dcdce4",
"z2 c #d7d7e1",
"03 c #bcbccb",
"13 c #d1d1db",
"23 c #cfba99",
"33 c #feb103",
"43 c #cc9100",
"53 c #a4883d",
"63 c #e4dcc5",
"73 c #fdfcfb",
"83 c #f8f4e8",
"93 c #ffcc3a",
":3 c #f4b100",
";3 c #926806",
"A3 c #d3c3a0",
"B3 c #f6f2ea",
"C3 c #fdfbfa",
"D3 c #fdcf97",
"E3 c #f88400",
"F3 c #d7bea5",
"G3 c #f9f0e9",
"H3 c #ff810b",
"I3 c #8b8ba1",
"J3 c #ceced8",
"K3 c #ededf1",
"L3 c #c3c3d1",
"M3 c #f1f1f7",
"N3 c #cbbfb7",
"O3 c #fea903",
"P3 c #ffad00",
"Q3 c #a97500",
"R3 c #efe9dc",
"S3 c #fff5dd",
"T3 c #ffde85",
"U3 c #ffdf84",
"V3 c #f6e2ad",
"W3 c #fefcf8",
"X3 c #ffcd50",
"Y3 c #d99900",
"Z3 c #bda572",
"a3 c #ffda9c",
"b3 c #ffcb7a",
"c3 c #fbd298",
"d3 c #f8ecde",
"e3 c #ffe2c0",
"f3 c #ff8600",
"g3 c #cc7b2a",
"h3 c #fffefe",
"i3 c #f5b376",
"j3 c #c05d00",
"k3 c #8f8fa4",
"l3 c #c0c0cd",
"m3 c #ececf1",
"n3 c #eeeef3",
"o3 c #cfcfdb",
"p3 c #babac9",
"q3 c #ebebf0",
"r3 c #cdc8ce",
"s3 c #f9a214",
"t3 c #ffa900",
"u3 c #b68010",
"v3 c #e8bf5e",
"w3 c #fbb300",
"x3 c #ffb600",
"y3 c #ffba16",
"z3 c #ffba1b",
"04 c #e29b00",
"14 c #d3c2a1",
"24 c #f1e2c8",
"34 c #f19500",
"44 c #ff9900",
"54 c #ff9400",
"64 c #ff8e02",
"74 c #ff9e2f",
"84 c #ff8300",
"94 c #fa7b00",
":4 c #dbbfa6",
";4 c #f8f2ee",
"A4 c #d97619",
"B4 c #b05500",
"C4 c #ede2d8",
"D4 c #bbbbc8",
"E4 c #e7e7ed",
"F4 c #c4c4d3",
"G4 c #ccccd7",
"H4 c #e3e3eb",
"I4 c #e7aa5b",
"J4 c #ffa000",
"K4 c #ffa400",
"L4 c #dc9000",
"M4 c #ede6d9",
"N4 c #f1ebe1",
"O4 c #c3ad7c",
"P4 c #c4993b",
"Q4 c #e99f00",
"R4 c #ffae00",
"S4 c #ffac00",
"T4 c #ffaa03",
"U4 c #c2a46f",
"V4 c #d5c2a7",
"W4 c #be955c",
"X4 c #d5851f",
"Y4 c #fc9315",
"Z4 c #ff9016",
"a4 c #ff8b18",
"b4 c #ff8819",
"c4 c #ef8a2c",
"d4 c #f3ebe4",
"e4 c #efe5dd",
"f4 c #ceb39a",
"g4 c #f7f2ee",
"h4 c #ffcea0",
"i4 c #ff7c00",
"j4 c #c6c6d4",
"k4 c #bbbbc9",
"l4 c #ededf3",
"m4 c #d2c9ca",
"n4 c #ff9202",
"o4 c #ff9700",
"p4 c #ff9b00",
"q4 c #ff9f00",
"r4 c #ffa200",
"s4 c #f1be62",
"t4 c #fcf9f5",
"u4 c #e9e1d2",
"v4 c #f0bf62",
"w4 c #ffb327",
"x4 c #ffb32c",
"y4 c #f9b33d",
"z4 c #f7edde",
"05 c #f8f5f2",
"15 c #dcbb96",
"25 c #ff9b35",
"35 c #ff932c",
"45 c #f88d2a",
"55 c #9a581a",
"65 c #b89474",
"75 c #ffd4ad",
"85 c #ff7d03",
"95 c #e7e7ee",
":5 c #eca351",
";5 c #ff8e00",
"A5 c #ff9200",
"B5 c #ff9600",
"C5 c #ff9a03",
"D5 c #ffa416",
"E5 c #ffac25",
"F5 c #ffb73c",
"G5 c #fed691",
"H5 c #f8e5c6",
"I5 c #fcfaf7",
"J5 c #fdfaf7",
"K5 c #ffb843",
"L5 c #ffb339",
"M5 c #ffb139",
"N5 c #ffaf3a",
"O5 c #ffc371",
"P5 c #fbddb7",
"Q5 c #f6ede2",
"R5 c #fdc48d",
"S5 c #ff9a3c",
"T5 c #d98333",
"U5 c #b69576",
"V5 c #fffaf6",
"W5 c #ffb775",
"X5 c #c88648",
"Y5 c #efe8e1",
"Z5 c #ffdab7",
"a5 c #ff830e",
"b5 c #84848b",
"c5 c #c7bdc9",
"d5 c #d9d9e2",
"e5 c #dad5db",
"f5 c #fd8607",
"g5 c #ff8900",
"h5 c #ff9410",
"i5 c #ffa52f",
"j5 c #ffb146",
"k5 c #f1ab45",
"l5 c #ce933b",
"m5 c #f1ad45",
"n5 c #feb749",
"o5 c #f4b147",
"p5 c #a77d3b",
"q5 c #f8f5f1",
"r5 c #ffcf86",
"s5 c #ffb64c",
"t5 c #ce923e",
"u5 c #e5a045",
"v5 c #faac4b",
"w5 c #fbac4c",
"x5 c #cd8a3e",
"y5 c #cebaa6",
"z5 c #fee6d0",
"06 c #ffa44f",
"16 c #d28741",
"26 c #dbccbe",
"36 c #f3e3d5",
"46 c #ed994b",
"56 c #b9773a",
"66 c #ede5de",
"76 c #ffddbe",
"86 c #ffa652",
"96 c #ff8512",
":6 c #8f8f9e",
";6 c #a9a9b6",
"A6 c #b9b9c6",
"B6 c #c8c8d3",
"C6 c #d4d3de",
"D6 c #ededf2",
"E6 c #dbcac3",
"F6 c #ff8000",
"G6 c #ff9729",
"H6 c #ffb25a",
"I6 c #ffb45c",
"J6 c #ffb65c",
"K6 c #e9a854",
"L6 c #bca78b",
"M6 c #d2c4b1",
"N6 c #b59e7f",
"O6 c #ab916d",
"P6 c #c4b299",
"Q6 c #ffc980",
"R6 c #ffba5f",
"S6 c #a77d48",
"T6 c #e4dbd1",
"U6 c #bea88f",
"V6 c #ac8f70",
"W6 c #b49a7f",
"X6 c #ede6df",
"Y6 c #ffe2c7",
"Z6 c #ffae62",
"a6 c #f3a55d",
"b6 c #d8c6b6",
"c6 c #fefdfd",
"d6 c #ccb9a8",
"e6 c #b99f87",
"f6 c #f4f0ec",
"g6 c #ffe1c5",
"h6 c #ffaf65",
"i6 c #ff8716",
"j6 c #9494a9",
"k6 c #aaaabb",
"l6 c #c1c1cf",
"m6 c #d5d5de",
"n6 c #e6e6ec",
"o6 c #f0f0f4",
"p6 c #f7f7f9",
"q6 c #d7d7e3",
"r6 c #b9b9c8",
"s6 c #f2f2f6",
"t6 c #e8ae7e",
"u6 c #ff942f",
"v6 c #ffb66e",
"w6 c #ffb86e",
"x6 c #ffba6f",
"y6 c #ffbb6f",
"z6 c #f7b76b",
"07 c #e2c9aa",
"17 c #ffe7c8",
"27 c #ffc072",
"37 c #ffbf72",
"47 c #daa66b",
"57 c #fff7ef",
"67 c #ffc38a",
"77 c #ffb875",
"87 c #f9bd85",
"97 c #f9ece1",
":7 c #fffefd",
";7 c #ffffff",
"A7 c #ffe4cc",
"B7 c #ffb978",
"C7 c #ff891a",
"D7 c #68687a",
"E7 c #e2e2ea",
"F7 c #d5d5e1",
"G7 c #bdbdcb",
"H7 c #efeff4",
"I7 c #f19c50",
"J7 c #ffa755",
"K7 c #ffbe81",
"L7 c #ffc082",
"M7 c #ffc282",
"N7 c #ffc382",
"O7 c #ffc788",
"P7 c #ffd4a3",
"Q7 c #ffddb7",
"R7 c #ffe2c1",
"S7 c #ffd9ae",
"T7 c #ffca8c",
"U7 c #ffc684",
"V7 c #ffc685",
"W7 c #ffc585",
"X7 c #ffc485",
"Y7 c #ffcd9b",
"Z7 c #ffd8b3",
"a7 c #ffddbf",
"b7 c #ffdcbd",
"c7 c #ffcb9c",
"d7 c #ffc187",
"e7 c #ffc188",
"f7 c #ffc289",
"g7 c #ffc58f",
"h7 c #ffd3ab",
"i7 c #ffd8b6",
"j7 c #ffd1a6",
"k7 c #ffc38b",
"l7 c #ff8b1e",
"m7 c #f81200",
"n7 c #7c7c8f",
"o7 c #e6e6ed",
"p7 c #fdfdff",
"q7 c #d3d2de",
"r7 c #c3c3d0",
"s7 c #e8e7ef",
"t7 c #f59137",
"u7 c #ffba7a",
"v7 c #ffc894",
"w7 c #ffc995",
"x7 c #ffca95",
"y7 c #ffcb96",
"z7 c #ffcc96",
"08 c #ffcc97",
"18 c #ffcc98",
"28 c #ffcb98",
"38 c #ffca98",
"48 c #ffca99",
"58 c #ffcb9a",
"68 c #ffcb9b",
"78 c #ffcc9c",
"88 c #ffcc9d",
"98 c #ffcd9e",
":8 c #ff8d23",
";8 c #f91200",
"A8 c #7f7f95",
"B8 c #a9a9bb",
"C8 c #c1c1ce",
"D8 c #d2d2dc",
"E8 c #e1e1e8",
"F8 c #eaeaef",
"G8 c #f1f1f5",
"H8 c #f7f7fa",
"I8 c #d1d0dc",
"J8 c #c9c9d5",
"K8 c #e3e1e7",
"L8 c #f98b24",
"M8 c #ff9735",
"N8 c #ff9939",
"O8 c #ff993a",
"P8 c #ff9a3b",
"Q8 c #ff9b3b",
"R8 c #ff9b3c",
"S8 c #ff9b3d",
"T8 c #ff9b3e",
"U8 c #ff9c3f",
"V8 c #ff9c40",
"W8 c #ff820d",
"X8 c #fa1200",
"Y8 c #9292a8",
"Z8 c #a1a1b4",
"a8 c #adadbe",
"b8 c #b9b9c9",
"c8 c #c5c5d2",
"d8 c #d0ced9",
"e8 c #d2cedb",
"f8 c #cbc7d4",
"g8 c #dedae3",
"h8 c #f33525",
"i8 c #f91500",
"j8 c #fb1500",
"k8 c #fc1500",
"                                                                                                ",
"                                                                                                ",
"                                                                                                ",
"                                                                                                ",
"                                                                                                ",
"                                                                                                ",
"                                                                                                ",
"                                                                                                ",
"                                                                                                ",
"                                                                                                ",
"                                                                                                ",
"                                                                                                ",
"                                                                                                ",
"  k8j8i8i8i8i8i8i8i8i8i8i8i8i8i8i8i8i8i8i8i8i8i8i8i8i8i8i8i8i8i8i8i8i8i8h8g8f8e8d8c8b8a8Z8Y8    ",
"X8W8V8V8V8V8U8U8U8U8U8U8U8U8U8T8T8T8T8S8S8S8S8R8R8R8R8Q8P8P8P8P8O8N8N8M8L8K8J8I8H8G8F8E8D8C8B8A8",
";8:89898888878787878686858585858584848383828180808z7z7y7y7x7w7v7v7v7v7u7t7s7r7q7p7p7p7p7p7p7o7n7",
"m7l7k7j7i7i7i7h7g7f7e7e7e7e7d7c7b7a7Z7Y7X7W7V7U7T7S7R7Q7P7O7N7M7L7K7K7J7I7H7G7F7p7p7p7p7p7p7E7D7",
"m7C7B7A7;7;7;7;7:7978777776757;7;7;7;7;747372717:7;7;7;7;707z6y6x6w6v6u6t6s6r6q6p6o6n6m6l6k6j6  ",
"m7i6h6g6;7f6e6d6c6;7b6a6Z6Y6;7X6W6V6U6T6S6R6Q6;7;7P6O6N6M6L6K6J6I6H6G6F6E6D6G7C6B6A6;6:6        ",
"m7968676;766564636;7261606z5;7y5x5w5v5u5t5s5r5;7q5p5o5n5m5l5k5j5i5h5g5f5e5d5c5b5                ",
"m7a5U8Z5;7Y5X5W5V5;7U5T5S5R5;7;7Q5P5O5N5M5L5K5J5;7I5H5G5F5E5D5C5B5A5;5:595r7c5                  ",
"m785i675;7;7;7;7;765554535251505;7;7;7z4y4x4w4v4u4;7;7;7t4s4r4q4p4o4n4m4l4k4j4                  ",
"m7i4i4h4;7g4f4e4;7d4c4b4a4Z4Y4X4W4V4c6;7U4T4S4R4Q4P4O4N4;7M4L4K4J4p4I4H4G4F4E4D4                ",
"m7i4i4h4;7C4B4A4;4;7:49484746454443424;71404z3y3x3x3w3v3;7;7u3t3K4s3r3q3p3o3n3m3l3k3            ",
"m7i4i4h4;7C4j3i4i3;7h3g3f3e3d3c3b3a3h3;7Z3Y3X3W3V3U3T3S3;7R3Q3P3O3N3M3c8L395n3n3K3J3I3          ",
"m7i4i4h4;7C4j3i4H3G3;7F3E3D3C3;7;7;7B3A3;3:39383;7;7;7736353433323o71303z2n3n3n3n3n3y2x2w2      ",
"m7i4i4b4v2u2t2i4i4s2r2q2p2o2n2m2l2k2j2i2h2g2f2e2d2c2b2a2Z2Y2X2W2V2U2T2S2R2Q2m3n3n3n3n3P2O2      ",
"m7i4i4i4i4i4i4i4i4i4N2M2L2A5K2J2K4I2H2x3G2F2E2D2C2B2A2;2:2928272625242  32221202z1n3n3y1x1      ",
"m7i4i4i4i4i4i4i4i4i4F6f3w1v144q4u1S4t1s1r1q1p1o1n1m1l1k1j1i1h1g1f1e1          d1c1p3b1e1        ",
"m7i4i4i4i4i4i4i4i4i4a1Z1w1v1Y1J4u1P3X1W1V1E2U1T1S1R1Q1P1O1b1N1M1L3L1K1            J1I1H1        ",
"G1F1E1D1D1D1D1D1D1D1C1B1A1;1:191817161514131211101y2z0y0x0w0v0u0t0s042                          ",
"                                      r0O1y1q0E8d5G4p0o0n0m0l0t0t0t052                          ",
"                                      k0j0i0h0g0f0f0e0  d0m6Q2t0t0t0c0b0                        ",
"                                      a0Z0b8l6Y0X0Y0      W0D8l0t0t0t0V0                        ",
"                                        U0T0S0S0R0Q0        P013t0t0t0B6w2                      ",
"                                        w0O0S0S0N0M0          L0K0t0t0l0J0                      ",
"                                        I0H0S0S0G0F0            O2T0E0D0C0                      ",
"                                        x1c8S0S0B0A0              ;0:0                          ",
"                                        9080S0S0D470                                            ",
"                                          60S0S0w050                                            ",
"                                          4030201000                                            ",
"                                                                                                ",
"                                                                                                ",
"                                                                                                ",
"                                                                                                ",
"                                                                                                ",
"                                                                                                ",
"                                                                                                "};
