/* XPM */
static char *image[] = {
"48 48 277 2",
"   c None",
"00 c #060606",
"10 c #050507",
"20 c #050505",
"30 c #050506",
"40 c #1e1e1e",
"50 c #343434",
"60 c #323232",
"70 c #2e2e2e",
"80 c #2f2f2f",
"90 c #2c2c2c",
":0 c #2e3134",
";0 c #2d3339",
"A0 c #2d2d2d",
"B0 c #2d2d2e",
"C0 c #2e2e2f",
"D0 c #2d2d2f",
"E0 c #2b2c2d",
"F0 c #2a2a2c",
"G0 c #2a2a2b",
"H0 c #2a2a2a",
"I0 c #292929",
"J0 c #282828",
"K0 c #2b2b2b",
"L0 c #303030",
"M0 c #393939",
"N0 c #363637",
"O0 c #3e3e3e",
"P0 c #3f3f40",
"Q0 c #3c3c3c",
"R0 c #4a4a4b",
"S0 c #3d3d3d",
"T0 c #5a5a5a",
"U0 c #b9b9b9",
"V0 c #3f3f3f",
"W0 c #6b6b6b",
"X0 c #434343",
"Y0 c #424242",
"Z0 c #525252",
"a0 c #c9c9c9",
"b0 c #07264b",
"c0 c #3e3e40",
"d0 c #6d6d6d",
"e0 c #4b4b4b",
"f0 c #545454",
"g0 c #555555",
"h0 c #535353",
"i0 c #666666",
"j0 c #bdbdbd",
"k0 c #5d5e60",
"l0 c #07080c",
"m0 c #696969",
"n0 c #a5a5a5",
"o0 c #5f6062",
"p0 c #909090",
"q0 c #cecece",
"r0 c #5f5f61",
"s0 c #404040",
"t0 c #6c6c6c",
"u0 c #717171",
"v0 c #07080d",
"w0 c #414141",
"x0 c #6e6e6e",
"y0 c #878787",
"z0 c #5e5e60",
"01 c #070a11",
"11 c #434344",
"21 c #767676",
"31 c #cbcbcb",
"41 c #616161",
"51 c #070d48",
"61 c #454652",
"71 c #727273",
"81 c #777777",
"91 c #797979",
":1 c #fafafa",
";1 c #707070",
"A1 c #6f6f6f",
"B1 c #d0d0d1",
"C1 c #626378",
"D1 c #070e1f",
"E1 c #454649",
"F1 c #737373",
"G1 c #7e7e7e",
"H1 c #626372",
"I1 c #b0b0b0",
"J1 c #070a32",
"K1 c #46474f",
"L1 c #7a7a7a",
"M1 c #939393",
"N1 c #d3d3d4",
"O1 c #626277",
"P1 c #757575",
"Q1 c #959595",
"R1 c #cfcfcf",
"S1 c #626262",
"T1 c #07070b",
"U1 c #46464b",
"V1 c #787878",
"W1 c #626263",
"X1 c #474747",
"Y1 c #7b7b7b",
"Z1 c #818181",
"a1 c #838383",
"b1 c #8a8a8a",
"c1 c #676767",
"d1 c #454545",
"e1 c #464646",
"f1 c #595959",
"g1 c #070707",
"h1 c #484848",
"i1 c #7d7d7d",
"j1 c #848484",
"k1 c #858585",
"l1 c #686868",
"m1 c #5c5c5c",
"n1 c #6a6a6a",
"o1 c #494949",
"p1 c #888888",
"q1 c #4a4a4a",
"r1 c #4d4d4d",
"s1 c #828282",
"t1 c #8b8b8b",
"u1 c #4c4c4c",
"v1 c #727272",
"w1 c #808080",
"x1 c #868686",
"y1 c #8f8f8f",
"z1 c #565656",
"02 c #08080a",
"12 c #898989",
"22 c #a6a6a6",
"32 c #7f7f7f",
"42 c #575757",
"52 c #b8b8b8",
"62 c #636364",
"72 c #4e4e4e",
"82 c #8c8c8c",
"92 c #969696",
":2 c #999999",
";2 c #aaaaaa",
"A2 c #747474",
"B2 c #444444",
"C2 c #979797",
"D2 c #c8c8c8",
"E2 c #a9a9a9",
"F2 c #a8a8a8",
"G2 c #08090c",
"H2 c #4e4e4f",
"I2 c #8e8e8e",
"J2 c #9a9a9a",
"K2 c #636568",
"L2 c #919191",
"M2 c #a0a0a0",
"N2 c #ababab",
"O2 c #9c9c9c",
"P2 c #9f9f9f",
"Q2 c #081426",
"R2 c #4f5051",
"S2 c #929292",
"T2 c #9e9e9e",
"U2 c #a2a2a2",
"V2 c #afafaf",
"W2 c #646568",
"X2 c #080808",
"Y2 c #4f4f4f",
"Z2 c #949494",
"a2 c #a3a3a3",
"b2 c #f6f6f6",
"c2 c #646464",
"d2 c #505050",
"e2 c #989898",
"f2 c #a7a7a7",
"g2 c #acacac",
"h2 c #646465",
"i2 c #9d9d9d",
"j2 c #f0f0f0",
"k2 c #656565",
"l2 c #515151",
"m2 c #a1a1a1",
"n2 c #b1b1b1",
"o2 c #efefef",
"p2 c #f9f9f9",
"q2 c #656566",
"r2 c #505152",
"s2 c #a4a4a4",
"t2 c #b4b4b4",
"u2 c #b7b7b7",
"v2 c #c0c0c0",
"w2 c #e5e5e5",
"x2 c #e0e0e0",
"y2 c #dddddd",
"z2 c #dfdfdf",
"03 c #f4f4f4",
"13 c #f7f7f7",
"23 c #f8f8f8",
"33 c #636363",
"43 c #4a4c4f",
"53 c #9f9fa0",
"63 c #bbbbbb",
"73 c #dbdbdb",
"83 c #e1e1e1",
"93 c #e2e2e2",
":3 c #e3e3e3",
";3 c #e7e7e7",
"A3 c #e9e9e9",
"B3 c #f5f5f5",
"C3 c #dcdcdc",
"D3 c #616369",
"E3 c #383d4c",
"F3 c #81828f",
"G3 c #afafb3",
"H3 c #c2c2c2",
"I3 c #c5c5c5",
"J3 c #c7c7c7",
"K3 c #cccccc",
"L3 c #dedede",
"M3 c #e4e4e4",
"N3 c #e6e6e6",
"O3 c #e8e8e8",
"P3 c #eaeaea",
"Q3 c #ebebeb",
"R3 c #ececec",
"S3 c #ededed",
"T3 c #eeeeee",
"U3 c #f1f1f1",
"V3 c #f2f2f2",
"W3 c #f3f3f3",
"X3 c #ebebec",
"Y3 c #bdbec2",
"Z3 c #51526f",
"a3 c #585858",
"b3 c #8d8d8d",
"c3 c #adadad",
"d3 c #b5b5b5",
"e3 c #b6b6b6",
"f3 c #bababa",
"g3 c #bebebe",
"h3 c #c1c1c1",
"i3 c #c3c3c3",
"j3 c #c4c4c4",
"k3 c #cdcdcd",
"l3 c #d0d0d0",
"m3 c #d1d1d1",
"n3 c #d2d2d2",
"o3 c #d3d3d3",
"p3 c #d4d4d4",
"q3 c #d5d5d5",
"r3 c #d6d6d6",
"s3 c #d7d7d7",
"t3 c #d8d8d8",
"u3 c #dadada",
"v3 c #d9d9d9",
"w3 c #c6c6c6",
"x3 c #7c7c7c",
"y3 c #3b4150",
"z3 c #525465",
"04 c #5a5a6e",
"14 c #5b5c6d",
"24 c #5b5d64",
"34 c #5c5d63",
"44 c #5c5d68",
"54 c #5d5d61",
"64 c #5d5d5d",
"74 c #5d5d5e",
"84 c #5e5e5e",
"94 c #5f5f5f",
":4 c #606060",
";4 c #606061",
"A4 c #606162",
"B4 c #60616c",
"C4 c #606075",
"D4 c #616176",
"E4 c #616370",
"F4 c #62646f",
"G4 c #5a5b6f",
"H4 c #434569",
"                                                                                                ",
"                                                                                                ",
"                                                                                                ",
"                                                                                                ",
"            H4G4F4E4D4C4C4C4B4A4A4;4:4:4:4:4:4:4:4:4:494847464544434241404z3y3                  ",
"            x3w3v3u3v3t3s3s3s3s3r3r3q3p3p3o3o3n3m3m3l3k3w3j3i3i3h3g3f3e3d3c3b3a3                ",
"          Z3Y3X3W3V3V3U3T3T3S3S3R3R3R3Q3Q3P3P3O3N3N3M3L3u3v3t3s3p3m3K3J3I3H3G3F3E3              ",
"          D3C3B3B3B3B3V3S3P3P3A3A3O3O3A3A3P3P3A3;3N3N3M3:3:39383L373v3m3I363d35343              ",
"          338323231303P3z2u3u373C3y2z2x283:3M3w2w2N3N3;3O3A3P3P3P3P3P3C3v2u2t2s2r2              ",
"          q293p2p223o2z2s3r3s3v3u3C3L3z2x293:3w2N3N3O3A3P3Q3R3S3T3T3S3L3g3d3n2m2l2              ",
"          k29323p223T3u3r3s3t3u3C3L3z2x293:3M3w2N3;3A3P3Q3R3S3T3o2j2T3L363n2c3i2l2              ",
"          h283232313T3u3s3t3u3C3y2z2x283:3M3w2N3;3A3P3Q3R3S3T3o2j2j2o2x2u2g2f2e2d2              ",
"          c2x2b213b2T3C3t3v373y2L3x283:3M3w2N3;3O3P3Q3Q3S3T3T3j2j2U3j2x2t2f2a2Z2Y2X2            ",
"          W2y203B303o2y2v373y2L3x28393M3w2w2;3O3A3Q3Q3R3S3S3o2j2U3V3U3x2V2U2T2S2R2Q2            ",
"          c2C3V3V3W3T3y2u3C3L3z28393:3M3w2;3O3A3P3Q3Q3Q3R3S3o2U3U3V3U3x2g2P2O2S2Y2X2            ",
"          3373j2j2U3o2z2C3L3z28393:3M3w2N3;3O3P3Q3Q3Q3Q3R3o2U3U3W3W3V3x2N2M2i2L2Y2X2            ",
"          K2v3T3T3o2o2x2L3z2x293:3M3w2N3;3O3A3P3Q3R3Q3R3T3j2U3V3W303V3x2g2i2J2I2H2G2            ",
"          33t3S3R3T3o283z2x293:3M3w273f2F2z2Q3Q3f3E2D2S3o2C2B2A20303W383;2:2928272X2            ",
"          62v3R3R3T3j2:3x283:3M3w2N352B2B283R3Q342B2f2R3T332B29203B303x22292Z2127202            ",
"          62t3R3Q3S3j2M38393M3w2N3;3i2B2z1Q3R383B2B2j3Q3S3c2B2u2B3b203z2a2L2y1x17202            ",
"          33t3S3R3T3U3w293:3w2N3;3O3w1B2v1R3Q3i3B2B293R3T3u1B2t3B3b2B3z2P2b3t1s1r1X2            ",
"          62t3S3R3S3U3w2:3M3w2N3O3A3c2B2y1R3Q3s2B2a3j2j283B2q1V3b213B3z2O212p132u1X2            ",
"          33t3R3R3S3U3N3w2w2N3;3O3O3o1B2I2Q3q3n1B2m1L3R3i2B2l1b21313B3L3:2k1j1i1h1g1            ",
"          33s3R3Q3S3U3;3N3N3;3O3P373r1B2B2B2r1f1e1d172c1a3B2b1b21313B3C392a1Z1Y1X1g1            ",
"          W1r3Q3Q3R3j2O3N3;3A3P3Q3R3S3N3w2P3j2j2U303B3B333B2c3131323B37392Z132V1U1T1            ",
"          S1q3A3A3R3U3A3;3O3P3Q3Q3S3T3T3j2j2j2U3W3B3b2U3e1B2R1232323b2C3Q132x3P1e1g1            ",
"          O1N1O3A3Q3j2A3O3P3Q3Q3S3T3T3j2j2U3j2U303B3B3m3B2B2o22323p2b273M1i1L1P1K1J1            ",
"          W1n3O3O3P3j2P3A3P3Q3R3S3T3o2j2U3U3U3W3B3B3B3I1B2m1p223p2p213y2L2x3L1A2d1g1            ",
"          H1m3w2N3O3o2Q3P3Q3R3T3T3o2j2j2U3V3W3B3b2b2B3I2B2G1p2V3W3p213C3y1Y1V1F1E1D1            ",
"          C1B1w2w2;3o2Q3Q3R3S3T3o2o2U3U3V3W303B3B3B3B3A1B2d284;1U3:113v3b39181716151            ",
"          41318383M3S3R3R3S3T3T3j2U3U3V3W30303B3B3B3B3y2u3j2p2:1:1:113s3b121P1;11101            ",
"          z0w3y2y283T3T3S3T3T3o2j2j2U3V3W3030303B3b2b2132323p2:1:1:1b2q3y0F1F1x0w0v0            ",
"          94J373u3x2T3T3R3R3Q3R3R3R3S3T3o2j2j2j2U3U3V3W3V3W3B3b2b2b2Q3v2G1A1u0t0s0g1            ",
"          r0I3r3q3z2A3w2L3v3r3n3R1l3m3n3o3o3n3n3n3m3l3m3R1m3o3o3m3q052p0F1t0x0n1s0g1            ",
"          o0H3n3l3s3y2R1u2n0C2b1x1j1s1s1s1a1s132Y1L181A2P1A2v1v1u0v1t0n1;1m0l1c1s0l0            ",
"          k0j0k3K3q0H3s2s1i0z1l2l2l2d2d2h0g0z1z1z1f0l2Y2r1e0e0u172d2h0z1S1d0l1S1c0b0            ",
"          m152D2a0d3t1m0Z0d1s0w0Y0w0Y0X0e1h1o1e0u1u1q1h1e1X0B2d1e1o1r172f0k2W0:4V0g1            ",
"          g0m2U0N23264X1s0V0V0s0s0s0s0Y0X0X0e1h1o1h1e1e1X0Y0X0B2B2e1h1q1r1g0c2T0S0g1            ",
"          R0Z1p0P1T0X1S0Q0P0s0V0O0V0s0s0w0w0Y0d1e1B2X0X0s0Y0X0Y0s0B2B2e1h1e0R2H2N0              ",
"            72d1M0L0K0J0J0I0I0H0H0K0G0F0E0D0D0D0C0B0A0B0;0:0C0A090808070L0L0605040              ",
"                              302030    102020202020202000202020202020202030                    ",
"                                                                                                ",
"                                                                                                ",
"                                                                                                ",
"                                                                                                ",
"                                                                                                ",
"                                                                                                ",
"                                                                                                "};
