/* XPM */
static char *image[] = {
"24 24 205 2",
"   c None",
"00 c #383744",
"10 c #333030",
"20 c #3a3a3a",
"30 c #282828",
"40 c #3e3e3e",
"50 c #b6b6b5",
"60 c #c9c9c8",
"70 c #c9c9c9",
"80 c #cccccb",
"90 c #070707",
":0 c #d6d6d4",
";0 c #dfdfdd",
"A0 c #d2d2d0",
"B0 c #dddddb",
"C0 c #e1e1df",
"D0 c #e7e7e6",
"E0 c #090909",
"F0 c #2f2f2f",
"G0 c #949392",
"H0 c #8f8f8e",
"I0 c #949493",
"J0 c #363636",
"K0 c #212121",
"L0 c #343434",
"M0 c #787877",
"N0 c #3c3c3b",
"O0 c #bdbdbc",
"P0 c #eaeae9",
"Q0 c #4d4d4c",
"R0 c #363635",
"S0 c #bdbdbb",
"T0 c #dededc",
"U0 c #d9d9d7",
"V0 c #adadac",
"W0 c #393939",
"X0 c #353534",
"Y0 c #959593",
"Z0 c #898885",
"a0 c #898785",
"b0 c #807e7c",
"c0 c #949290",
"d0 c #ece7e6",
"e0 c #0f0f0f",
"f0 c #babab9",
"g0 c #444443",
"h0 c #a3a3a2",
"i0 c #e0e0df",
"j0 c #d4d4d3",
"k0 c #b8b8b8",
"l0 c #d6d6d6",
"m0 c #c3c3c2",
"n0 c #848483",
"o0 c #30302f",
"p0 c #b0afad",
"q0 c #b9b8b5",
"r0 c #c0bfbc",
"s0 c #cbcac9",
"t0 c #ede9e8",
"u0 c #080808",
"v0 c #e0e0de",
"w0 c #363333",
"x0 c #a49594",
"y0 c #eeeceb",
"z0 c #fafaf9",
"01 c #f7f7f4",
"11 c #f7f6f5",
"21 c #f9f9f7",
"31 c #e2e2e1",
"41 c #808080",
"51 c #3f3d3d",
"61 c #867a77",
"71 c #9e9d9c",
"81 c #cfcdcd",
"91 c #f0efee",
":1 c #9d9d9c",
";1 c #503c3d",
"A1 c #f1dddd",
"B1 c #cec8c8",
"C1 c #352626",
"D1 c #c69c9c",
"E1 c #d6d4d2",
"F1 c #c7c6c6",
"G1 c #f2f1f0",
"H1 c #444444",
"I1 c #d5bdbf",
"J1 c #3c3838",
"K1 c #53524c",
"L1 c #a09691",
"M1 c #8d4749",
"N1 c #595051",
"O1 c #f2e0e0",
"P1 c #a3a3a3",
"Q1 c #a7a7a7",
"R1 c #cacaca",
"S1 c #a47274",
"T1 c #2f2e2e",
"U1 c #c2c2c2",
"V1 c #2a2a2a",
"W1 c #f2f2f1",
"X1 c #8d8c8c",
"Y1 c #d1d1d1",
"Z1 c #797979",
"a1 c #6e6e6e",
"b1 c #d0d0d0",
"c1 c #888888",
"d1 c #6b6b6b",
"e1 c #878787",
"f1 c #0a0909",
"g1 c #a99b9b",
"h1 c #303030",
"i1 c #bcbbbb",
"j1 c #c3c3c1",
"k1 c #3b3b3b",
"l1 c #d3d3d2",
"m1 c #dddddd",
"n1 c #dedede",
"o1 c #3c3939",
"p1 c #a5a3a3",
"q1 c #4c4c4c",
"r1 c #c5c4c3",
"s1 c #f4f4f2",
"t1 c #f8f8f7",
"u1 c #a5a5a5",
"v1 c #4a4a49",
"w1 c #e7e7e7",
"x1 c #a6a6a6",
"y1 c #bebebe",
"z1 c #e5e5e5",
"02 c #aeaeae",
"12 c #adadad",
"22 c #8f8f8f",
"32 c #414141",
"42 c #f5f5f4",
"52 c #f9f9f8",
"62 c #eaeaea",
"72 c #404040",
"82 c #a0a09f",
"92 c #f2eaea",
":2 c #988e8e",
";2 c #494948",
"A2 c #f7f7f6",
"B2 c #fafafa",
"C2 c #ebebeb",
"D2 c #c4c4c4",
"E2 c #383838",
"F2 c #969696",
"G2 c #c8c8c8",
"H2 c #a8a8a8",
"I2 c #f6f6f6",
"J2 c #a2a2a2",
"K2 c #8d8d8d",
"L2 c #c1afb0",
"M2 c #975d5e",
"N2 c #484646",
"O2 c #dcdcdc",
"P2 c #f8f8f8",
"Q2 c #e8e8e8",
"R2 c #f5f5f5",
"S2 c #c6c6c6",
"T2 c #434343",
"U2 c #ababab",
"V2 c #b4b4b4",
"W2 c #b3b3b3",
"X2 c #afb0b0",
"Y2 c #584545",
"Z2 c #6e5152",
"a2 c #d8d4d4",
"b2 c #838383",
"c2 c #989898",
"d2 c #b2b2b2",
"e2 c #d4d4d4",
"f2 c #353535",
"g2 c #828282",
"h2 c #525252",
"i2 c #515151",
"j2 c #959595",
"k2 c #eddbdc",
"l2 c #fcf4f4",
"m2 c #ffffff",
"n2 c #606060",
"o2 c #646464",
"p2 c #6d6d6d",
"q2 c #787878",
"r2 c #a0a0a0",
"s2 c #a4a4a4",
"t2 c #dfdfdf",
"u2 c #f4f4f4",
"v2 c #909090",
"w2 c #f7f7f7",
"x2 c #ececec",
"y2 c #9b9b9b",
"z2 c #f9f9f9",
"03 c #fcfbfb",
"13 c #fdfcfc",
"23 c #939393",
"33 c #fbfbfb",
"43 c #fdfdfd",
"53 c #fefefe",
"63 c #fcfcfc",
"73 c #010101",
"83 c #0b0b0b",
"93 c #040404",
":3 c #000000",
";3 c #2d2d2d",
";3:3:3:3:3:3:3:39383838373:3:3:3                ",
":3635353434343434343434343533323:3              ",
":353535343434313030343434343z2y2x2:3            ",
":353534343434313636343436363w2v2u2t2:3          ",
":3535343s2:3:3:3:3:3:3:3:3:3r2q2p2o2n2:3        ",
":3535343:3m2m2m2l2k2j2i2h2g2f2e2d2c2b2:3        ",
":363z2z2:3m2v2a2Z2Y2X2W2V2U2T2T2S2R2Q2:3        ",
":333P2P2:3m2O2N2M2L2K2J2I2H2G2F2E2D2C2:3        ",
":3B2A2A2:363;2:292636363633333u2827262:3        ",
":3524242:3G23222431202z1y1P2y1x1w1v1u1:3        ",
":3t1s1r1:3q1p1o1R2n1n1n1m1n1n1t2z1l1k1:3        ",
":3I2j1:3i1h1g1f1B2e1d1c1b1a1Z1Y1X1W1V1:3        ",
":3R2:3U133T1S1f1R1Q1u1s2u1u1x1P1u1O1f2:3        ",
":3u2:3B2w2N1M1L1K1:3:3:3:3:3:3:3J1I1H1:3        ",
":3G1:3F1E1D1C1B1m2m2m2m2m2m2m2m2A1;1:1:3        ",
":391:381716151413152211101z0z0y0x0w0v0:3        ",
"u0t0:3s0r0q0p0o0n0m0l0k0j0m0i0h0:3g0f0:3        ",
"e0d0:3c0b0a0Z0Y0X0W0V0U0T0S0T2R0Q0:3:3:3        ",
"u0P0O0:3:3:3:3:3N0M0L0K0K0J0I0H0G0:3F0E0:3      ",
":3D0C0C0C0v0v0v0v0B0A0A0A0A0A0;0:0:332k190:3    ",
":38070606060606060G2G2G2G2G2G2G2G250:34030:3:3  ",
":3:3:3:3:3:3:3:3:3:3:3:3:3:3:3:3:3:3:3:320J090:3",
"                                        :33210:3",
"                                          :3:300"};
