/* XPM */
static char *image[] = {
"24 24 92 2",
"   c None",
"00 c #6d6d6d",
"10 c #868686",
"20 c #9b9b9b",
"30 c #999999",
"40 c #969696",
"50 c #949494",
"60 c #939393",
"70 c #929292",
"80 c #a1a1a1",
"90 c #393939",
":0 c #666666",
";0 c #656565",
"A0 c #747474",
"B0 c #858585",
"C0 c #848484",
"D0 c #838383",
"E0 c #828282",
"F0 c #818181",
"G0 c #808080",
"H0 c #7f7f7f",
"I0 c #7d7d7d",
"J0 c #919191",
"K0 c #6c0012",
"L0 c #888888",
"M0 c #a2a2a2",
"N0 c #f2f2f2",
"O0 c #efefef",
"P0 c #ededed",
"Q0 c #f7f7f7",
"R0 c #f6f6f6",
"S0 c #f8f8f8",
"T0 c #010000",
"U0 c #a8a8a8",
"V0 c #cccccc",
"W0 c #e9e9e9",
"X0 c #261240",
"Y0 c #8d8d8d",
"Z0 c #f1f1f1",
"a0 c #f4f4f4",
"b0 c #eeeeee",
"c0 c #e7e7e7",
"d0 c #b3b3b3",
"e0 c #ececec",
"f0 c #0f0f0f",
"g0 c #5e5e5e",
"h0 c #101010",
"i0 c #161616",
"j0 c #1c1c1c",
"k0 c #5d5d5d",
"l0 c #eaeaea",
"m0 c #787878",
"n0 c #dadada",
"o0 c #e5e5e5",
"p0 c #9f9f9f",
"q0 c #646464",
"r0 c #141414",
"s0 c #a5a5a5",
"t0 c #e4e4e4",
"u0 c #9e9e9e",
"v0 c #d8d8d8",
"w0 c #d2d2d2",
"x0 c #040404",
"y0 c #797979",
"z0 c #d6d6d6",
"01 c #cacaca",
"11 c #131313",
"21 c #252525",
"31 c #4c4c4c",
"41 c #0c0c0c",
"51 c #181818",
"61 c #343434",
"71 c #e3e3e3",
"81 c #e2e2e2",
"91 c #e1e1e1",
":1 c #e0e0e0",
";1 c #dfdfdf",
"A1 c #dedede",
"B1 c #dcdcdc",
"C1 c #dddddd",
"D1 c #f9f9f9",
"E1 c #676767",
"F1 c #989898",
"G1 c #979797",
"H1 c #d0d0d0",
"I1 c #959595",
"J1 c #c3c3c3",
"K1 c #ebebeb",
"L1 c #cbcbcb",
"M1 c #dbdbdb",
"N1 c #e6e6e6",
"O1 c #000000",
"                                                ",
"    O1O1O1O1O1O1O1O1O1O1O1O1O1O1O1O1O1O1        ",
"    O1N1M1M1M1M1M1M1M1M1M1M1M1M1M1M1L1O1        ",
"    O1K1J1J1J1J1J1J1J1J1J1J1J1J1J1J1I1O1        ",
"    O1K1J1J1J1J1J1J1J1J1J1J1J1J1J1J1I1O1        ",
"    O1H1G1G1G1G1G1G1G1G1G1G1G1G1F1F1E1O1        ",
"    O1D1C1M1M1B1B1C1A1;1;1:1:1919181J1O1        ",
"    O1D1A1M1B1B1C1A1A1;1:1:191918171J1O1        ",
"    O1D1A1B1C1C1A1A1;1:1:19181817171J1O1        ",
"    O1D1;1B161514131C1912111O10171N1z0O1        ",
"    O1D1:1A1z0;1y0x0w091v0u0O101t0t071O1        ",
"    O1D1:1A1s0r0O1q0918181p0O101t0o0N1O1        ",
"    O1D191n0v0:1m0O1H18171p0O101o0l0N1k0O1      ",
"    O1D19101j0i0h0g08181h041O1f0e0e071d0O1      ",
"    O1D191:1:1918181817171c0c0b0b0a0Z071Y0X0    ",
"    O1D181:1918181N1N1W0l0l0e0l0Z0a0V0U0T0      ",
"    O1D1S0R0Q0a0a0Z0Z0e0P0O0N0N0z0M0L0q0K0      ",
"    O1J0I0H0G0F0F0E0D0C0C0B0A0;0;0:090O1        ",
"    O180J070706050I14040G1F13030201000O1        ",
"    O1O1O1O1O1O1O1O1O1O1O1O1O1O1O1O1O1O1        ",
"                                                ",
"                                                ",
"                                                ",
"                                                "};
