/* XPM */
static char *image[] = {
"24 24 236 2",
"   c None",
"00 c #415c65",
"10 c #2e4248",
"20 c #415d65",
"30 c #1c282b",
"40 c #493a15",
"50 c #68511a",
"60 c #9a7e4a",
"70 c #141006",
"80 c #68531e",
"90 c #92752a",
":0 c #caa867",
";0 c #967d42",
"A0 c #141613",
"B0 c #997727",
"C0 c #c9a866",
"D0 c #b7974d",
"E0 c #93793c",
"F0 c #181814",
"G0 c #29210c",
"H0 c #a78631",
"I0 c #a3822f",
"J0 c #9c7b2d",
"K0 c #917024",
"L0 c #c7a563",
"M0 c #a78635",
"N0 c #ae8e40",
"O0 c #584821",
"P0 c #271f0b",
"Q0 c #957428",
"R0 c #b3924d",
"S0 c #c3a263",
"T0 c #b99760",
"U0 c #967445",
"V0 c #99794a",
"W0 c #947126",
"X0 c #ae8b49",
"Y0 c #4f3e18",
"Z0 c #0a0a0a",
"a0 c #414141",
"b0 c #595959",
"c0 c #5a5a5a",
"d0 c #606060",
"e0 c #161718",
"f0 c #6b5d41",
"g0 c #bba06f",
"h0 c #be9c6c",
"i0 c #a38766",
"j0 c #95816e",
"k0 c #a59d94",
"l0 c #a9a29c",
"m0 c #90703d",
"n0 c #74613d",
"o0 c #404040",
"p0 c #b6b6b6",
"q0 c #c2c2c2",
"r0 c #c3c3c3",
"s0 c #cccccc",
"t0 c #d8d8d8",
"u0 c #515151",
"v0 c #c3a877",
"w0 c #3c321f",
"x0 c #746d67",
"y0 c #856532",
"z0 c #c8a75a",
"01 c #5f533c",
"11 c #434343",
"21 c #b0b0b0",
"31 c #b1b1b1",
"41 c #ededed",
"51 c #363636",
"61 c #ffdea0",
"71 c #1f1d19",
"81 c #2d2d2d",
"91 c #403a33",
":1 c #a08045",
";1 c #9e854e",
"A1 c #838383",
"B1 c #8a8a8a",
"C1 c #8d8d8d",
"D1 c #979797",
"E1 c #6a6a6a",
"F1 c #bfa678",
"G1 c #e7e7e7",
"H1 c #cfcfcf",
"I1 c #bcbcbc",
"J1 c #b3b3b3",
"K1 c #bfbfbf",
"L1 c #212121",
"M1 c #bea36e",
"N1 c #161616",
"O1 c #727272",
"P1 c #d0d0d0",
"Q1 c #cacaca",
"R1 c #d3d3d3",
"S1 c #c6c6c6",
"T1 c #b7b7b7",
"U1 c #3f3f3f",
"V1 c #2f2f2f",
"W1 c #6f6f6f",
"X1 c #afafaf",
"Y1 c #e5e5e5",
"Z1 c #484848",
"a1 c #2b2b2b",
"b1 c #ebcb8b",
"c1 c #1d1b17",
"d1 c #d5d5d5",
"e1 c #dddddd",
"f1 c #e4e7ea",
"g1 c #d0e1ee",
"h1 c #aebbc7",
"i1 c #626262",
"j1 c #575b5f",
"k1 c #7f6f50",
"l1 c #38301f",
"m1 c #2f291e",
"n1 c #0f0f0f",
"o1 c #0f0d0a",
"p1 c #000000",
"q1 c #2b2922",
"r1 c #677179",
"s1 c #cae1f3",
"t1 c #9ac8ea",
"u1 c #8ac1e8",
"v1 c #79afd7",
"w1 c #7b94ae",
"x1 c #494949",
"y1 c #717171",
"z1 c #1f1b14",
"02 c #2e2a22",
"12 c #4a4a4a",
"22 c #788189",
"32 c #a5b5c4",
"42 c #bcd7ee",
"52 c #add0eb",
"62 c #9dc8ea",
"72 c #87bee7",
"82 c #8ec5eb",
"92 c #7cb2d9",
":2 c #c7c7c7",
";2 c #7d7d7d",
"A2 c #c0c0c0",
"B2 c #f0f0f0",
"C2 c #7c7c7c",
"D2 c #aaaaaa",
"E2 c #c5dbef",
"F2 c #bcd6ee",
"G2 c #b0d1ec",
"H2 c #a3cbea",
"I2 c #94c5e9",
"J2 c #8bc2e9",
"K2 c #92c9ed",
"L2 c #7fb4da",
"M2 c #7a94ad",
"N2 c #b5b5b5",
"O2 c #f1f1f1",
"P2 c #ececec",
"Q2 c #767676",
"R2 c #a9a9a9",
"S2 c #b0cfeb",
"T2 c #aacdea",
"U2 c #a2c9e9",
"V2 c #98c6e8",
"W2 c #8dc2e8",
"X2 c #8fc6eb",
"Y2 c #97cdef",
"Z2 c #83b7dc",
"a2 c #c9c9c9",
"b2 c #333333",
"c2 c #9dc4e6",
"d2 c #99c4e7",
"e2 c #93c2e7",
"f2 c #8dc1e7",
"g2 c #8cc3e9",
"h2 c #93caed",
"i2 c #9bd0f1",
"j2 c #86badd",
"k2 c #7a93ad",
"l2 c #353535",
"m2 c #dbdbdb",
"n2 c #757575",
"o2 c #a8a8a8",
"p2 c #8bbbe2",
"q2 c #89bce4",
"r2 c #86bce5",
"s2 c #88c0e8",
"t2 c #90c7ec",
"u2 c #8bc0e4",
"v2 c #76aad1",
"w2 c #5689b6",
"x2 c #7993ac",
"y2 c #cdcdcd",
"z2 c #373737",
"03 c #373839",
"13 c #666666",
"23 c #a7a7a7",
"33 c #7bb2df",
"43 c #75acd9",
"53 c #659bc9",
"63 c #5488b7",
"73 c #4e7ba6",
"83 c #8497aa",
"93 c #a4aab0",
":3 c #bdbdbd",
";3 c #d7d7d7",
"A3 c #393939",
"B3 c #0c0d0e",
"C3 c #a6a6a6",
"D3 c #ebebeb",
"E3 c #4b78a4",
"F3 c #6282a2",
"G3 c #8497ab",
"H3 c #a4aab1",
"I3 c #bbbbbb",
"J3 c #cbcbcb",
"K3 c #d6d6d6",
"L3 c #a4a4a4",
"M3 c #696969",
"N3 c #252729",
"O3 c #9d9d9d",
"P3 c #b4b4b4",
"Q3 c #bababa",
"R3 c #c8c8c8",
"S3 c #d1d1d1",
"T3 c #cecece",
"U3 c #9b9b9b",
"V3 c #616161",
"W3 c #2a2a2a",
"X3 c #565656",
"Y3 c #a1a1a1",
"Z3 c #989898",
"a3 c #5e5e5e",
"b3 c #282828",
"c3 c #191a1b",
"d3 c #323436",
"e3 c #4b4e52",
"                                                ",
"                                                ",
"                          e3d3                  ",
"                  e3c3b3a3Z3Y3X3                ",
"          e3c3W3V3U3T3S3R3Q3P3O3                ",
"      N3M3L3K3K3J3I3H3G3F3E3D3C3B3              ",
"      A3;3:39383F37363534333D3231303            ",
"      z2y2x2w2v2u2t2s2r2q2p2D3o2n2m203          ",
"      l2J3k2j2i2h2g2f2e2d2c2D3o2n2D3m203        ",
"      b2a2k2Z2Y2X2W2V2U2T2S2D3R2Q2P2O2N2        ",
"      b2R3M2L2K2J2I2H2G2F2E2D3D2C2B2A2;2        ",
"      b2:2M292827262524232221202z1y112x1        ",
"      b2:2w1v1u1t1s1r1q1p1o1n1m1l1p1k1m1j1      ",
"    d3i1:2h1g1f1e1d1c1b1a1Z1D2Y1X1W1V1z1z1      ",
"    U1T1S1R1Q1P1Q1O1N1M1b2L1K1J1I1H1G1U1F1m1    ",
"    E1T3D1O3C1B1A1z1;1:19181I3J1J1J1I17161F1d3  ",
"    5141I13121P3N21101z0y0x0J1J1J1J123w0v0o1d3  ",
"    e3u0t0s0r0q0q0p0o0n0z0m0l0J1k0j0i0h0g0f0c3  ",
"        e0x1d0c0b0a0Z0Y0X0W0V0U0T0S0R0Q0P0      ",
"                      O0N0M0L0K0J0I0H0H0G0      ",
"                      F0E0D0C0B0H0H0H0H0G0      ",
"                        A0;0:0B0H0H0908070      ",
"                          A0605040703020        ",
"                            1000                "};
