/* XPM */
static char *image[] = {
"22 22 221 2",
"   c None",
"00 c #1d2223",
"10 c #1c1f20",
"20 c #1e2223",
"30 c #1d1f20",
"40 c #2a3131",
"50 c #2f3436",
"60 c #303537",
"70 c #2b3133",
"80 c #727470",
"90 c #747672",
":0 c #757772",
";0 c #777975",
"A0 c #7e807b",
"B0 c #848682",
"C0 c #888a85",
"D0 c #8b8d89",
"E0 c #888a86",
"F0 c #2f3537",
"G0 c #747571",
"H0 c #434441",
"I0 c #5f615c",
"J0 c #62645f",
"K0 c #656762",
"L0 c #696b66",
"M0 c #6c6e69",
"N0 c #70726d",
"O0 c #737570",
"P0 c #777973",
"Q0 c #8ae234",
"R0 c #969894",
"S0 c #767773",
"T0 c #878984",
"U0 c #868883",
"V0 c #858782",
"W0 c #848681",
"X0 c #828580",
"Y0 c #82847f",
"Z0 c #81837f",
"a0 c #80827e",
"b0 c #7f827d",
"c0 c #7f817c",
"d0 c #7c7f7a",
"e0 c #9e9f9b",
"f0 c #777974",
"g0 c #81837e",
"h0 c #313738",
"i0 c #353a3c",
"j0 c #383e3f",
"k0 c #3b4142",
"l0 c #404646",
"m0 c #454a4a",
"n0 c #444949",
"o0 c #757874",
"p0 c #a6a7a2",
"q0 c #797a76",
"r0 c #797b77",
"s0 c #252a2b",
"t0 c #292e2e",
"u0 c #2c3132",
"v0 c #303435",
"w0 c #323737",
"x0 c #3c4040",
"y0 c #3e4242",
"z0 c #6d706c",
"01 c #adaeaa",
"11 c #7e807c",
"21 c #717470",
"31 c #33393b",
"41 c #393e3f",
"51 c #3e4344",
"61 c #464b4b",
"71 c #4a4f4f",
"81 c #575b5a",
"91 c #585c5b",
":1 c #eeeeec",
";1 c #5a5e5d",
"A1 c #565a59",
"B1 c #666865",
"C1 c #b4b5b1",
"D1 c #878884",
"E1 c #696c68",
"F1 c #2d3232",
"G1 c #323636",
"H1 c #3a3e3e",
"I1 c #414544",
"J1 c #454847",
"K1 c #494c4c",
"L1 c #505352",
"M1 c #535655",
"N1 c #5e615e",
"O1 c #bbbdb8",
"P1 c #8f908c",
"Q1 c #616461",
"R1 c #3d4243",
"S1 c #424748",
"T1 c #484d4d",
"U1 c #4d5251",
"V1 c #525756",
"W1 c #5b5f5e",
"X1 c #656968",
"Y1 c #6c706e",
"Z1 c #707371",
"a1 c #efefed",
"b1 c #757875",
"c1 c #747775",
"d1 c #676b68",
"e1 c #565956",
"f1 c #c2c3bf",
"g1 c #969893",
"h1 c #5a5c5a",
"i1 c #333738",
"j1 c #383c3c",
"k1 c #474b4a",
"l1 c #555756",
"m1 c #5d615f",
"n1 c #616462",
"o1 c #646765",
"p1 c #686b68",
"q1 c #6b6c6b",
"r1 c #f0f0ee",
"s1 c #6d6f6c",
"t1 c #6c6f6b",
"u1 c #4e514f",
"v1 c #c8cac5",
"w1 c #9ea09b",
"x1 c #525553",
"y1 c #424747",
"z1 c #5c6161",
"02 c #666a69",
"12 c #6b6f6e",
"22 c #717473",
"32 c #767978",
"42 c #7b7e7c",
"52 c #808380",
"62 c #848784",
"72 c #898b88",
"82 c #f0f0ef",
"92 c #8c8f8b",
":2 c #777976",
";2 c #464948",
"A2 c #cfd1cc",
"B2 c #a4a6a2",
"C2 c #494d4b",
"D2 c #363a3a",
"E2 c #5b5f5f",
"F2 c #5f6362",
"G2 c #646766",
"H2 c #696b69",
"I2 c #6c6f6d",
"J2 c #707271",
"K2 c #757775",
"L2 c #797a78",
"M2 c #7c7e7c",
"N2 c #838581",
"O2 c #818280",
"P2 c #626562",
"Q2 c #3e4141",
"R2 c #d3d5d0",
"S2 c #acaea9",
"T2 c #424544",
"U2 c #434848",
"V2 c #6d7171",
"W2 c #727575",
"X2 c #777a79",
"Y2 c #7c7f7e",
"Z2 c #818482",
"a2 c #868986",
"b2 c #8b8d8b",
"c2 c #90928f",
"d2 c #949693",
"e2 c #9a9c99",
"f2 c #999a97",
"g2 c #7a7c78",
"h2 c #373a3a",
"i2 c #b3b4b0",
"j2 c #3a3d3d",
"k2 c #343839",
"l2 c #393d3d",
"m2 c #3e4241",
"n2 c #424646",
"o2 c #474a4a",
"p2 c #4c4f4e",
"q2 c #515352",
"r2 c #555856",
"s2 c #595b59",
"t2 c #60625f",
"u2 c #5f625e",
"v2 c #5d5f5c",
"w2 c #b9bbb7",
"x2 c #4e5250",
"y2 c #313535",
"z2 c #313434",
"03 c #303333",
"13 c #2f3332",
"23 c #2e3232",
"33 c #2e3131",
"43 c #2d3031",
"53 c #2c3030",
"63 c #2b2f2f",
"73 c #2a2e2e",
"83 c #292d2d",
"93 c #282c2c",
":3 c #272b2b",
";3 c #4f5352",
"A3 c #b8bab7",
"B3 c #c3c4c0",
"C3 c #c6c7c3",
"D3 c #c9cac6",
"E3 c #cbcdc8",
"F3 c #ced0cb",
"G3 c #d1d2ce",
"H3 c #d4d5d1",
"I3 c #d5d6d2",
"J3 c #d5d7d2",
"K3 c #d5d7d3",
"L3 c #d6d7d3",
"M3 c #ccceca",
"N3 c #313739",
"O3 c #2e3436",
"P3 c #303638",
"                                            ",
"                                            ",
"    P3O3O3O3O3O3O3O3O3O3O3O3O3O3O3O3O3P3    ",
"  N3M3L3L3K3J3J3I3I3I3I3H3G3F3E3D3C3B3A3P3  ",
"  O3J3;3:39383737363534333231303z2y2x2w2O3  ",
"  O3I323v2u2t2u2v2s2r2q2p2o2n2m2l2k2j2i2O3  ",
"  O3H3h2g2f2e2f2d2c2b2a2Z2Y2X2W2V2U2T2S2O3  ",
"  O3R2Q2P2O2N2O2M2L2K2J2I2H2G2F2E2D2C2B2O3  ",
"  O3A2;2:29282927262524232221202z1y1x1w1O3  ",
"  O3v1u1s2t1s1r1q1p1o1n1m1l1k1Q2j1i1h1g1O3  ",
"  O3f1e1d1c1b1c1a1Z1Y1X1W1V1U1T1S1R1Q1P1O3  ",
"  O3O1N1p2r2r2a1M1L1K1J1I1Q2H1D2G1F1E1D1O3  ",
"  O3C1B1A1;1:19181:1:1:17161S15141312111O3  ",
"  O301z0m2y0y0y0Q2x0H1j1D2w0v0u0t0s0r0q0O3  ",
"  O3p0o0n0m0m0m0n0U2l051k0j0i0h0O3O3g0f0O3  ",
"  O3e0d011c0b0a0Z0Y0X0N2W0V0U0U0T0T0r0S0O3  ",
"  O3R0Q0Q0P0O0N0M0L0K0J0I0I0H0H0I0H0H0G0O3  ",
"  F0E0D0C0B0Y0A0g2;0S0:09090G0G0O08080z0F0  ",
"  7060O3O3O3O3O3O3O3O3O3O3O3O3O3O3O3O35040  ",
"    302010101010101010101010101010100030    ",
"                                            ",
"                                            "};
