/* XPM */
static char *image[] = {
"48 48 649 2",
"   c None",
"00 c #0e1734",
"10 c #060a17",
"20 c #070b1a",
"30 c #101a3a",
"40 c #101935",
"50 c #716f71",
"60 c #5f5e5d",
"70 c #595759",
"80 c #4d4c4d",
"90 c #4a494a",
":0 c #525152",
";0 c #5c595b",
"A0 c #646264",
"B0 c #767576",
"C0 c #111931",
"D0 c #151b30",
"E0 c #414043",
"F0 c #313031",
"G0 c #313132",
"H0 c #3b3b3b",
"I0 c #474545",
"J0 c #52504f",
"K0 c #5c5957",
"L0 c #625f5d",
"M0 c #656260",
"N0 c #5e5d5d",
"O0 c #676361",
"P0 c #5b5857",
"Q0 c #535152",
"R0 c #494849",
"S0 c #3f3f40",
"T0 c #3a393b",
"U0 c #444345",
"V0 c #111a36",
"W0 c #2c2d30",
"X0 c #3f3f3d",
"Y0 c #555352",
"Z0 c #6c6766",
"a0 c #7d7775",
"b0 c #8c8583",
"c0 c #a8a1a1",
"d0 c #525151",
"e0 c #3d3d40",
"f0 c #393a3c",
"g0 c #a69d9f",
"h0 c #9f9899",
"i0 c #989192",
"j0 c #8f8788",
"k0 c #857f7f",
"l0 c #787272",
"m0 c #515050",
"n0 c #404042",
"o0 c #3e3d3d",
"p0 c #504e4c",
"q0 c #6e6968",
"r0 c #847e7c",
"s0 c #a29a9a",
"t0 c #afa7a9",
"u0 c #b2a9ac",
"v0 c #9d969a",
"w0 c #9f989c",
"x0 c #bab1b4",
"y0 c #605e60",
"z0 c #303337",
"01 c #303234",
"11 c #a49ea0",
"21 c #b5acb0",
"31 c #aba3a7",
"41 c #8a8487",
"51 c #9f989b",
"61 c #9f9698",
"71 c #6a6766",
"81 c #6a6b6d",
"91 c #302e2e",
":1 c #8d8686",
";1 c #9e9697",
"A1 c #ada5a6",
"B1 c #afa7aa",
"C1 c #8d888b",
"D1 c #a0999d",
"E1 c #b8b0b2",
"F1 c #777477",
"G1 c #6f6f6f",
"H1 c #4c4d50",
"I1 c #878184",
"J1 c #726f71",
"K1 c #343637",
"L1 c #ada4a6",
"M1 c #4c4c4d",
"N1 c #7b7b7e",
"O1 c #3e4041",
"P1 c #989193",
"Q1 c #a19899",
"R1 c #7c7878",
"S1 c #817b7c",
"T1 c #928c8c",
"U1 c #817b7b",
"V1 c #6a6667",
"W1 c #393838",
"X1 c #948d8c",
"Y1 c #aaa2a3",
"Z1 c #b3aaad",
"a1 c #605e5f",
"b1 c #9a9b9d",
"c1 c #414245",
"d1 c #938d8f",
"e1 c #5a5759",
"f1 c #59595a",
"g1 c #515254",
"h1 c #6f6c6e",
"i1 c #b4abae",
"j1 c #5f5e5f",
"k1 c #464748",
"l1 c #404142",
"m1 c #979193",
"n1 c #454344",
"o1 c #4b4b4d",
"p1 c #515152",
"q1 c #898283",
"r1 c #5e5c5d",
"s1 c #79787a",
"t1 c #767679",
"u1 c #6f6c6d",
"v1 c #858080",
"w1 c #9a9796",
"x1 c #ececec",
"y1 c #3d3d3d",
"z1 c #8b8483",
"02 c #aca3a5",
"12 c #aca3a6",
"22 c #4d4c4e",
"32 c #58585b",
"42 c #49484c",
"52 c #868081",
"62 c #979093",
"72 c #656262",
"82 c #757173",
"92 c #9e979a",
":2 c #a9a2a3",
";2 c #525051",
"A2 c #434444",
"B2 c #474746",
"C2 c #878282",
"D2 c #a09899",
"E2 c #777272",
"F2 c #807c7c",
"G2 c #958e8f",
"H2 c #8d8687",
"I2 c #514f50",
"J2 c #525357",
"K2 c #565557",
"L2 c #6c6969",
"M2 c #c5c2c2",
"N2 c #eaeaea",
"O2 c #242424",
"P2 c #847e7d",
"Q2 c #aba4a5",
"R2 c #8d8789",
"S2 c #656465",
"T2 c #817c7e",
"U2 c #a59c9d",
"V2 c #a49d9d",
"W2 c #a49c9d",
"X2 c #9f9798",
"Y2 c #706b6d",
"Z2 c #837d7e",
"a2 c #9b9495",
"b2 c #9b9394",
"c2 c #989091",
"d2 c #989090",
"e2 c #958e8e",
"f2 c #706d6d",
"g2 c #8e8889",
"h2 c #908a8a",
"i2 c #d2d0d0",
"j2 c #949aae",
"k2 c #0d1328",
"l2 c #0f1731",
"m2 c #05070f",
"n2 c #75706f",
"o2 c #989191",
"p2 c #a49b9d",
"q2 c #999292",
"r2 c #999293",
"s2 c #9d9595",
"t2 c #a1999b",
"u2 c #a0999a",
"v2 c #9f9898",
"w2 c #9c9595",
"x2 c #968f8f",
"y2 c #958e8d",
"z2 c #9e9698",
"03 c #36405f",
"13 c #121c3c",
"23 c #0f1835",
"33 c #03050b",
"43 c #555251",
"53 c #908989",
"63 c #9c9494",
"73 c #aca5a6",
"83 c #beb9b9",
"93 c #cfcbcb",
":3 c #d8d4d5",
";3 c #e7e4e5",
"A3 c #f2f1f2",
"B3 c #eceaea",
"C3 c #e8e7e6",
"D3 c #e8e8e6",
"E3 c #eae9e8",
"F3 c #ebeaea",
"G3 c #e3e0e2",
"H3 c #d4ced0",
"I3 c #cec7ca",
"J3 c #b2aaab",
"K3 c #b4aeaf",
"L3 c #7d7777",
"M3 c #aca4a7",
"N3 c #f8f8f8",
"O3 c #616161",
"P3 c #383535",
"Q3 c #8b8484",
"R3 c #979090",
"S3 c #ebe9e9",
"T3 c #e8e8e7",
"U3 c #d6d9d4",
"V3 c #c9cec5",
"W3 c #b8bfb1",
"X3 c #a0aa99",
"Y3 c #87967b",
"Z3 c #889b7f",
"a3 c #8c9d81",
"b3 c #8d9d81",
"c3 c #839279",
"d3 c #8fa082",
"e3 c #8f9f83",
"f3 c #8e9f82",
"g3 c #8ea082",
"h3 c #8ea083",
"i3 c #8e9e83",
"j3 c #8a9a7e",
"k3 c #828f79",
"l3 c #c0c9b9",
"m3 c #d2d8cc",
"n3 c #daded6",
"o3 c #c8c8c6",
"p3 c #615d5d",
"q3 c #b1a8ab",
"r3 c #f1f0f0",
"s3 c #3e3e3e",
"t3 c #363635",
"u3 c #968e8e",
"v3 c #92a386",
"w3 c #3f4844",
"x3 c #636d5f",
"y3 c #95a587",
"z3 c #8c9d7d",
"04 c #9cae8e",
"14 c #92a387",
"24 c #87987b",
"34 c #8a997f",
"44 c #515b50",
"54 c #7c8771",
"64 c #6d7964",
"74 c #b0a7aa",
"84 c #343333",
"94 c #958d8d",
":4 c #637060",
";4 c #6a7563",
"A4 c #383e3c",
"B4 c #7a8870",
"C4 c #9fb290",
"D4 c #a3b595",
"E4 c #6c7763",
"F4 c #7b8670",
"G4 c #545e50",
"H4 c #6c7861",
"I4 c #5f5b5b",
"J4 c #b3abad",
"K4 c #e7e4e6",
"L4 c #333232",
"M4 c #827c7c",
"N4 c #948d8d",
"O4 c #8fa083",
"P4 c #717d68",
"Q4 c #475048",
"R4 c #91a283",
"S4 c #a0b393",
"T4 c #a1b494",
"U4 c #a1b595",
"V4 c #a4b696",
"W4 c #94a587",
"X4 c #92a285",
"Y4 c #495148",
"Z4 c #6b7765",
"a4 c #6d7a62",
"b4 c #5e595a",
"c4 c #b4acaf",
"d4 c #323030",
"e4 c #7f7978",
"f4 c #938b8b",
"g4 c #e0dfde",
"h4 c #9eb090",
"i4 c #a1b393",
"j4 c #93a584",
"k4 c #9fb391",
"l4 c #9db292",
"m4 c #a1b695",
"n4 c #a2b695",
"o4 c #93a787",
"p4 c #a6b997",
"q4 c #8f9e82",
"r4 c #a0b191",
"s4 c #b6aeb2",
"t4 c #e8e6e6",
"u4 c #302f2f",
"v4 c #7d7878",
"w4 c #938c8c",
"x4 c #85947a",
"y4 c #5a6254",
"z4 c #5f6659",
"05 c #8b9b7f",
"15 c #a0b494",
"25 c #a2b694",
"35 c #a2b595",
"45 c #a3b796",
"55 c #93a587",
"65 c #707d6a",
"75 c #839179",
"85 c #808c76",
"95 c #6d7a63",
":5 c #b8b0b3",
";5 c #2e2e2e",
"A5 c #7b7575",
"B5 c #918a8a",
"C5 c #e0e0de",
"D5 c #697462",
"E5 c #677062",
"F5 c #60685a",
"G5 c #7b896f",
"H5 c #9fb390",
"I5 c #9eb392",
"J5 c #9fb493",
"K5 c #9fb494",
"L5 c #a1b594",
"M5 c #8b9a7e",
"N5 c #a3b695",
"O5 c #a3b696",
"P5 c #a4b695",
"Q5 c #a4b796",
"R5 c #a5b896",
"S5 c #a5b796",
"T5 c #93a486",
"U5 c #616d5d",
"V5 c #8f9d83",
"W5 c #515c4e",
"X5 c #6a765f",
"Y5 c #5c5859",
"Z5 c #e9e7e7",
"a5 c #2e2c2c",
"b5 c #787374",
"c5 c #8f8888",
"d5 c #e0e0df",
"e5 c #98a985",
"f5 c #5c6752",
"g5 c #6c775e",
"h5 c #92a380",
"i5 c #869777",
"j5 c #889978",
"k5 c #869976",
"l5 c #889877",
"m5 c #8a9779",
"n5 c #8a9879",
"o5 c #889777",
"p5 c #899777",
"q5 c #7a876c",
"r5 c #8a9878",
"s5 c #818f71",
"t5 c #7d8b6e",
"u5 c #96a782",
"v5 c #6f7961",
"w5 c #818e70",
"x5 c #67725a",
"y5 c #5a5757",
"z5 c #b9b2b5",
"06 c #2c2c2c",
"16 c #757171",
"26 c #8e8787",
"36 c #e2e0de",
"46 c #4f5a39",
"56 c #5a5556",
"66 c #bbb2b6",
"76 c #eae7e8",
"86 c #2b2a2a",
"96 c #767272",
":6 c #8c8484",
";6 c #bbb3b7",
"A6 c #2a2a2a",
"B6 c #736e6f",
"C6 c #8c8585",
"D6 c #424b30",
"E6 c #444d32",
"F6 c #465033",
"G6 c #bdb4b8",
"H6 c #ebe8ea",
"I6 c #282829",
"J6 c #726c6d",
"K6 c #8a8383",
"L6 c #e2e1de",
"M6 c #54603d",
"N6 c #bdb6b9",
"O6 c #ebe9ea",
"P6 c #282728",
"Q6 c #716c6b",
"R6 c #e2e2de",
"S6 c #454f32",
"T6 c #485235",
"U6 c #595656",
"V6 c #bfb6ba",
"W6 c #262627",
"X6 c #6f6a6b",
"Y6 c #8a8282",
"Z6 c #595555",
"a6 c #bfb7ba",
"b6 c #eceaeb",
"c6 c #262626",
"d6 c #6d6768",
"e6 c #898080",
"f6 c #e2e2df",
"g6 c #495335",
"h6 c #3c452c",
"i6 c #595556",
"j6 c #c0b7bb",
"k6 c #eceaec",
"l6 c #222223",
"m6 c #e3e2e0",
"n6 c #596641",
"o6 c #495436",
"p6 c #57633f",
"q6 c #444e32",
"r6 c #647249",
"s6 c #c4bcc1",
"t6 c #eeeced",
"u6 c #212021",
"v6 c #656162",
"w6 c #877f7f",
"x6 c #e3e2e2",
"y6 c #4f5a3a",
"z6 c #4a5536",
"07 c #505b3a",
"17 c #5d5959",
"27 c #c7bec3",
"37 c #87807f",
"47 c #e4e2e2",
"57 c #55613e",
"67 c #3f482e",
"77 c #5f595a",
"87 c #c8c0c4",
"97 c #eeecee",
":7 c #202020",
";7 c #878080",
"A7 c #e4e3e3",
"B7 c #768656",
"C7 c #758556",
"D7 c #5f5a5b",
"E7 c #c9c2c6",
"F7 c #efeeee",
"G7 c #1e1e1f",
"H7 c #605d5d",
"I7 c #e6e3e3",
"J7 c #605b5c",
"K7 c #cac2c7",
"L7 c #1c1d1e",
"M7 c #5e5a5b",
"N7 c #857e7e",
"O7 c #40492e",
"P7 c #414a2f",
"Q7 c #ccc4c9",
"R7 c #efeeef",
"S7 c #1b1c1d",
"T7 c #5c595a",
"U7 c #847c7c",
"V7 c #5e5a5c",
"W7 c #cdc5ca",
"X7 c #1c1c1d",
"Y7 c #5c5758",
"Z7 c #837c7c",
"a7 c #cfc7cc",
"b7 c #1a1b1d",
"c7 c #595757",
"d7 c #827b7b",
"e7 c #e6e4e4",
"f7 c #728253",
"g7 c #384029",
"h7 c #2c3220",
"i7 c #3d462d",
"j7 c #5f5b5c",
"k7 c #d0c7cd",
"l7 c #1a1a1c",
"m7 c #5a5656",
"n7 c #817a7a",
"o7 c #e6e3e4",
"p7 c #606d46",
"q7 c #627048",
"r7 c #5b6843",
"s7 c #6a784d",
"t7 c #6c7b4f",
"u7 c #4b5637",
"v7 c #434c31",
"w7 c #475134",
"x7 c #616e47",
"y7 c #5f5b5d",
"z7 c #d2cbcf",
"08 c #f0eeef",
"18 c #101a3b",
"28 c #1d1f20",
"38 c #585556",
"48 c #7f7878",
"58 c #e2e0df",
"68 c #7b8c5a",
"78 c #625e5f",
"88 c #d2ccd0",
"98 c #f0eef0",
":8 c #050915",
";8 c #797879",
"A8 c #202224",
"B8 c #565253",
"C8 c #7c7777",
"D8 c #9c9898",
"E8 c #5d6a44",
"F8 c #525d3c",
"G8 c #373e28",
"H8 c #5b5657",
"I8 c #d5ced3",
"J8 c #f1eff0",
"K8 c #646566",
"L8 c #28292c",
"M8 c #575454",
"N8 c #7a7373",
"O8 c #898181",
"P8 c #494646",
"Q8 c #43403f",
"R8 c #5c5757",
"S8 c #5d5858",
"T8 c #5f5a5a",
"U8 c #615c5d",
"V8 c #615c5c",
"W8 c #625d5d",
"X8 c #635d5d",
"Y8 c #635f5f",
"Z8 c #645f5f",
"a8 c #655f60",
"b8 c #656161",
"c8 c #666162",
"d8 c #676364",
"e8 c #686365",
"f8 c #676263",
"g8 c #676262",
"h8 c #686364",
"i8 c #696464",
"j8 c #565455",
"k8 c #d9d2d6",
"l8 c #f2f0f2",
"m8 c #7f8081",
"n8 c #2a2b2e",
"o8 c #575455",
"p8 c #7b7475",
"q8 c #867f7f",
"r8 c #0e0f11",
"s8 c #535051",
"t8 c #969090",
"u8 c #9a9393",
"v8 c #9c9495",
"w8 c #9c9596",
"x8 c #9d9696",
"y8 c #a1999a",
"z8 c #a39c9e",
"09 c #a49d9f",
"19 c #a7a0a1",
"29 c #a9a1a3",
"39 c #aba4a8",
"49 c #ada6a9",
"59 c #b0a7ab",
"69 c #b0a8ac",
"79 c #b2a9ad",
"89 c #c1bbbd",
"99 c #c5bfc2",
":9 c #cecacc",
";9 c #c7c0c4",
"A9 c #c6bdc2",
"B9 c #dcd4d9",
"C9 c #898889",
"D9 c #2d2d30",
"E9 c #5b5758",
"F9 c #7c7575",
"G9 c #8e8686",
"H9 c #919191",
"I9 c #838b8b",
"J9 c #828788",
"K9 c #9b9595",
"L9 c #a39b9c",
"M9 c #a49d9e",
"N9 c #a59d9e",
"O9 c #a8a1a2",
"P9 c #a9a3a3",
"Q9 c #ada6a7",
"R9 c #afa6aa",
"S9 c #b0a7ac",
"T9 c #b2a8ad",
"U9 c #b3a9ae",
"V9 c #b5abaf",
"W9 c #b7aeb2",
"X9 c #b8afb2",
"Y9 c #b9b0b4",
"Z9 c #beb6ba",
"a9 c #b9b1b3",
"b9 c #bdb5b8",
"c9 c #c7bfc2",
"d9 c #cbc3c6",
"e9 c #e0d8dd",
"f9 c #f3f0f2",
"g9 c #9f9f9f",
"h9 c #d8d8d8",
"i9 c #e2e1e0",
"j9 c #e4e4e3",
"k9 c #e6e5e5",
"l9 c #dbe2e0",
"m9 c #d2dbd8",
"n9 c #d2dbd9",
"o9 c #dde0df",
"p9 c #e6e4e5",
"q9 c #e7e6e6",
"r9 c #e8e6e7",
"s9 c #e8e7e7",
"t9 c #e8e7e8",
"u9 c #e9e7e8",
"v9 c #e9e8e8",
"w9 c #eae8e8",
"x9 c #eae8ea",
"y9 c #eae8e9",
"z9 c #eae9ea",
"0: c #e4e3e4",
"1: c #e6e6e6",
"2: c #eeeeee",
"3: c #f0eff0",
"4: c #fbfbfb",
"5: c #0b132c",
"6: c #000000",
"7: c #111a37",
"                                                                                                ",
"                                                                                                ",
"                7:6:6:6:6:6:6:6:6:6:6:6:6:6:6:6:6:6:6:6:6:6:6:6:6:6:6:6:6:6:6:5:                ",
"                6:4:3:2:1:0:z9z9z9y9x9y9w9v9u9t9s9r9r9q9p9p9o9n9m9l9k9j9i9h9g96:                ",
"                6:f9e9d9c9b9a9Z9Y9X9W9V9U9T9S9R9Q9P9O9N9M9L9K9J9I9H9G9F9E9D9C96:                ",
"                6:f9B9A9;9:999897969594939291909z8y8y8x8w8v8u8t8s8r8q8p8o8n8m86:                ",
"                6:l8k8j8i8h8g8f8e8d8c8b8a8Z8Y8X8W8V8U8V8T8T8S8R8Q8P8O8N8M8L8K86:                ",
"                6:J8I8H8G8F8F8F8F8F8F8F8F8F8F8F8F8F8F8F8F8F8F8F8F8E8D8C8B8A8;8:8                ",
"                6:988878F8686868686868686868686868686868686868686868584838286:18                ",
"                6:08z7y7F86868x7w7v7u7t7686868686868s7r7s7q7p7s76868o7n7m7l76:                  ",
"                6:98k7j7F868t7i7h7h7h7g7F8F8F8F8F8F8F8F8F8F8F8F8f768e7d7c7b76:                  ",
"                6:08a7y7F8686868686868686868686868686868686868686868e7Z7Y7X76:                  ",
"                6:08W7V7F8686868686868686868686868686868686868686868e7U7T7S76:                  ",
"                6:R7Q7y7F8686868P7v7v7v7O768686868686868686868686868e7N7M7L76:                  ",
"                6:R7K7J7F8686868v7686868P768686868686868686868686868I7N7H7G76:                  ",
"                6:F7E7D7F8686868v7686868v7C7B7C768686868686868686868A7;7Z8:76:                  ",
"                6:978777F8686868O7v7v7v767686868686868s757f7686868684737Y8:76:                  ",
"                6:972717F8686868686807686868686868z6s7y6s7r7f7686868x6w6v6u66:                  ",
"                6:t6s6m7F8686868r6q6v7v7p668686868i7o6q768f7n6686868m6;7g8l66:                  ",
"                6:k6j6i6F86868686868f7686868686868h6O7g66868o6686868f6e6d6c66:                  ",
"                6:b6a6Z6F86868686868F868686868686868686868f7E8686868f6Y6X6W66:                  ",
"                6:b6V6U6F86868686868O76868T6v7S668f7q76868r7f7686868R6Y6Q6P66:                  ",
"                6:O6N6i6F86868686868F86868q707P76868f757M6f768686868L6K6J6I66:                  ",
"                6:H6G6Z6F86868686868s7F6t7E6q7D668686868686868686868f6C6B6A66:                  ",
"                6:y9;6i6F8686868686868s7o6t7686868686868686868686868f6:696866:                  ",
"                6:76665646686868686868686868686868686868686868686868362616066:                  ",
"                6:76z5y5x5w5v5u5t5s5r5q5p5o5n5m5w5o5l5k5j5i5h5g5f5e5d5c5b5a56:                  ",
"                6:Z5Y9Y5X5W5V5U5T5S5R5Q5P5O5N5M5P5L5K5J5I5H5G5F5E5D5C5B5A5;56:                  ",
"                6:r9:5179585756555Q5Q5Q5Q545Q5N5352515J515I505z4y4x4d5w4v4u46:                  ",
"                6:t4s41795r4q4p4o4S5Q5P5O5P5N5n4m4L5L5L5l4k4j4i4h4J5g4f4e4d46:                  ",
"                6:t4c4b4a4Z4Y4X4W4Q5V4S5P5N5N5n4O5U4T4L5L5S4R4Q4P4O4C5N4M4L46:                  ",
"                6:K4J4I4H4G4F4E4T5Q5S5Q545N5O5n4D4N5n4n435C4B4A4;4:4g494N7846:                  ",
"                6:o774j7645444342414V445V4O5N50545O5N5N504z3y3x3w3v3d5u3O8t36:                  ",
"                s3r3q3p3o3n3m3l3k3j3i3h3g3f3e3d3c3b3a3Z3Y3X3W3V3U3T3S3R3Q3P36:                  ",
"                O3N3M3L3K3J3I3H3G3O6b6F3E3T3D3C3s9C3Z5B3A308;3:39383736353433323                ",
"              1303B3z2N4y2x2R3R3u8w2v2u2y8y8t2v2v2x8s2u8r2q2q2u8x8p2L9y8o2n2m2l2                ",
"              k2j2i2h2g2f2p3A5e2u3d2q2c2b2a2Z2Y2R3X2X2W2N9V2U2u2T2S2R2Q2W2P2O2A6                ",
"              6:N2M2:6L2K2J2I2H2G2F278E2D2C2B2A2;2:29282726279524232221202z1y16:                ",
"              6:x1w1v1u1t1s1r1R3q1p1o1n1G2m1l1k1j1i1h1g1f1e1J4d1c1b1a1Z1Y1X1W16:                ",
"              6:q9V1U1T1S1R1r2Q1P1O1N1M1L1:5K1k1J1Y9I1H1G1F1E166D1C1B1A1;1:1916:                ",
"              6:81p171e4C6R361N9Y1514131211101z0y0x0G6w0v0W9u0t0Y1s0e2r0q0p0o06:                ",
"                6:6:6:n0m0v6l0k0j0i0h0z8g0R2f0e0d0A1c0L9;1e2b0a0Z0Y0X0W06:6:6:                  ",
"                    V06:6:6:U0T0S0R0Q0P0Y8O0N0Q0M0L0K0J0I0H0G0F0E06:6:6:D0                      ",
"                          C06:6:6:6:6:B0A0;0:090807060506:6:6:6:6:40                            ",
"                                  30206:6:6:6:6:6:6:6:6:1000                                    ",
"                                                                                                ",
"                                                                                                ",
"                                                                                                "};
