/* XPM */
static char *image[] = {
"48 48 823 2",
"   c None",
"00 c #0e4500",
"10 c #2f800d",
"20 c #3d991f",
"30 c #49de62",
"40 c #22ca5a",
"50 c #13c053",
"60 c #39ae36",
"70 c #318311",
"80 c #47dc62",
"90 c #20c85a",
":0 c #009038",
";0 c #00ae47",
"A0 c #2f8b19",
"B0 c #022b00",
"C0 c #206500",
"D0 c #53be3c",
"E0 c #5aeb6a",
"F0 c #27cc5d",
"G0 c #03935a",
"H0 c #5ebea8",
"I0 c #338c75",
"J0 c #009138",
"K0 c #00993c",
"L0 c #009a3c",
"M0 c #16c353",
"N0 c #246705",
"O0 c #26c95d",
"P0 c #00a047",
"Q0 c #00894a",
"R0 c #50b397",
"S0 c #bee1eb",
"T0 c #8c9931",
"U0 c #f8be40",
"V0 c #3f7722",
"W0 c #00a440",
"X0 c #22bc47",
"Y0 c #216700",
"Z0 c #4ab131",
"a0 c #51db5d",
"b0 c #22c65d",
"c0 c #00a14a",
"d0 c #008b4f",
"e0 c #33a48a",
"f0 c #9bd3dc",
"g0 c #fff4be",
"h0 c #ffc643",
"i0 c #0e6e1f",
"j0 c #2eba42",
"k0 c #195700",
"l0 c #3c971b",
"m0 c #54d456",
"n0 c #35d465",
"o0 c #009e4a",
"p0 c #00874f",
"q0 c #2da08a",
"r0 c #8fccdc",
"s0 c #d9f4ff",
"t0 c #fbffff",
"u0 c #ffdc93",
"v0 c #ffac71",
"w0 c #e18593",
"x0 c #006e29",
"y0 c #04b747",
"z0 c #2d9b28",
"01 c #115800",
"11 c #4cc64a",
"21 c #33d265",
"31 c #00a14f",
"41 c #007c40",
"51 c #1e947b",
"61 c #80c3dc",
"71 c #e8fcff",
"81 c #efffff",
"91 c #ff9ad4",
":1 c #ff82c6",
";1 c #b47193",
"A1 c #13c34f",
"B1 c #21710b",
"C1 c #34c65a",
"D1 c #009653",
"E1 c #18937e",
"F1 c #57adbe",
"G1 c #c0e8ff",
"H1 c #cfefff",
"I1 c #d6f2ff",
"J1 c #dcf6ff",
"K1 c #e6f9ff",
"L1 c #d2e9ff",
"M1 c #8bb9e0",
"N1 c #fffcff",
"O1 c #ff93c2",
"P1 c #ffb493",
"Q1 c #79a73c",
"R1 c #009e38",
"S1 c #1dc34a",
"T1 c #195300",
"U1 c #27b14f",
"V1 c #008743",
"W1 c #46a5b1",
"X1 c #93d2ff",
"Y1 c #87a8ca",
"Z1 c #bce6ff",
"a1 c #c3e9ff",
"b1 c #daf4ff",
"c1 c #cdebff",
"d1 c #8abbe8",
"e1 c #8fbee8",
"f1 c #a7cdef",
"g1 c #f0fcff",
"h1 c #a1c8e8",
"i1 c #ffffd9",
"j1 c #ffff43",
"k1 c #2f8c22",
"l1 c #00ae40",
"m1 c #28c046",
"n1 c #249e40",
"o1 c #009e4f",
"p1 c #389fa4",
"q1 c #80a5ca",
"r1 c #72a0be",
"s1 c #97bee6",
"t1 c #c0e7ff",
"u1 c #7bb3e8",
"v1 c #7fb4e8",
"w1 c #83b7e8",
"x1 c #e4f9ff",
"y1 c #ebfeff",
"z1 c #91c0e8",
"02 c #96c2e8",
"12 c #9ac3e8",
"22 c #ffffa4",
"32 c #fcff4a",
"42 c #b1ff5d",
"52 c #00832d",
"62 c #259e27",
"72 c #006721",
"82 c #13b356",
"92 c #038562",
":2 c #a4d9ff",
";2 c #9fcfff",
"A2 c #718aa4",
"B2 c #89aed9",
"C2 c #67798a",
"D2 c #a7d3ff",
"E2 c #6fade8",
"F2 c #72aee8",
"G2 c #a3cdf6",
"H2 c #6fa4d7",
"I2 c #7cabda",
"J2 c #cce1f9",
"K2 c #e7f2ff",
"L2 c #b5d0eb",
"M2 c #83add6",
"N2 c #90b5da",
"O2 c #d2e1f0",
"P2 c #e9f0f9",
"Q2 c #dab7a7",
"R2 c #acffac",
"S2 c #82ff82",
"T2 c #5de66a",
"U2 c #008229",
"V2 c #0cc147",
"W2 c #298c1d",
"X2 c #002700",
"Y2 c #27bb56",
"Z2 c #007e43",
"a2 c #97cffc",
"b2 c #abdcff",
"c2 c #94bce6",
"d2 c #65778a",
"e2 c #83b5d9",
"f2 c #68798a",
"g2 c #b2e0ff",
"h2 c #9fd0ff",
"i2 c #72ace4",
"j2 c #5d97d0",
"k2 c #99bce6",
"l2 c #c0d6f2",
"m2 c #a4c1e4",
"n2 c #77a3cf",
"o2 c #6b99c8",
"p2 c #b4cae4",
"q2 c #89abcf",
"r2 c #8baccf",
"s2 c #773f27",
"t2 c #c35822",
"u2 c #9affac",
"v2 c #82efbe",
"w2 c #47a4a4",
"x2 c #009631",
"y2 c #14c143",
"z2 c #186106",
"03 c #2bac49",
"13 c #008c43",
"23 c #67b9cf",
"33 c #b9e4ff",
"43 c #b4e1ff",
"53 c #b1e0ff",
"63 c #acdcff",
"73 c #8fb3d9",
"83 c #555d65",
"93 c #8db2d9",
":3 c #778da4",
";3 c #aedaff",
"A3 c #7caee4",
"B3 c #a0c2eb",
"C3 c #6a9acf",
"D3 c #5e93c8",
"E3 c #9abadc",
"F3 c #6e9ac8",
"G3 c #82a8cf",
"H3 c #cdccd6",
"I3 c #b7450e",
"J3 c #a7603c",
"K3 c #f4ffff",
"L3 c #8acaff",
"M3 c #288a85",
"N3 c #00a738",
"O3 c #1db538",
"P3 c #067528",
"Q3 c #04ab53",
"R3 c #289885",
"S3 c #bae4ff",
"T3 c #b5e2ff",
"U3 c #84c0f8",
"V3 c #aedeff",
"W3 c #809ebb",
"X3 c #435557",
"Y3 c #718bab",
"Z3 c #728baa",
"a3 c #9fc5f2",
"b3 c #6096cf",
"c3 c #6398cf",
"d3 c #b2cdf2",
"e3 c #99bbe4",
"f3 c #74a0cf",
"g3 c #aac3e4",
"h3 c #c1d3eb",
"i3 c #7e99bb",
"j3 c #a33a0a",
"k3 c #8a645c",
"l3 c #82767f",
"m3 c #ac653c",
"n3 c #e1f8ff",
"o3 c #82c6ff",
"p3 c #93b4f4",
"q3 c #1b612d",
"r3 c #06ba40",
"s3 c #1fa127",
"t3 c #20c05a",
"u3 c #008356",
"v3 c #bee7ff",
"w3 c #c9ebff",
"x3 c #c5e9ff",
"y3 c #c1e7ff",
"z3 c #acdaff",
"04 c #5b9edc",
"14 c #98c6f8",
"24 c #8cb9ed",
"34 c #6a809f",
"44 c #516b7d",
"54 c #657993",
"64 c #829ec2",
"74 c #a3c6f2",
"84 c #6fa1d6",
"94 c #87aedc",
":4 c #719fcf",
";4 c #76a1cf",
"A4 c #768aa7",
"B4 c #c25621",
"C4 c #fccca4",
"D4 c #fce8d0",
"E4 c #9a8d90",
"F4 c #b55c1e",
"G4 c #fca8b1",
"H4 c #f84340",
"I4 c #076822",
"J4 c #2fa427",
"K4 c #1eab4a",
"L4 c #008747",
"M4 c #98d3ef",
"N4 c #d3f0ff",
"O4 c #cfeeff",
"P4 c #caedff",
"Q4 c #c0e2ff",
"R4 c #4c8ac9",
"S4 c #4380c1",
"T4 c #9bc3f2",
"U4 c #99c1f2",
"V4 c #718aaa",
"W4 c #588293",
"X4 c #91b2da",
"Y4 c #6b9bcf",
"Z4 c #adcaeb",
"a4 c #c1b2b4",
"b4 c #c24d11",
"c4 c #fff0d7",
"d4 c #c86413",
"e4 c #ff7171",
"f4 c #ff4343",
"g4 c #825a34",
"h4 c #06b43c",
"i4 c #13b535",
"j4 c #1a943c",
"k4 c #009947",
"l4 c #63bac2",
"m4 c #dcf5ff",
"n4 c #d7f0ff",
"o4 c #c9e6ff",
"p4 c #b7d3f6",
"q4 c #588fc8",
"r4 c #9ec1eb",
"s4 c #6297cf",
"t4 c #89b4e4",
"u4 c #77a8dc",
"v4 c #689ed6",
"w4 c #94b9e6",
"x4 c #607087",
"y4 c #64859f",
"z4 c #6f839f",
"05 c #94b3da",
"15 c #a8c9f2",
"25 c #aeccf2",
"35 c #96bae4",
"45 c #6c7b93",
"55 c #c24c11",
"65 c #ffe9c9",
"75 c #e67d19",
"85 c #7fda97",
"95 c #26b143",
":5 c #04671d",
";5 c #06aa4f",
"A5 c #1b937b",
"B5 c #dcf4ff",
"C5 c #d2e6ff",
"D5 c #c2d7f4",
"E5 c #bcd4f2",
"F5 c #6c9bcf",
"G5 c #87b1dc",
"H5 c #84addc",
"I5 c #74a3d6",
"J5 c #9bc0eb",
"K5 c #548cc8",
"L5 c #a4c8f2",
"M5 c #76a7dc",
"N5 c #89a7cd",
"O5 c #5b687d",
"P5 c #7fabcd",
"Q5 c #70849f",
"R5 c #a5c8f2",
"S5 c #84a1c9",
"T5 c #c14705",
"U5 c #ffdb9e",
"V5 c #ffedb1",
"W5 c #fff6c8",
"X5 c #ed8719",
"Y5 c #e9fff4",
"Z5 c #8febb1",
"a5 c #32cf68",
"b5 c #003c06",
"c5 c #18ae4f",
"d5 c #008b58",
"e5 c #b3d3eb",
"f5 c #c9daf2",
"g5 c #c6d7f2",
"h5 c #90b4dc",
"i5 c #7ea8d6",
"j5 c #abc8eb",
"k5 c #5c91c8",
"l5 c #b3cff2",
"m5 c #4c84c1",
"n5 c #accaf2",
"o5 c #4883c1",
"p5 c #97beeb",
"q5 c #94bbeb",
"r5 c #7d96b5",
"s5 c #4f5767",
"t5 c #809ec2",
"u5 c #6b7c93",
"v5 c #accdf6",
"w5 c #b27258",
"x5 c #f6a44f",
"y5 c #ffd980",
"z5 c #ffe176",
"06 c #ffe86e",
"16 c #ffeb7d",
"26 c #fff6c2",
"36 c #f49a29",
"46 c #8ce8b1",
"56 c #2cc965",
"66 c #189e42",
"76 c #00944d",
"86 c #82b3c5",
"96 c #d2def2",
":6 c #cfdcf2",
";6 c #bacfeb",
"A6 c #6596c8",
"B6 c #c3d7f2",
"C6 c #538ac1",
"D6 c #5d91c8",
"E6 c #a5c5eb",
"F6 c #6799cf",
"G6 c #90b7e4",
"H6 c #71a1d6",
"I6 c #7cabdc",
"J6 c #a3c8f2",
"K6 c #71849f",
"L6 c #556b76",
"M6 c #8ca7c5",
"N6 c #879bb1",
"O6 c #c8510c",
"P6 c #ffd376",
"Q6 c #ffd47b",
"R6 c #ffe463",
"S6 c #ffe664",
"T6 c #ffe768",
"U6 c #ffff7e",
"V6 c #fffcc0",
"W6 c #8f9f1f",
"X6 c #0b7b28",
"Y6 c #02ac4f",
"Z6 c #439f98",
"a6 c #e0e6f2",
"b6 c #dbe4f2",
"c6 c #d7e1f2",
"d6 c #d4e0f2",
"e6 c #6797c8",
"f6 c #b4cceb",
"g6 c #80aad6",
"h6 c #8db3dc",
"i6 c #8bb2dc",
"j6 c #79a5d6",
"k6 c #94b9e4",
"l6 c #6599cf",
"m6 c #80acdc",
"n6 c #87b5e8",
"o6 c #bbe1ff",
"p6 c #586e71",
"q6 c #8f624f",
"r6 c #eb842f",
"s6 c #ffcd70",
"t6 c #ffd668",
"u6 c #ffe25b",
"v6 c #ffe45d",
"w6 c #ffef67",
"x6 c #ffff77",
"y6 c #fff070",
"z6 c #fe8500",
"07 c #00420d",
"17 c #13b553",
"27 c #189971",
"37 c #e7e9f4",
"47 c #e1e6f2",
"57 c #709bc8",
"67 c #c3d4eb",
"77 c #8cb1d6",
"87 c #99badc",
"97 c #a8c3e4",
":7 c #75a0cf",
";7 c #b3cceb",
"A7 c #6194c8",
"B7 c #bcd3f2",
"C7 c #518ac3",
"D7 c #b2d3f9",
"E7 c #65a3dc",
"F7 c #c9edff",
"G7 c #94c6f8",
"H7 c #c2e8ff",
"I7 c #708c97",
"J7 c #bb4609",
"K7 c #ffc864",
"L7 c #ffc968",
"M7 c #ffdb54",
"N7 c #ffe054",
"O7 c #ffe157",
"P7 c #fff964",
"Q7 c #ffff6e",
"R7 c #ffc11f",
"S7 c #22b44f",
"T7 c #008938",
"U7 c #a4d4eb",
"V7 c #fbfcff",
"W7 c #e6e8f2",
"X7 c #aac1dc",
"Y7 c #96b4d6",
"Z7 c #b5cae4",
"a7 c #7fa7cf",
"b7 c #c2d3eb",
"c7 c #5b8dc1",
"d7 c #ccdbf2",
"e7 c #578bc1",
"f7 c #cadef8",
"g7 c #5b96cf",
"h7 c #c9e8ff",
"i7 c #5e9fd9",
"j7 c #d4f0ff",
"k7 c #6ba8e0",
"l7 c #bae1ff",
"m7 c #c8ebff",
"n7 c #bea39f",
"o7 c #eb7f27",
"p7 c #ffc35e",
"q7 c #ffcc58",
"r7 c #ffdc4a",
"s7 c #ffdc4d",
"t7 c #ffe753",
"u7 c #ffff60",
"v7 c #ffff63",
"w7 c #ff8f00",
"x7 c #13983d",
"y7 c #00a147",
"z7 c #009640",
"08 c #006f40",
"18 c #d9e0ed",
"28 c #77a0c8",
"38 c #e4e7f2",
"48 c #6291c1",
"58 c #dce4f2",
"68 c #5e90c1",
"78 c #d6e1f2",
"88 c #70a0d0",
"98 c #d4e9ff",
":8 c #8bbbe8",
";8 c #c0e1ff",
"A8 c #75ade0",
"B8 c #cce9ff",
"C8 c #91c2ef",
"D8 c #a0cdf8",
"E8 c #d2efff",
"F8 c #cdeeff",
"G8 c #bb5520",
"H8 c #ffb24c",
"I8 c #ffbe57",
"J8 c #ffd347",
"K8 c #ffda42",
"L8 c #ffdb46",
"M8 c #fff44f",
"N8 c #ffff56",
"O8 c #ffcf26",
"P8 c #0a983d",
"Q8 c #009e43",
"R8 c #00933c",
"S8 c #278365",
"T8 c #dbe9f8",
"U8 c #ebebf2",
"V8 c #79a0c8",
"W8 c #d3dbeb",
"X8 c #89abd2",
"Y8 c #c8dbf0",
"Z8 c #a7cced",
"a8 c #bbdbf8",
"b8 c #b9daf8",
"c8 c #a1caef",
"d8 c #b2d6f8",
"e8 c #9bc8ef",
"f8 c #bee0ff",
"g8 c #84b9e8",
"h8 c #dbf5ff",
"i8 c #d7f4ff",
"j8 c #cab7b4",
"k8 c #de640e",
"l8 c #ffb94e",
"m8 c #ffc14a",
"n8 c #ffd739",
"o8 c #ffd73c",
"p8 c #ffdc40",
"q8 c #fffe49",
"r8 c #ffff4d",
"s8 c #ff9400",
"t8 c #009940",
"u8 c #00a043",
"v8 c #00a143",
"w8 c #008331",
"x8 c #6aaca4",
"y8 c #dae8f6",
"z8 c #b9cde4",
"09 c #c0d7ed",
"19 c #b4d4ef",
"29 c #f0feff",
"39 c #87b7e0",
"49 c #e9f9ff",
"59 c #82b4e0",
"69 c #e2f5ff",
"79 c #7eb2e0",
"89 c #eeffff",
"99 c #68a3d9",
":9 c #e6fbff",
";9 c #e2f8ff",
"A9 c #def6ff",
"B9 c #c0653c",
"C9 c #ffa73d",
"D9 c #ffb448",
"E9 c #ffc839",
"F9 c #ffd432",
"G9 c #ffd635",
"H9 c #ffee3a",
"I9 c #fffe40",
"J9 c #ffd31f",
"K9 c #009b40",
"L9 c #00a343",
"M9 c #00a443",
"N9 c #007227",
"O9 c #b1d9d9",
"P9 c #79acd9",
"Q9 c #75aad9",
"R9 c #71a8d9",
"S9 c #7fb3e0",
"T9 c #dbf2ff",
"U9 c #edfeff",
"V9 c #e8fbff",
"W9 c #ccd6d4",
"X9 c #d34f00",
"Y9 c #ffad3f",
"Z9 c #ffb33d",
"a9 c #ffd028",
"b9 c #ffd22b",
"c9 c #ffd62e",
"d9 c #fffc32",
"e9 c #fffc36",
"f9 c #008b34",
"g9 c #00a543",
"h9 c #00a743",
"i9 c #007538",
"j9 c #e6f8fc",
"k9 c #f5ffff",
"l9 c #8ab9e0",
"m9 c #eefbff",
"n9 c #98c2e8",
"o9 c #bcdbf8",
"p9 c #f6ffff",
"q9 c #f2ffff",
"r9 c #dcf9ff",
"s9 c #945d1b",
"t9 c #ff9427",
"u9 c #ffaa38",
"v9 c #ffc128",
"w9 c #ffcf22",
"x9 c #ffcf25",
"y9 c #ffe627",
"z9 c #fffb28",
"0: c #ffd917",
"1: c #fc8300",
"2: c #008d34",
"3: c #00a843",
"4: c #00aa43",
"5: c #00a340",
"6: c #127d4f",
"7: c #cde4f8",
"8: c #b7d6ef",
"9: c #cce4f8",
":: c #c8e1f8",
";: c #b1d3ef",
"A: c #f8ffff",
"B: c #5bc682",
"C: c #c04d00",
"D: c #ffa32e",
"E: c #ffa72f",
"F: c #ffc91b",
"G: c #ffcc1b",
"H: c #ffd01e",
"I: c #fff61d",
"J: c #fffb20",
"K: c #ffad00",
"L: c #009438",
"M: c #00ab43",
"N: c #00ac43",
"O: c #009838",
"P: c #3b9175",
"Q: c #a3c8e8",
"R: c #a5eeca",
"S: c #51650c",
"T: c #f67b12",
"U: c #ff9f28",
"V: c #ffb31d",
"W: c #ffc913",
"X: c #ffc916",
"Y: c #ffdb14",
"Z: c #fff914",
"a: c #ffe810",
"b: c #fb8000",
"c: c #00a740",
"d: c #00ae43",
"e: c #00852d",
"f: c #7bb4a4",
"g: c #7bacd9",
"h: c #e2fff4",
"i: c #12c051",
"j: c #c83b00",
"k: c #ff9820",
"l: c #ff9a22",
"m: c #ffc20c",
"n: c #ffc60c",
"o: c #ffc810",
"p: c #fff20a",
"q: c #fff80c",
"r: c #ffa700",
"s: c #00b143",
"t: c #00b243",
"u: c #00b343",
"v: c #007b31",
"w: c #b9dcd9",
"x: c #8dbae0",
"y: c #f9ffff",
"z: c #2fca68",
"0; c #7f4100",
"1; c #eb6300",
"2; c #ff941a",
"3; c #ffa713",
"4; c #ffc205",
"5; c #ffc306",
"6; c #ffd705",
"7; c #fff602",
"8; c #ffee02",
"9; c #f98900",
":; c #007e28",
";; c #00b443",
"A; c #00b543",
"B; c #067b43",
"C; c #effcfc",
"D; c #e2f2ff",
"E; c #7ee6a4",
"F; c #bc2b00",
"G; c #ff8d12",
"H; c #ff9014",
"I; c #ffba00",
"J; c #ffc202",
"K; c #ffe800",
"L; c #ffb400",
"M; c #009332",
"N; c #02b743",
"O; c #00b140",
"P; c #21845a",
"Q; c #c5fbd9",
"R; c #eb5d00",
"S; c #ff8a0c",
"T; c #ff9a06",
"U; c #ffbc00",
"V; c #ffbe00",
"W; c #ffcc00",
"X; c #fff500",
"Y; c #f88300",
"Z; c #00a83b",
"a; c #03ba43",
"b; c #04bb43",
"c; c #00a438",
"d; c #539a82",
"e; c #fcffff",
"f; c #17c651",
"g; c #b72500",
"h; c #ff7d03",
"i; c #ff8506",
"j; c #ffac00",
"k; c #ffbb00",
"l; c #ffe200",
"m; c #fff400",
"n; c #ffc200",
"o; c #02b440",
"p; c #05bc43",
"q; c #06be43",
"r; c #008d2d",
"s; c #8fc2b4",
"t; c #ffffff",
"u; c #55db82",
"v; c #de4e00",
"w; c #ff9000",
"x; c #ffb700",
"y; c #ffc100",
"z; c #f88700",
"0A c #007220",
"1A c #06c043",
"2A c #07c143",
"3A c #00792d",
"4A c #5cd785",
"5A c #ff7d02",
"6A c #ffa100",
"7A c #ffdb00",
"8A c #ffc800",
"9A c #009431",
":A c #09c243",
";A c #0ac343",
"AA c #0bc543",
"BA c #d34100",
"CA c #ff8900",
"DA c #ffb300",
"EA c #ffb900",
"FA c #f99400",
"GA c #04a438",
"HA c #0cc643",
"IA c #ff7500",
"JA c #ff8305",
"KA c #ffa000",
"LA c #ffd200",
"MA c #ffcf00",
"NA c #f47700",
"OA c #0cb43f",
"PA c #cc3b00",
"QA c #ff9827",
"RA c #ff8d0c",
"SA c #ffae00",
"TA c #ffb200",
"UA c #ffb500",
"VA c #ffee00",
"WA c #fca000",
"XA c #d96f2f",
"YA c #ffeba4",
"ZA c #ffcc2d",
"aA c #ffc900",
"bA c #ffe000",
"cA c #f07400",
"dA c #f0ad7f",
"eA c #fff680",
"fA c #fff200",
"gA c #f99e00",
"hA c #d3682d",
"iA c #ffdbb7",
"jA c #fff9dc",
"kA c #ffed3d",
"lA c #f27c00",
"mA c #ae1d00",
"nA c #c03b00",
"oA c #dc6c10",
"pA c #eb7500",
"                                                pAoAnAmA                                        ",
"                                              lAkAjAjAiAhAmA                                    ",
"                                              gAfAeAjAjAjAdAmA                                  ",
"                                            cAbAfAaAZAYAjAjAXA                                  ",
"                                            WAfAVAUATASARAQAPA      OA                          ",
"                                          NAMAfALATATAKAJAIAmA    HAHAGA                        ",
"                                          FAfAfAEADATACAJABA    AAAA;A:A9A                      ",
"                                          8AfA7AUAUA6AJA5AmA    4A3A2A2A1A0A                    ",
"                                        z;fAfAy;EAx;w;JAv;    u;t;s;r;q;p;o;                    ",
"                                        n;m;l;k;k;j;i;h;g;  f;e;t;t;d;c;b;a;Z;                  ",
"                                      Y;X;X;W;V;U;T;S;R;  q;Q;t;t;t;t;P;O;N;N;M;                ",
"                                      L;X;K;J;y;I;H;G;F;  E;t;t;t;D;t;C;B;A;;;;;:;              ",
"                                    9;8;7;6;5;4;3;2;1;0;z:t;t;t;y:x:t;t;w:v:u:t:s:              ",
"                                    r:q:p:o:n:m:l:k:j:i:h:t;t;t;g:t;g:t;t;f:e:d:d:c:            ",
"                                  b:a:Z:Y:X:W:V:U:T:S:R:t;t;t;x:y:Q:D;Q:t;t;P:O:N:M:L:          ",
"                                  K:J:I:H:G:F:E:D:C:B:A:e;t;;:::9:8:7:8:7:t;t;6:5:4:3:2:        ",
"                                1:0:z9y9x9w9v9u9t9s9r9q9p9o9n9m9l9k9x:y:x:t;t;j9i9h9g9g9f9      ",
"                                KAe9d9c9b9a9Z9Y9X9W9V9U9T9S9A:R9t;Q9t;P9t;x:t;t;O9N9M9L9K9      ",
"                                J9I9H9G9F9E9D9C9B9A9;9:999897969594939291909z8y8t;x8w8v8u8t8    ",
"                              s8r8q8p8o8n8m8l8k8j8i8h8g8f8e8d8c8b8a8Z8Y8X8W8V8U8T8t;S8R8Q8Q8P8  ",
"                              O8N8M8L8K8J8I8H8G8F8E8D8C8B8A8;8:8988878685848382818t;e;08z7y7x7  ",
"                            w7v7u7t7s7r7q7p7o7n7m7l7k7j7i7h7g7f7e7d7c7b7a7Z7Y7X7W7V7t;U7T7S7    ",
"                            R7Q7P7O7N7M7L7K7J7I7H7G7F7E7D7C7B7A7;7:79787776757584737y:271707    ",
"                          z6y6x6w6v6u6t6s6r6q6p6I7o6n6m6l6k6j6i6h6g6f6e6d7c7d6c6b6a6Z6Y6X6      ",
"                        A;W6V6U6T6S6R6Q6P6O6N6M6L6K6J6I6H6G6F6E6D6B7C6B6A6;6:69678867666        ",
"                  b;5646y:36jA261606z5y5x5w5v5u5t5s5r5q5p5o5n5m5l5k5j5i5h5g5f5d7e5d5c5b5        ",
"            1Aa5Z5Y5t;t;t;X5jAjAjAW5V5U5T5S5H6R5Q5P5O5N5M5L5K5J5I5H5G5F5E5D5C5B5A5;5:5          ",
"      AA9585Y5t;t;t;t;t;t;75jAjAjAjA65554535251505z4y4x4w4v4u4t4s4r4q4p4o4n4m4l4k4j4            ",
"  i4h4g4f4e4t;t;t;t;y:Q:x:d4c4jAjA65b4a4Z4Y4F6H6R5X4O5W4V4U4T4S4L5R4Q4P4O4N4M4L4K4              ",
"  J4AAI4H4f4G4t;y:Q:Q:t;t;F4E4D4C4B4A4;4:4B794q4847464544434241404z3y3x3w3v3u3t307              ",
"    s3r3q3p3o3n3t;t;7:x:Q:m3l3k3j3i3h3g3f3A7e3d3c3b3a3Z3Y3X3W3V3U3T3S3v3v3R3Q3P3                ",
"      O3N3M3o3L3K3y:D;t;D;J3k3I3H3G3F3E3f5h5D3C3B315A3;3:393837363534333231303                  ",
"      z2y2x2w2v2u2t;y:x:7:t2s2r2q2a6p2o2n2m2l2k2j2i2h233g2f2e2d2c2b2V3a2Z2Y2X2                  ",
"        W2V2U2T2S2R2t;y:x:Q2P2O2N2M2L2K2J2I2H2G2N4l7F2E2T3D2C2B2A2;2:2928272                    ",
"          62a;52423222t;t;Q:Q:8:t;t;1202z1y1x1w1v1u1m7t133g2s1d2r1q1p1o1n1                      ",
"            m1l1k1j1j1i1t;t;t;Q:Q:h1g1t;f1e1d1c1b1N4P4a1Z1T3V3Y1X1W1V1U1                        ",
"            T1S1R1Q1P1O1N1t;Q:y:t;7:M112L1K3U9K1J1I1H1m7G13363F1E1D1C107                        ",
"              B1A1e:;1:191t;t;Q:x:D;t;t;t;p98171n3b1N4H761514131211101                          ",
"                z0y0x0w0v0u0t;t;t;t;t;t;t;t0K3U9s0r0q0p0o0n0m0l0k0                              ",
"                  j0d:i0h0h0g0t;t;t;t;t;t;89f0e0d0c0b0a0Z0Y0X2                                  ",
"                    X0W0V0U0T0K3t;t;t;S0R0Q0P0O0a0Z0Y0X2                                        ",
"                    N0M0L0K0J0I0S0H0G0Q8F0E0D0C0B0                                              ",
"                      A0;0h9M9:0v89080D070B0                                                    ",
"                        60504030D070B0                                                          ",
"                          201000                                                                ",
"                                                                                                ",
"                                                                                                ",
"                                                                                                "};
