/* XPM */
static char *image[] = {
"48 48 704 2",
"   c None",
"00 c #3f0900",
"10 c #5b1800",
"20 c #752600",
"30 c #822a00",
"40 c #a13500",
"50 c #a53901",
"60 c #cf6005",
"70 c #e79419",
"80 c #ea9a1b",
"90 c #eaa824",
":0 c #ebad27",
";0 c #dea833",
"A0 c #d4a53d",
"B0 c #cd9b3a",
"C0 c #c08935",
"D0 c #b97f30",
"E0 c #954c15",
"F0 c #390801",
"G0 c #440900",
"H0 c #621900",
"I0 c #7d2800",
"J0 c #8a2d00",
"K0 c #ac3900",
"L0 c #b03d01",
"M0 c #e06906",
"N0 c #fba31c",
"O0 c #fea91e",
"P0 c #feb827",
"Q0 c #febe2b",
"R0 c #efb838",
"S0 c #e3b343",
"T0 c #d9a63f",
"U0 c #ca9038",
"V0 c #c28533",
"W0 c #9a4e16",
"X0 c #3a0800",
"Y0 c #733100",
"Z0 c #853e00",
"a0 c #a64800",
"b0 c #cc5400",
"c0 c #d15600",
"d0 c #e05b00",
"e0 c #e15d00",
"f0 c #f37502",
"g0 c #fd940a",
"h0 c #fe970b",
"i0 c #fea40f",
"j0 c #fea910",
"k0 c #f8ae15",
"l0 c #f4b21a",
"m0 c #f0b82e",
"n0 c #ebc350",
"o0 c #e8c052",
"p0 c #ddb65a",
"q0 c #a65600",
"r0 c #440901",
"s0 c #460900",
"t0 c #884000",
"u0 c #a05300",
"v0 c #c75e00",
"w0 c #f66c00",
"x0 c #f86d00",
"y0 c #fe6f00",
"z0 c #fe7000",
"01 c #fe7d00",
"11 c #fe8b00",
"21 c #fe9900",
"31 c #fea902",
"41 c #feb203",
"51 c #fec224",
"61 c #fee05e",
"71 c #fee163",
"81 c #fee97b",
"91 c #b26200",
":1 c #773000",
";1 c #873b00",
"A1 c #b15000",
"B1 c #e16700",
"C1 c #e86b00",
"D1 c #fb7500",
"E1 c #fb7600",
"F1 c #fe8400",
"G1 c #fe9200",
"H1 c #fe9400",
"I1 c #fea500",
"J1 c #feb30f",
"K1 c #fec01b",
"L1 c #fecd3d",
"M1 c #fee678",
"N1 c #fae075",
"O1 c #ebc866",
"P1 c #a54e00",
"Q1 c #5b1600",
"R1 c #641900",
"S1 c #963e00",
"T1 c #c86200",
"U1 c #d56900",
"V1 c #f97c00",
"W1 c #f97d00",
"X1 c #fea900",
"Y1 c #fec11e",
"Z1 c #fed137",
"a1 c #fedb5a",
"b1 c #feee97",
"c1 c #f6e08a",
"d1 c #d3a04c",
"e1 c #8b2300",
"f1 c #2b3a52",
"g1 c #492b2a",
"h1 c #53261d",
"i1 c #87420f",
"j1 c #be5f00",
"k1 c #ce6800",
"l1 c #fa8000",
"m1 c #fa8100",
"n1 c #fe9100",
"o1 c #fea000",
"p1 c #fea200",
"q1 c #feb200",
"r1 c #fec628",
"s1 c #fed74a",
"t1 c #fedf68",
"u1 c #feef9e",
"v1 c #f2dd8e",
"w1 c #bf8e42",
"x1 c #654345",
"y1 c #0b5d9b",
"z1 c #206397",
"02 c #256497",
"12 c #2a4e72",
"22 c #2d415d",
"32 c #634a33",
"42 c #fe8d00",
"52 c #fe9e00",
"62 c #feac00",
"72 c #feba00",
"82 c #fed544",
"92 c #fee87c",
":2 c #feec90",
";2 c #fef3b3",
"A2 c #e9d89a",
"B2 c #8e6329",
"C2 c #2b73ae",
"D2 c #256fab",
"E2 c #0b5f9f",
"F2 c #11609e",
"G2 c #27669a",
"H2 c #2c689a",
"I2 c #305274",
"J2 c #33455f",
"K2 c #664d34",
"L2 c #a45600",
"M2 c #bc6500",
"N2 c #fe8e00",
"O2 c #fe8f00",
"P2 c #fe9f00",
"Q2 c #fead00",
"R2 c #feaf00",
"S2 c #febb00",
"T2 c #fec000",
"U2 c #fed545",
"V2 c #fee87e",
"W2 c #feec92",
"X2 c #fef3b5",
"Y2 c #ead99b",
"Z2 c #91652a",
"a2 c #367ab2",
"b2 c #3579b1",
"c2 c #3378b1",
"d2 c #2d74ae",
"e2 c #1162a2",
"f2 c #4882b9",
"g2 c #6b92b9",
"h2 c #7396ba",
"i2 c #737d90",
"j2 c #736f79",
"k2 c #8a6442",
"l2 c #a75800",
"m2 c #be6a00",
"n2 c #fe9c00",
"o2 c #fe9d00",
"p2 c #feae00",
"q2 c #fecc00",
"r2 c #fee14e",
"s2 c #fef090",
"t2 c #fef2a7",
"u2 c #fef7d0",
"v2 c #efe0b3",
"w2 c #af7b35",
"x2 c #a6c1dc",
"y2 c #a7c3de",
"z2 c #a9c5e0",
"03 c #a8c3de",
"13 c #a5c1dc",
"23 c #a8c4df",
"33 c #aac6e1",
"43 c #9cbcdc",
"53 c #84abd5",
"63 c #79a4d0",
"73 c #4985bd",
"83 c #4d85be",
"93 c #85a5c4",
":3 c #92acc6",
";3 c #9c99a1",
"A3 c #a28f8c",
"B3 c #a6784c",
"C3 c #ab5d00",
"D3 c #bf7100",
"E3 c #f7a700",
"F3 c #f7a900",
"G3 c #febd00",
"H3 c #fecd00",
"I3 c #fedb00",
"J3 c #fee000",
"K3 c #feec61",
"L3 c #fef7b2",
"M3 c #fef8c5",
"N3 c #fefbe8",
"O3 c #f3e6c8",
"P3 c #c4883c",
"Q3 c #f2f4f7",
"R3 c #edf0f2",
"S3 c #f1f3f6",
"T3 c #f6f8fb",
"U3 c #f1f4f6",
"V3 c #eceff1",
"W3 c #f4f6f9",
"X3 c #f7f9fc",
"Y3 c #a3c1df",
"Z3 c #93b6d9",
"a3 c #4e87c0",
"b3 c #4e86bf",
"c3 c #88a7c6",
"d3 c #95afc8",
"e3 c #a09da3",
"f3 c #a7938e",
"g3 c #a97b4d",
"h3 c #ac5e00",
"i3 c #c07200",
"j3 c #f7a800",
"k3 c #f7aa00",
"l3 c #febf00",
"m3 c #fecf00",
"n3 c #fed100",
"o3 c #fedd00",
"p3 c #fee200",
"q3 c #feee63",
"r3 c #fef8b6",
"s3 c #fef9c9",
"t3 c #fefceb",
"u3 c #f4e7cb",
"v3 c #c78a3d",
"w3 c #dfe9f3",
"x3 c #a7c4e0",
"y3 c #97b9da",
"z3 c #4f88c1",
"04 c #4c84bf",
"14 c #8cabcd",
"24 c #9ab4d0",
"34 c #acabb2",
"44 c #b7a6a2",
"54 c #ae7e58",
"64 c #a34f00",
"74 c #b86800",
"84 c #f0ac00",
"94 c #f1ae00",
":4 c #fbc800",
";4 c #f2d100",
"A4 c #f2d200",
"B4 c #f4e00a",
"C4 c #f5e60e",
"D4 c #f9f285",
"E4 c #fefce9",
"F4 c #fcf8df",
"G4 c #f9f1ce",
"H4 c #eedbb5",
"I4 c #c07b49",
"J4 c #95b7da",
"K4 c #4c86c0",
"L4 c #4b84bf",
"M4 c #8dadd0",
"N4 c #9cb7d4",
"O4 c #b1b1b9",
"P4 c #bdaeaa",
"Q4 c #af805d",
"R4 c #a04a00",
"S4 c #b56500",
"T4 c #eeae00",
"U4 c #efb000",
"V4 c #fbcc00",
"W4 c #efd200",
"X4 c #eed300",
"Y4 c #f0e20e",
"Z4 c #f2e813",
"a4 c #f8f492",
"b4 c #fefefd",
"c4 c #fbf7e7",
"d4 c #f8edc3",
"e4 c #edd7ad",
"f4 c #be764e",
"g4 c #dee8f3",
"h4 c #a5c2e0",
"i4 c #94b7da",
"j4 c #4b85c0",
"k4 c #8eb0d3",
"l4 c #9ebad8",
"m4 c #c2c8d1",
"n4 c #d7d0ce",
"o4 c #be9a84",
"p4 c #a0592b",
"q4 c #aa651f",
"r4 c #c78400",
"s4 c #c48300",
"t4 c #ac7e00",
"u4 c #a37901",
"v4 c #a27901",
"w4 c #aa880c",
"x4 c #ad8e10",
"y4 c #b89f61",
"z4 c #c1aea4",
"05 c #c8a992",
"15 c #d5a272",
"25 c #d5a378",
"35 c #d7ab94",
"45 c #a4c1df",
"55 c #93b5d9",
"65 c #4883bf",
"75 c #90b3d6",
"85 c #a1bedc",
"95 c #d1dbe6",
":5 c #caafa5",
";5 c #a0664f",
"A5 c #a26439",
"B5 c #a86100",
"C5 c #a25e00",
"D5 c #6a3d00",
"E5 c #633001",
"F5 c #632f01",
"G5 c #703e0a",
"H5 c #75440e",
"I5 c #825a38",
"J5 c #8e6c5b",
"K5 c #9d694a",
"L5 c #b8652e",
"M5 c #c1794b",
"N5 c #ecd7ce",
"O5 c #dde8f3",
"P5 c #a3c0df",
"Q5 c #92b4d9",
"R5 c #4682bf",
"S5 c #8aadd1",
"T5 c #9ab7d6",
"U5 c #c9d4df",
"V5 c #cdbcb5",
"W5 c #b08b7c",
"X5 c #aa8063",
"Y5 c #9a6220",
"Z5 c #955e1d",
"a5 c #663603",
"b5 c #7d4404",
"c5 c #804604",
"d5 c #955908",
"e5 c #9d6109",
"f5 c #8f5e26",
"g5 c #845b3f",
"h5 c #9a6b4c",
"i5 c #c18763",
"j5 c #c79577",
"k5 c #e5d8d2",
"l5 c #d1dce7",
"m5 c #9bb9d8",
"n5 c #8baed3",
"o5 c #4481be",
"p5 c #bdc8d3",
"q5 c #d8d8d8",
"r5 c #d2d2d2",
"s5 c #cccccc",
"t5 c #b7afac",
"u5 c #826358",
"v5 c #7f5e50",
"w5 c #602b07",
"x5 c #ab6a08",
"y5 c #a66507",
"z5 c #733d0d",
"06 c #956e4e",
"16 c #d2c4bf",
"26 c #d3c8c4",
"36 c #bfcad5",
"46 c #8eadcc",
"56 c #80a4c9",
"66 c #427fbe",
"76 c #c2ced9",
"86 c #c0b9b7",
"96 c #8f766d",
":6 c #8b7065",
";6 c #653718",
"A6 c #a26209",
"B6 c #a96707",
"C6 c #c17a06",
"D6 c #ca8205",
"E6 c #a56b1d",
"F6 c #865831",
"G6 c #a38267",
"H6 c #d6cbc6",
"I6 c #d8cfcb",
"J6 c #c4cfda",
"K6 c #91b0cf",
"L6 c #82a7cb",
"M6 c #417ebd",
"N6 c #c4c2c2",
"O6 c #7d6c67",
"P6 c #7f460b",
"Q6 c #804202",
"R6 c #613216",
"S6 c #562c1d",
"T6 c #9e8880",
"U6 c #dbd5d3",
"V6 c #e0dcdb",
"W6 c #f3f3f3",
"X6 c #dbe7f3",
"Y6 c #9ebdde",
"Z6 c #8cb1d8",
"a6 c #3e7cbd",
"b6 c #c0c0c0",
"c6 c #b9b7b6",
"d6 c #725f58",
"e6 c #965a0d",
"f6 c #9a5a05",
"g6 c #82480c",
"h6 c #7a410e",
"i6 c #b2977f",
"j6 c #e2dfde",
"k6 c #e4e2e1",
"l6 c #dbe6f3",
"m6 c #9cbcde",
"n6 c #8aafd7",
"o6 c #3a79bc",
"p6 c #bababa",
"q6 c #b2afad",
"r6 c #654331",
"s6 c #a7680b",
"t6 c #ae6c07",
"u6 c #b06b04",
"v6 c #b16b03",
"w6 c #b7905e",
"x6 c #bcafaa",
"y6 c #cbc3bf",
"z6 c #88add6",
"07 c #3676bb",
"17 c #623d28",
"27 c #bb7302",
"37 c #be7500",
"47 c #b88f57",
"57 c #b4a59f",
"67 c #c6bcb8",
"77 c #f2f2f2",
"87 c #f8f8f8",
"97 c #dae5f2",
":7 c #9abadd",
";7 c #87add6",
"A7 c #3576bb",
"B7 c #cfcfcf",
"C7 c #afafaf",
"D7 c #a7a3a1",
"E7 c #5b3016",
"F7 c #cc8202",
"G7 c #d68900",
"H7 c #b68744",
"I7 c #9c867c",
"J7 c #b3a59e",
"K7 c #e5e5e5",
"L7 c #cbd6e3",
"M7 c #90b0d3",
"N7 c #7fa5ce",
"O7 c #3273ba",
"P7 c #c7c7c7",
"Q7 c #aaaaaa",
"R7 c #a29e9b",
"S7 c #58280b",
"T7 c #aa6908",
"U7 c #d68b02",
"V7 c #e49500",
"W7 c #8f7569",
"X7 c #a89890",
"Y7 c #d7d7d7",
"Z7 c #c2cedb",
"a7 c #8aabce",
"b7 c #7aa0ca",
"c7 c #3172ba",
"d7 c #c9c9c9",
"e7 c #acacac",
"f7 c #a4a09e",
"g7 c #5c2f13",
"h7 c #ab6a09",
"i7 c #d38802",
"j7 c #df9100",
"k7 c #b58339",
"l7 c #927769",
"m7 c #aa9990",
"n7 c #88aacd",
"o7 c #789fc9",
"p7 c #2f70b9",
"q7 c #dcdcdc",
"r7 c #cbcbcb",
"s7 c #b0b0b0",
"t7 c #a8a5a2",
"u7 c #61371d",
"v7 c #ab6b0a",
"w7 c #d08402",
"x7 c #db8c00",
"y7 c #b6823a",
"z7 c #977a6a",
"08 c #ac9a90",
"18 c #d5d5d5",
"28 c #e1e1e1",
"38 c #e2e2e2",
"48 c #c1cdda",
"58 c #87a9cd",
"68 c #769ec9",
"78 c #2d6fb9",
"88 c #b9b9b9",
"98 c #b1adab",
":8 c #623b24",
";8 c #ab6b0b",
"A8 c #c87d02",
"B8 c #d08200",
"C8 c #b88744",
"D8 c #a58c7d",
"E8 c #b6a79d",
"F8 c #d9d9d9",
"G8 c #e8e8e8",
"H8 c #d6d6d6",
"I8 c #c6d2e0",
"J8 c #8aacd1",
"K8 c #79a0cc",
"L8 c #2c6eb8",
"M8 c #d3d3d3",
"N8 c #c9c6c4",
"O8 c #674637",
"P8 c #ac6c0c",
"Q8 c #b37008",
"R8 c #b36b03",
"S8 c #b36a01",
"T8 c #c09661",
"U8 c #cbbcb2",
"V8 c #d2c8c2",
"W8 c #efefef",
"X8 c #d8e4f2",
"Y8 c #94b6dc",
"Z8 c #80a8d5",
"a8 c #fcfcfc",
"b8 c #d4d4d4",
"c8 c #cac7c6",
"d8 c #6d4e40",
"e8 c #a7680c",
"f8 c #ad6b07",
"g8 c #ae6906",
"h8 c #af6905",
"i8 c #c09866",
"j8 c #cec0b7",
"k8 c #d3cbc5",
"l8 c #e4e4e4",
"m8 c #dfdfdf",
"n8 c #f6f6f6",
"o8 c #d8e4f1",
"p8 c #94b5db",
"q8 c #80a7d4",
"r8 c #f7f7f7",
"s8 c #e1e0e0",
"t8 c #ab9f9a",
"u8 c #7a4110",
"v8 c #753802",
"w8 c #875323",
"x8 c #8e5d30",
"y8 c #c2ac97",
"z8 c #e7e7e7",
"09 c #f1f1f1",
"19 c #e3e3e3",
"29 c #eeeeee",
"39 c #dedede",
"49 c #dddddd",
"59 c #d7e3f1",
"69 c #92b4db",
"79 c #7ea6d4",
"89 c #2469b7",
"99 c #fefefe",
":9 c #f9f9f9",
";9 c #ececec",
"A9 c #e9e9e9",
"B9 c #d5d4d4",
"C9 c #efe9e6",
"D9 c #f2ece8",
"E9 c #f3eeea",
"F9 c #f4f0ec",
"G9 c #f0eeec",
"H9 c #fafafa",
"I9 c #ebebeb",
"J9 c #fbfbfb",
"K9 c #f5f5f5",
"L9 c #e6e6e6",
"M9 c #f0f0f0",
"N9 c #e0e0e0",
"O9 c #eaeaea",
"P9 c #fdfdfd",
"Q9 c #ededed",
"R9 c #dbdbdb",
"S9 c #dadada",
"T9 c #f4f4f4",
"U9 c #ffffff",
"V9 c #d6e3f1",
"W9 c #8fb2db",
"X9 c #7ba4d4",
"Y9 c #618fd0",
"Z9 c #5c8acb",
"a9 c #5f8dce",
"b9 c #5b89c9",
"c9 c #5d8bcc",
"d9 c #6290d1",
"e9 c #5e8ccd",
"f9 c #5987c8",
"g9 c #608ecf",
"h9 c #6391d2",
"i9 c #5989cf",
"j9 c #477dcb",
"k9 c #3f78c7",
"l9 c #1d64b5",
"m9 c #2968c2",
"n9 c #2a68c3",
"o9 c #2c69c6",
"p9 c #2968c3",
"q9 c #1c63b5",
"r9 c #2268b6",
"s9 c #6692d4",
"t9 c #759cdb",
"u9 c #81a5dc",
"v9 c #89abde",
"w9 c #5f8dd4",
"x9 c #4378ce",
"y9 c #7ba0db",
"z9 c #799eda",
"0: c #6692d6",
"1: c #336dca",
"2: c #2e69c9",
"3: c #336cc9",
"4: c #356eca",
"5: c #366fcc",
"6: c #326dc7",
"7: c #1e64b5",
"8: c #286cb8",
"9: c #99b6e3",
":: c #cad8f2",
";: c #5886d8",
"A: c #bfd0f0",
"B: c #bbcdef",
"C: c #99b5e7",
"D: c #3b71d1",
"E: c #3f74d2",
"F: c #3971cd",
"G: c #2066b6",
"H: c #2e71b8",
"I: c #9bb8e3",
"J: c #b4c8ed",
"K: c #cbd9f2",
"L: c #5b87d8",
"M: c #c8d6f2",
"N: c #c4d3f1",
"O: c #a2bbe9",
"P: c #4d7ed5",
"Q: c #4578d3",
"R: c #5382d5",
"S: c #5886d7",
"T: c #4f81d1",
"U: c #296db7",
"V: c #a0bde4",
"W: c #b8ccee",
"X: c #cddaf3",
"Y: c #8dace4",
"Z: c #326acf",
"a: c #5f8bd9",
"b: c #d9e3f6",
"c: c #d5e0f5",
"d: c #b2c7ed",
"e: c #6f96dd",
"f: c #6891dc",
"g: c #7b9fe0",
"h: c #83a5e2",
"i: c #759dda",
"j: c #8eb0db",
"k: c #9ebbe2",
"l: c #aec7e5",
"m: c #7aa1d9",
"n: c #306bc9",
"o: c #5586d1",
"p: c #b8cee8",
"q: c #b5cce7",
"r: c #99b7e1",
"s: c #618fd4",
"t: c #5c8bd3",
"u: c #6c96d6",
"v: c #729bd8",
"w: c #6995d3",
"x: c #3879b9",
"y: c #2871ae",
"    y:y:y:y:y:y:y:y:y:y:y:y:y:y:y:y:y:y:y:y:y:y:y:y:y:y:y:y:y:y:y:y:y:y:y:y:y:y:y:y:y:y:y:y:    ",
"    y:y:y:y:y:y:y:y:y:y:y:y:y:y:y:y:y:y:y:y:y:y:y:y:y:y:y:y:y:y:y:y:y:y:y:y:y:y:y:y:y:y:y:y:    ",
"x:x:w:v:v:v:v:v:v:v:v:v:v:v:v:v:v:v:v:v:v:v:v:v:v:v:v:v:v:v:v:v:u:t:s:r:r:q:p:o:n:m:p:l:k:j:x:x:",
"x:x:i:h:h:h:h:h:h:h:h:h:h:h:h:h:h:h:h:h:h:h:h:h:h:h:h:h:h:h:h:h:g:f:e:d:d:c:b:a:Z:Y:b:X:W:V:x:x:",
"U:U:T:S:S:S:S:S:S:S:S:S:S:S:S:S:S:S:S:S:S:S:S:S:S:S:S:S:S:S:S:S:R:Q:P:O:O:N:M:L:Z:Y:b:K:J:I:H:H:",
"G:G:F:E:E:E:E:E:E:E:E:E:E:E:E:E:E:E:E:E:E:E:E:E:E:E:E:E:E:E:E:E:D:Z:D:C:C:B:A:;:Z:Y:b:::d:9:8:8:",
"7:7:6:5:4:4:4:4:4:4:4:4:4:4:4:4:4:4:4:4:4:4:4:4:4:4:4:4:4:4:4:4:3:2:1:0:0:z9y9x92:w9v9u9t9s9r9r9",
"q9q9p9o9n9m9m9m9m9m9m9m9m9m9m9m9m9m9m9m9m9m9m9m9m9m9m9m9m9m9m9m9m9m9m9m9m9m9m9m9m9m9m9n9o9p9q9q9",
"l9l9k9j9i9h9h9h9g9f9f9e9e9d9h9h9h9c9f9b9e9a9h9h9h9h9b9f9Z9e9g9h9h9h9d9f9f9c9e9Y9h9h9h9i9j9k9l9l9",
"G:G:X9W9V9U9U9U9T9S9R9Q9Q9P9U9U9U9O9S9N9Q9M9U9U9U9U9N9S9L9Q9K9U9U9U9J9S9S9I9Q9H9U9U9U9V9W9X9G:G:",
"G:G:X9W9V9U9U9U9T9S9R9Q9Q9P9U9U9U9O9S9N9Q9M9U9U9U9U9N9S9L9Q9G9F9E9D9C9B9B9A9;9:99999U9V9W9X9G:G:",
"8989796959U9U9U9K949392929P9U9U9U9;949192909U9U9U9U91949z829y8x8w8v8u8t8t8s8z8r89999U95969798989",
"8989796959U9U9U9K949392929P9U9U9U9;949192909U9U9U9U91949z829y8x8w8v8u8t8t8s8z8r89999U95969798989",
"8:8:q8p8o8U9U9U9n839m82929P9U9U9U9Q939192909U9U9U9U9l839k8j8i8h8g8f8e8d8d8c8b829:9a8U9o8p8q88:8:",
"8:8:Z8Y8X8U9U9U9n8m8N9W8W8P9U9U9U9Q9m8l8W809U9U9U9U9l8m8V8U8T8S8R8Q8P8O8O8N8M829:9a8U9X8Y8Z88:8:",
"L8L8K8J8I8A9A9A919H8H8m8m8G8A9A9A939H8F8m8N9A9A9A9A9F8H8E8D8C8B8A8Q8;8:8:89888b8m8l8A9I8J8K8L8L8",
"787868584838383849M8M8S9S928383838F8M818S9R93838383818M808z7y7x7w7Q8v7u7u7t7s7r7H8q7384858687878",
"p7p7o7n74838383839b8b8R9R928383838S9b8H8R9q738383838H8b8m7l7k7j7i7Q8h7g7g7f7e7d7b8R93848n7o7p7p7",
"c7c7b7a7Z7191919m81818q7q738191919R918Y7q74919191919Y718X7W7k7V7U7Q8T7S7S7R7Q7P7M8R919Z7a7b7c7c7",
"O7O7N7M7L7Q9Q9Q9G8R9R9l8l8;9Q9Q9Q919R939l8K7Q9Q9Q9Q939R9J7I7H7G7F7Q8h7E7E7D7C7B7q7K7Q9L7M7N7O7O7",
"A7A7;7:797U9U9U987L9z87777P9U9U9U909L9O977T9U9U9U9U9O9L96757473727Q8;81717988839;9n8U997:7;7A7A7",
"0707z6:797U9U9U987L9z87777P9U9U9U909L9O977T9U9U9U9U9O9L9y6x6w6v6u6t6s6r6r6q6p639;9n8U997:7z60707",
"o6o6n6m6l6U9U9U987G8A9T9T999U9U9U977G8;9T9n8U9U9U9U9;9G8k6j6i6h6g6f6e6d6d6c6b638W8r8U9l6m6n6o6o6",
"o6o6n6m6l6U9U9U987G8A9T9T999U9U9U977G8;9T9n8U9U9U9U9;9G8k6j6i6h6g6f6e6d6d6c6b638W8r8U9l6m6n6o6o6",
"a6a6Z6Y6X6U9U9U9:9O9I9K9K999U9U9U9W6O929K9n8U9U9U9U9Q9O9V6U6T6S6R6Q6P6O6O6N6r7G8T9H9U9X6Y6Z6a6a6",
"a6a6Z6Y6X6U9U9U9:9O9I9K9K999U9U9U9W6O929K9n8U9U9U9U9Q9O9V6U6T6S6R6Q6P6O6O6N6r7G8T9H9U9X6Y6Z6a6a6",
"M6M6L6K6J6282828m84949m8m8N9282828394949m8m828282828I6H6G6F6E6D6C6B6A6;6;6:69686M8F8m876K6L6M6M6",
"6666564636R9R9R9R9R9R9R9R9R9R9R9R9R9R9R9R9R9R9R9R9R9261606z5y5V7U7Q8x5w5w5v5u5t5s5r5q5p546566666",
"o5o5n5m5l509090929z8z8;9;9M9090909I9z8G8;9;90909k5k5j5i5h5g5f5e5d5c5b5a5a5Z5Y5X5W5V5K7U5T5S5o5o5",
"R5R5Q5P5O5U9U9U9H9W8W8r8r899U9U9U9n8W809r887U9U9N5N5M5L5K5J5I5H5G5F5E5D5D5C5B5A5;5:5Q9958575R5R5",
"65655545O5U9U9U9H9W8W8r8r899U9U9U9n8W809r887U9U93535251505z4y4x4w4v4u4t4t4s4r4q4p4o4n4m4l4k46565",
"j4j4i4h4g4U9U9U9J90909878799U9U9U9r809W687:9U9U9f4f4e4d4c4b4a4Z4Y4X4W4V4V4U4T4S4R4Q4P4O4N4M4L4L4",
"K4K4J4h4g4U9U9U9J90909878799U9U9U9r809W687:9U9U9I4I4H4G4F4E4D4C4B4A4;4:4:49484746454443424140404",
"z3z3y3x3w3U9U9U9a8T9T9:9:999U9U9U9:9T9K9:9H9U9U9v3v3u3t3s3r3q3p3o3n3m3l3l3k3j3i3h3g3f3e3d3c3b3b3",
"a3a3Z3Y3o8X3X3X3W3V3V3U3U3T3X3X3X3S3V3R3U3Q3X3X3P3P3O3N3M3L3K3J3I3m3H3G3G3F3E3D3C3B3A3;3:3938383",
"73736353433333332313130303z2333333y213x203033333w2w2v2u2t2s2r2n3q2l3G3p2p2o2n2m2l2k2j2i2h2g2f2f2",
"73736353433333332313130303z2333333y213x203033333w2w2v2u2t2s2r2n3q2l3G3p2p2o2n2m2l2k2j2i2h2g2f2f2",
"e2e2d2c2b2a2a2a2a2a2a2a2a2a2a2a2a2a2a2a2a2a2a2a2Z2Z2Y2X2W2V2U2T2S2R2Q2P2P2O2N2M2L2K2J2I2H2G2F2F2",
"E2E2D2C2C2C2C2C2C2C2C2C2C2C2C2C2C2C2C2C2C2C2C2C2B2B2A2;2:29282l372p2625252N242M2L232221202z1y1y1",
"                                            x1x1w1w1v1u1t1s1r1q1Q2p1o1n1n1m1l1k1j1i1h1g1f1      ",
"                                            e1e1d1d1c1b1a1Z1Y1p2X152n24242W1V1U1T1S1R1Q1        ",
"                                            P1P1O1O1N1M1L1K1J1I1o1H1G1F1F1E1D1C1B1A1;1:1        ",
"                                            919181817161514131522142110101z0y0x0w0v0u0t0s0r0    ",
"                                            q0q0p0p0o0n0m0l0k0j0i0h0g0f0f0e0d0c0b0a0Z0Y0X0      ",
"                                                W0W0V0U0T0S0R0Q0P0O0N0M0M0L0K0J0I0H0G0F0        ",
"                                                E0E0D0C0B0A0;0:09080706060504030201000          ",
"                                                                                                ",
"                                                                                                "};
