/* XPM */
static char *image[] = {
"48 48 671 2",
"   c None",
"00 c #9919e5",
"10 c #aa00ed",
"20 c #982bc2",
"30 c #875698",
"40 c #994c7f",
"50 c #9925c2",
"60 c #8930bf",
"70 c #9a00fd",
"80 c #8c5f6c",
"90 c #467c4f",
":0 c #cc00cc",
";0 c #a725cc",
"A0 c #785f7f",
"B0 c #499933",
"C0 c #3d33f7",
"D0 c #2b33f0",
"E0 c #4f33ff",
"F0 c #4f33f7",
"G0 c #4f33f0",
"H0 c #2b33ff",
"I0 c #5933ff",
"J0 c #806483",
"K0 c #699240",
"L0 c #039933",
"M0 c #049934",
"N0 c #9234fb",
"O0 c #9233e7",
"P0 c #9033e7",
"Q0 c #9233cf",
"R0 c #9234d2",
"S0 c #9034fb",
"T0 c #8f33ff",
"U0 c #2238ff",
"V0 c #0a36ff",
"W0 c #3a3aff",
"X0 c #3d3bff",
"Y0 c #403dff",
"Z0 c #0d3aff",
"a0 c #4f36ff",
"b0 c #9233ff",
"c0 c #339933",
"d0 c #199933",
"e0 c #4c33e5",
"f0 c #9900da",
"g0 c #6f2aab",
"h0 c #5a2a8d",
"i0 c #6c1eae",
"j0 c #991eea",
"k0 c #5d5a72",
"l0 c #2e7952",
"m0 c #7b33ff",
"n0 c #6f33ff",
"o0 c #5a33e1",
"p0 c #5b48f0",
"q0 c #5d5dff",
"r0 c #5d48ff",
"s0 c #7248ff",
"t0 c #5852ff",
"u0 c #3f5dff",
"v0 c #8772ff",
"w0 c #7052ff",
"x0 c #5a33ff",
"y0 c #6f33e1",
"z0 c #573df0",
"01 c #3f48ff",
"11 c #ae84ea",
"21 c #c19df4",
"31 c #d5b7ff",
"41 c #ccaeff",
"51 c #a99aff",
"61 c #8787ff",
"71 c #006633",
"81 c #6633ff",
"91 c #cc66cc",
":1 c #b27fe5",
";1 c #6d2ca0",
"A1 c #4c4d58",
"B1 c #38605e",
"C1 c #257358",
"D1 c #0c8c33",
"E1 c #1f7933",
"F1 c #263f33",
"G1 c #39464c",
"H1 c #4c4d65",
"I1 c #9901cc",
"J1 c #9926f2",
"K1 c #8625cc",
"L1 c #7325a6",
"M1 c #2533ff",
"N1 c #5246ff",
"O1 c #8059ff",
"P1 c #c0a6ff",
"Q1 c #bfb2ff",
"R1 c #bfbfff",
"S1 c #bfb3ff",
"T1 c #d2b3ff",
"U1 c #d9a6ff",
"V1 c #e699ff",
"W1 c #b2a5ff",
"X1 c #b9b9ff",
"Y1 c #c0cdff",
"Z1 c #0c33ff",
"a1 c #525fff",
"b1 c #a58cf2",
"c1 c #b27ff8",
"d1 c #bf72ff",
"e1 c #bf8cff",
"f1 c #9900f9",
"g1 c #633596",
"h1 c #1c7d33",
"i1 c #059433",
"j1 c #058e33",
"k1 c #197c33",
"l1 c #2e6b33",
"m1 c #333833",
"n1 c #355133",
"o1 c #386b33",
"p1 c #8e0abc",
"q1 c #8f0ac2",
"r1 c #992ef9",
"s1 c #9319e5",
"t1 c #8e05d1",
"u1 c #0f38ff",
"v1 c #5654ff",
"w1 c #9e70ff",
"x1 c #f4c1ff",
"y1 c #e0c3ff",
"z1 c #ddc3fc",
"02 c #f4c1f9",
"12 c #dfb2ff",
"22 c #f99eff",
"32 c #a39eff",
"42 c #d1ceff",
"52 c #4f63ff",
"62 c #8961ff",
"72 c #937aff",
"82 c #9e94ff",
"92 c #9994ff",
":2 c #af7fff",
";2 c #d1ccff",
"A2 c #e8e5ff",
"B2 c #c694ff",
"C2 c #196633",
"D2 c #4c7f33",
"E2 c #663399",
"F2 c #6619e5",
"G2 c #997fe5",
"H2 c #9966cc",
"I2 c #6e2aad",
"J2 c #44558e",
"K2 c #277133",
"L2 c #1c7c33",
"M2 c #1c6033",
"N2 c #305a55",
"O2 c #445577",
"P2 c #4a7c33",
"Q2 c #4c7333",
"R2 c #4f6b33",
"S2 c #663e8d",
"T2 c #9917e8",
"U2 c #5517e2",
"V2 c #5a3bf0",
"W2 c #6060ff",
"X2 c #bd98ff",
"Y2 c #ccb5ff",
"Z2 c #b582ff",
"a2 c #8d7ff0",
"b2 c #997ce2",
"c2 c #a79bff",
"d2 c #b59eff",
"e2 c #e8ccff",
"f2 c #f3e5ff",
"g2 c #4441ff",
"h2 c #554fff",
"i2 c #4460ff",
"j2 c #5a57ff",
"k2 c #714fff",
"l2 c #af7cff",
"m2 c #afafff",
"n2 c #ffe2ff",
"o2 c #e8d9ff",
"p2 c #d1d1ff",
"q2 c #994fe8",
"r2 c #9900e5",
"s2 c #9900ff",
"t2 c #4c6633",
"u2 c #333333",
"v2 c #9901d4",
"w2 c #9900d6",
"x2 c #2d6b33",
"y2 c #287033",
"z2 c #247443",
"03 c #207953",
"13 c #159933",
"23 c #388e33",
"33 c #5b8333",
"43 c #833ed4",
"53 c #6538e4",
"63 c #9d8eff",
"73 c #c1c1ff",
"83 c #a384ff",
"93 c #7b70ff",
":3 c #483eff",
";3 c #7066ff",
"A3 c #998eff",
"B3 c #3e3eff",
"C3 c #6b57ff",
"D3 c #9970ff",
"E3 c #ada7ff",
"F3 c #c1b6ff",
"G3 c #cca3ff",
"H3 c #bd94ff",
"I3 c #ae86ff",
"J3 c #795bff",
"K3 c #4c65ff",
"L3 c #7983ff",
"M3 c #5e5eff",
"N3 c #3f53ff",
"O3 c #2048ff",
"P3 c #4833f4",
"Q3 c #6c33e2",
"R3 c #9900cc",
"S3 c #3a6d33",
"T3 c #2c6d33",
"U3 c #079233",
"V3 c #3a8e3d",
"W3 c #6d8b48",
"X3 c #8b33ff",
"Y3 c #663aff",
"Z3 c #996dff",
"a3 c #af95ff",
"b3 c #c599ff",
"c3 c #6d6dff",
"d3 c #6262ff",
"e3 c #848bff",
"f3 c #624cff",
"g3 c #a6a0ff",
"h3 c #b5afff",
"i3 c #c5beff",
"j3 c #a87cff",
"k3 c #845fff",
"l3 c #5f49ff",
"m3 c #8b5fff",
"n3 c #5a69ff",
"o3 c #a099ff",
"p3 c #d2a6ff",
"q3 c #c4aeff",
"r3 c #b7b7ff",
"s3 c #243aff",
"t3 c #1541ff",
"u3 c #663ae8",
"v3 c #8b33d2",
"w3 c #009933",
"x3 c #197f33",
"y3 c #336633",
"z3 c #664c7f",
"04 c #319933",
"14 c #3e8b33",
"24 c #4b7e33",
"34 c #72588b",
"44 c #9933e4",
"54 c #5959ff",
"64 c #8c8cff",
"74 c #8080ff",
"84 c #5858ff",
"94 c #684dff",
":4 c #3440ff",
";4 c #9d82ff",
"A4 c #a780ff",
"B4 c #6566ff",
"C4 c #1833ff",
"D4 c #7c64ff",
"E4 c #b17eff",
"F4 c #9973ff",
"G4 c #8268ff",
"H4 c #9d9dff",
"I4 c #5b68ff",
"J4 c #7e65ff",
"K4 c #b199ff",
"L4 c #8a72ff",
"M4 c #644bff",
"N4 c #669933",
"O4 c #7f6699",
"P4 c #7f66ff",
"Q4 c #9143bc",
"R4 c #614cff",
"S4 c #a26fff",
"T4 c #9d7fff",
"U4 c #9990ff",
"V4 c #996fff",
"W4 c #6a55ff",
"X4 c #3c3cff",
"Y4 c #1b45ff",
"Z4 c #273cff",
"a4 c #b187ff",
"b4 c #6a66aa",
"c4 c #244556",
"d4 c #991bd4",
"e4 c #7b51e9",
"f4 c #5d87ff",
"g4 c #3945ff",
"h4 c #2445ff",
"i4 c #4e45ff",
"j4 c #6a51ff",
"k4 c #875dff",
"l4 c #9772ff",
"m4 c #a887ff",
"n4 c #c390ff",
"o4 c #f6edff",
"p4 c #c7a9ff",
"q4 c #9933d2",
"r4 c #9933d4",
"s4 c #6650ff",
"t4 c #6a55fa",
"u4 c #3c44f6",
"v4 c #2a33ff",
"w4 c #0933ff",
"x4 c #192ee9",
"y4 c #2a2ad3",
"z4 c #a97fdc",
"05 c #615999",
"15 c #1a3356",
"25 c #9909d4",
"35 c #7644d8",
"45 c #547fdc",
"55 c #4444ff",
"65 c #6150ff",
"75 c #7f5dff",
"85 c #996eff",
"95 c #b287ff",
":5 c #aa77ff",
";5 c #bb8cff",
"A5 c #6699cc",
"B5 c #19197f",
"C5 c #4c1999",
"D5 c #000033",
"E5 c #7633ed",
"F5 c #4a33e6",
"G5 c #5733f2",
"H5 c #6433ff",
"I5 c #6733ff",
"J5 c #584bff",
"K5 c #4a64ff",
"L5 c #9980ff",
"M5 c #8c7ff2",
"N5 c #807ee6",
"O5 c #674dff",
"P5 c #4040ff",
"Q5 c #193396",
"R5 c #34268c",
"S5 c #4f1a83",
"T5 c #7440c0",
"U5 c #9967ff",
"V5 c #cd9cff",
"W5 c #8e5bc0",
"X5 c #4f1a82",
"Y5 c #2633ff",
"Z5 c #1a33ff",
"a5 c #997eff",
"b5 c #7465ff",
"c5 c #4f4dff",
"d5 c #b399ff",
"e5 c #b298ff",
"f5 c #b197ff",
"g5 c #e4b1ff",
"h5 c #d8beff",
"i5 c #d9bfff",
"j5 c #b380ff",
"k5 c #4c33ff",
"l5 c #003333",
"m5 c #4c3399",
"n5 c #9966e5",
"o5 c #cc99e5",
"p5 c #694aff",
"q5 c #4133ff",
"r5 c #4133f7",
"s5 c #2433fb",
"t5 c #0733ff",
"u5 c #838aff",
"v5 c #5b5eff",
"w5 c #1533ff",
"x5 c #2033ff",
"y5 c #2c33ff",
"z5 c #2b3aff",
"06 c #2b3dff",
"16 c #153aff",
"26 c #413aff",
"36 c #242091",
"46 c #070724",
"56 c #8333e2",
"66 c #8e33f0",
"76 c #c48af7",
"86 c #dabdfb",
"96 c #f0f0ff",
":6 c #a74fff",
";6 c #a06cfb",
"A6 c #998af7",
"B6 c #8a5fff",
"C6 c #8a74ff",
"D6 c #c492ff",
"E6 c #c4a7ff",
"F6 c #c4bdff",
"G6 c #dec0ff",
"H6 c #f0bdff",
"I6 c #ccc4ff",
"J6 c #cca0ff",
"K6 c #a77bff",
"L6 c #ab7fff",
"M6 c #845bff",
"N6 c #5647ff",
"O6 c #483dff",
"P6 c #333dff",
"Q6 c #8e8eff",
"R6 c #6b6bf9",
"S6 c #4848f4",
"T6 c #1f3dff",
"U6 c #2338ff",
"V6 c #2833ff",
"W6 c #1e33ff",
"X6 c #0a33ff",
"Y6 c #243dff",
"Z6 c #4848ff",
"a6 c #24247f",
"b6 c #a348ff",
"c6 c #ae5dff",
"d6 c #c184ff",
"e6 c #d5acf9",
"f6 c #ead5f4",
"g6 c #8433ff",
"h6 c #8e66ff",
"i6 c #c6a8ff",
"j6 c #c1b7ff",
"k6 c #dbbcff",
"l6 c #eab7ff",
"m6 c #ccc1ff",
"n6 c #ccafff",
"o6 c #7f7fe5",
"p6 c #9999cc",
"q6 c #4c4c7f",
"r6 c #000000",
"s6 c #9933ff",
"t6 c #9933e5",
"u6 c #4f4fff",
"v6 c #515dff",
"w6 c #8282ff",
"x6 c #8d8df3",
"y6 c #9999e8",
"z6 c #7668ff",
"07 c #546bff",
"17 c #4141ff",
"27 c #6b4fff",
"37 c #997dff",
"47 c #5a58ff",
"57 c #1c33ff",
"67 c #303ec5",
"77 c #001c8c",
"87 c #6133ff",
"97 c #9360f0",
":7 c #c68ee2",
";7 c #4533ff",
"A7 c #5333f3",
"B7 c #6133e8",
"C7 c #1733ff",
"D7 c #3c4aff",
"E7 c #6161ff",
"F7 c #a77fff",
"G7 c #b599ff",
"H7 c #b099ff",
"I7 c #a989ff",
"J7 c #4c4cff",
"K7 c #664cff",
"L7 c #6633e5",
"M7 c #9933cc",
"N7 c #9393ff",
"O7 c #967fff",
"P7 c #af82ff",
"Q7 c #c66bff",
"R7 c #996bff",
"S7 c #9982ff",
"T7 c #6b66ff",
"U7 c #827fff",
"V7 c #b660ff",
"W7 c #be90ff",
"X7 c #c6c1ff",
"Y7 c #3e38ff",
"Z7 c #2135ff",
"a7 c #0533ff",
"b7 c #5e49ff",
"c7 c #8960ff",
"d7 c #e9bcff",
"e7 c #c18efc",
"f7 c #9960f9",
"g7 c #1933ff",
"h7 c #3333ff",
"i7 c #898eff",
"j7 c #8b77ff",
"k7 c #8e60ff",
"l7 c #b296ff",
"m7 c #ccc6ff",
"n7 c #c6c6ff",
"o7 c #c898ff",
"p7 c #9f7fff",
"q7 c #cc72ff",
"r7 c #a572ff",
"s7 c #a57fff",
"t7 c #a58cff",
"u7 c #8a8aff",
"v7 c #9797ff",
"w7 c #a5a5ff",
"x7 c #b998ff",
"y7 c #9ba7ff",
"z7 c #4b4bff",
"08 c #253fff",
"18 c #4b3fff",
"28 c #6b58ff",
"38 c #8c72ff",
"48 c #e6b3ff",
"58 c #bf92ff",
"68 c #314bff",
"78 c #384bff",
"88 c #3f4bff",
"98 c #998cff",
":8 c #9972ff",
";8 c #ccb3ff",
"A8 c #d2abff",
"B8 c #d88aff",
"C8 c #cc7fff",
"D8 c #7f99ff",
"E8 c #4c66ff",
"F8 c #0033ff",
"G8 c #7f7fff",
"H8 c #6699ff",
"I8 c #a37fff",
"J8 c #b6a1ff",
"K8 c #c1abff",
"L8 c #ccb6ff",
"M8 c #cc9dff",
"N8 c #cca1ff",
"O8 c #f4f4ff",
"P8 c #e9e9ff",
"Q8 c #c3a5ff",
"R8 c #8e89ff",
"S8 c #7974ff",
"T8 c #596eff",
"U8 c #ac8eff",
"V8 c #bfb6ff",
"W8 c #9984ff",
"X8 c #997bff",
"Y8 c #ae7bff",
"Z8 c #a199ff",
"a8 c #b6b6ff",
"b8 c #c18eff",
"c8 c #b684ff",
"d8 c #c595ff",
"e8 c #fbf7ff",
"f8 c #fbf9ff",
"g8 c #fbfbff",
"h8 c #cfa0ff",
"i8 c #b7a0ff",
"j8 c #a0a0ff",
"k8 c #b07fff",
"l8 c #c899ff",
"m8 c #9997ff",
"n8 c #b498ff",
"o8 c #cf9cff",
"p8 c #9995ff",
"q8 c #c895ff",
"r8 c #c8c4ff",
"s8 c #b096ff",
"t8 c #9969ff",
"u8 c #cc9cff",
"v8 c #b481ff",
"w8 c #9c66ff",
"x8 c #fbccff",
"y8 c #fde5ff",
"z8 c #9c69ff",
"09 c #f0d4ff",
"19 c #e2e2ff",
"29 c #f0e2ff",
"39 c #e9dbff",
"49 c #e2d4ff",
"59 c #b08bff",
"69 c #ab92ff",
"79 c #a799ff",
"89 c #ab78ff",
"99 c #a78bff",
":9 c #a08bff",
";9 c #998bff",
"A9 c #b5b5ff",
"B9 c #c0a7ff",
"C9 c #9983ff",
"D9 c #b278ff",
"E9 c #beb0ff",
"F9 c #b292ff",
"G9 c #a774ff",
"H9 c #be8bff",
"I9 c #b286ff",
"J9 c #a782ff",
"K9 c #f0ccff",
"L9 c #f7e5ff",
"M9 c #a766ff",
"N9 c #6666ff",
"O9 c #997fff",
"P9 c #e5e5ff",
"Q9 c #a78aff",
"R9 c #8585ff",
"S9 c #a89eff",
"T9 c #b885ff",
"U9 c #a875ff",
"V9 c #cca5ff",
"W9 c #d2a5ff",
"X9 c #d5bcff",
"Y9 c #ac79ff",
"Z9 c #9985ff",
"a9 c #b285ff",
"b9 c #cc85ff",
"c9 c #b8a5ff",
"d9 c #c2aeff",
"e9 c #ccb8ff",
"f9 c #d8a5ff",
"g9 c #e1c8ff",
"h9 c #ebebff",
"i9 c #d5c5ff",
"j9 c #bfa0ff",
"k9 c #b2b2ff",
"l9 c #e5ccff",
"m9 c #b299ff",
"n9 c #cc99ff",
"o9 c #ffccff",
"p9 c #ffe5ff",
"q9 c #ccb2ff",
"r9 c #9968ff",
"s9 c #ca68ff",
"t9 c #cb9aff",
"u9 c #cccaff",
"v9 c #e3c9ff",
"w9 c #fbc8ff",
"x9 c #e5e4ff",
"y9 c #fffdff",
"z9 c #9a6aff",
"0: c #9a68ff",
"1: c #cc69ff",
"2: c #b369ff",
"3: c #9a69ff",
"4: c #cd69ff",
"5: c #b482ff",
"6: c #9c9cff",
"7: c #cd6bff",
"8: c #cb6bff",
"9: c #9976ff",
":: c #bc76ff",
";: c #cba8ff",
"A: c #eddbff",
"B: c #ffdbff",
"C: c #dbdbff",
"D: c #ddddff",
"E: c #dfdfff",
"F: c #b27fff",
"G: c #ffffff",
"H: c #ccccff",
"I: c #9999ff",
"J: c #ba77ff",
"K: c #bb88ff",
"L: c #cc9aff",
"M: c #dd9aff",
"N: c #bc9aff",
"O: c #b39aff",
"P: c #b266ff",
"Q: c #cc66ff",
"R: c #9966ff",
"                                                        R:R:Q:P:R:R:P:Q:                        ",
"                                                        O:N:M:L:N:N:K:J:                        ",
"                                                      I:H:G:G:G:G:G:H:I:I:I:                    ",
"                      Q:I:F:Q:R:P:Q:R:              Q:E:D:C:B:A:C:C:;:::9:9:                    ",
"                    8:7:6:5:4:3:2:1:0:z9          8:7:y9x9H:w9v9u9H:t9s9r9r9                    ",
"                  R:q9G:G:p9o9H:H:H:n9m9I:      R:q9G:o9l9H:R:F:n9H:k9I:I:I:                    ",
"                  j9i9h9h9g9f9e9d9c9b9a9Z9      Y9X9G:f9W9V9R:U9T9e9S9R9Z9Q9                    ",
"              Q:Q:G:P9H:H:m9R:n9F:R:Q:P:R:I:I:  n9l9G:R:P:Q:R:R:R:n9O9N9R:F:n9I:F:Q:            ",
"              M9M9G:L9K9J9I9H9G9F9E9M9D9H9I:C9R:n9B9A9;9:999H989R:796959493929193909n9          ",
"              z8z8G:y8x8w8v8u8t8s8r8z8F:q8p8O9t8o8n8p8I:m8p8l8k8R:j8i8h8g8f8e8g8g8g8q8d8        ",
"              n9n9G:P9H:Q:n9H:I:O9R:n9F:R:R:O9I:o9n9R:I:O9R:I:O9R:G:G:G:H:q9n9H:H:H:R:O9I:      ",
"              c8c8G:P9H:Q:b8a8I:O9R:Z8Q9Y8X8O9W8V8U8R:T8S8X8T8R8Q8P8O8G:N8M8n9L8K8J8Y8I8W8      ",
"              R:R:G:P9H:Q:F:I:I:O9R:H8I:n9I:O9R:H8G8R:F8E8I:F8D8G:H:P9G:Q:C8n9n9F:R:n9F:R:I:I:  ",
"                  B8A8H:;8F9:8:8O998887868:85848382818F808z7y7x7B8w7v7u7t7s7r7q7F:98r7p798z7z7  ",
"                  Q:o7n7m7l7R:k7j7i7h7g7F8f7e7d7c7b7h7a7Z7Y7X7W7V7I:U7T7I:S7R7Q7P7I:R7O7N7h7h7  ",
"                    I:I:n9F:R:h7g7F8h7g7F8M7L7h7F8g7h7h7K7R:R:J7F8I:O9R:I:I:I:I:I:I:I:G8N9h7h7  ",
"                    I7H7G7F7R:E7D7C7B7A7;7:797877767E75747372717C707z6R:y6x6w6S7S7S707v6u6B7B7  ",
"        n9n9R:F:n9R:F:n9I:O9R:I:N9h7M7t6s6G:n9s6r6q6I:F8E8I:h7h7h7F8J7R:p6o6N9R:R:R:F8g7h7M7M7  ",
"    R:n9n6m6l6k6m6j6i6n9I:O9R:I:h6g6f6e6d6c6b6s6r6a6Z6F8Y6Z6X6W6h7V6U6T6S6R6Q6T6P6O6V6N6M6      ",
"  L6K6J6q9I6H6G6I6F6E6D6u7C6B6A6;6:6968676s6665646362616061716z526y5x5w5h7v5u5t5s5r5q5p5R:      ",
"n9l9G:H:q9n9R:F:n9R:R:R:h7h7h7M7o5G:I:n5M7s6m5l5h7K7R:R:O9I:R:R:R:F8k5s6h7g7F8h7L7M7s6s6        ",
"j5i5G:H:h5g5f5e5d5c5b5a5Z5Y5h7X5W5V5U5T5X5S5R5Q5Z5P5O5N5M5L5a5a5a5K5J5I5H5G5F5H5E5M7s6          ",
"R:q9G:H:l9o9H:k9I:F8E8I:F8g7h7D5C5s6s6C5D5r6B5h7F8g7h7A5o6R:I:I:I:I:N9h7s6t6M7s6s6              ",
"R:q9G:N8;5:5N89585756555F8g7h74535251505z4y4x4w4v4g7w4u4t4R:I:C98585s4h7r4q4                    ",
"R:p4o4n4Y8R:m4l4k4k4j4i4h4g4i4f4e4d4c4b4a4v4g7w4h7Z4Y4X4W4V4U4T4S4R:R4v4r4Q4                    ",
"R:F:n9R:R:R:F8g7h7h7P4n9n9n9n9h7N9I:n9P4h7F8g7h7h7N9I:N9G8I:R:F:n9R:J7F8s6O4N4N4N4N4            ",
"M4L4K4L5J4M4Z5I4H4G4F4E4D4D4D4C4B4d5E4A4;4F8:494C484a57464I:R:s7K4L554Z5443424241404N4N4N4      ",
"h7N9I:I:N9h7h7I:G:n9F:R:h7h7h7F8N9n9R:n9o9F8J7R:F8J7R:I:I:I:R:O9I:I:N9h7M7z3y3y3x3w3N4N4N4      ",
"v3u317t3s3h7r3q3p3o3n316m3l3h7k3j3n9i3h3g3k3f326e3d326c3C9b3i3a3Z317Y3X3W3V3U3U3x3T3S3S3S3R3    ",
"M7Q3P3O3N3M3H:q9n9L3K3O3J3N6h7I3H3G3F3E3I:D3C3B3A3;3:39383n97363J3P3534333231303z2y2y2x2y3w2v2  ",
"  M7M7I:H:G:H:q9n9F8E8I:F8g7h7G:P9H:R:O9I:I:G8N9R:R:R:n9n9n9I:E8F8M7z3y3u2t2N4R3q6w3w3x3y3s2r2R3",
"  q2q2p2o2n2m2a3l2k2j2i2h2g2h7G:f2e2d2c2I:b2a2w6Z2G9R:Y2X2l2W2V2U2T2S2y3R2Q2P2O2N2M2L2K2y3J2I2R3",
"  R:R:G:p9o9I:O9R:Q:K7F8R:K7h7G:p9o9H:k9I:H2G2I:n9F:R:H:m9R:h7F2R3s2E2y3N4D2y3w3C2u2y3y3y3w3q6R3",
"  B2B2G:A2;2Q7:2928272629252a7G:42322212n702z1n7m7y1x1w1v1u1t1s1r1  q1p1o1n1m1l1k1j1i1h1y3l1g1f1",
"  e1e1G:P9H:d1c1b198O9:898a1Z1Y1X1W1V1U1;848T1S1R1Q1P1O1N1M1L1K1J1  I1R3H1G1F1y3E1D1C1B1H1A1;1s2",
"  R:R:G:P9H:I::191R:O9I:R:K7h7F8G8o9I:F:Q:R:R:R:I:E8F8h781s6w3q6R3R3R3  s2m571y3y3y3R3r2s2R3R3  ",
"      615141312111R:O9I:01z0y0x0w0v0u0t0s0r0r0r0q0p0o0n0m0  w3l0k0j0j0    i0h0g0g0g0R3f0        ",
"      h7P4n9o9q9I:R:O9I:F8e0M7s681h7F8g7h7h7h7h7h7L7M7s6s6  w3d0c0s6s6    R3R3s2s2s2R3R3        ",
"      b0a0Z0Y0X0W0V0U0W0T0S0    R0Q0T0P0Q0b0O0Q0b0N0          M0L0K0J0M7                        ",
"      s6I0H0G0F0E0D0C0E0s6        M7s6t6M7s6t6M7s6              w3B0A0;0                        ",
"        s6s6M7t6s6M7t6s6                                          w3z3:0                        ",
"                                                                  w39080:0                      ",
"                                                                  w3c0N4:0:0                    ",
"                                                                    M0L07070                    ",
"                                                                    w3w36050                    ",
"                                                                    w3w3N440:0                  ",
"                                                                        302010                  ",
"                                                                        M700s2                  "};
