/* XPM */
static char *image[] = {
"48 48 809 2",
"   c None",
"00 c #414153",
"10 c #5d6077",
"20 c #62452d",
"30 c #704419",
"40 c #67687f",
"50 c #c4c8dc",
"60 c #b79d8e",
"70 c #c79547",
"80 c #ecb23a",
"90 c #794b1c",
":0 c #9b9eb6",
";0 c #b39f95",
"A0 c #b38449",
"B0 c #f6e6ac",
"C0 c #ffea87",
"D0 c #daa037",
"E0 c #704619",
"F0 c #9e877b",
"G0 c #b67c33",
"H0 c #f5cf7c",
"I0 c #fdefba",
"J0 c #fffad1",
"K0 c #ffe784",
"L0 c #e3a734",
"M0 c #76491a",
"N0 c #b67522",
"O0 c #e79a1b",
"P0 c #f3ba4f",
"Q0 c #fae7ae",
"R0 c #fff7c8",
"S0 c #ffe68a",
"T0 c #e5a936",
"U0 c #794d1a",
"V0 c #8a591e",
"W0 c #dd8c15",
"X0 c #efa320",
"Y0 c #f2bb55",
"Z0 c #f5d07f",
"a0 c #faebb6",
"b0 c #fff9cb",
"c0 c #ffe47a",
"d0 c #de9e30",
"e0 c #6d4417",
"f0 c #81541d",
"g0 c #df8e15",
"h0 c #efa323",
"i0 c #fbe9b2",
"j0 c #ffdf7a",
"k0 c #dca031",
"l0 c #6f4617",
"m0 c #905e20",
"n0 c #de8e13",
"o0 c #eda11c",
"p0 c #f5d17f",
"q0 c #fbebb7",
"r0 c #fff8c5",
"s0 c #ffe07b",
"t0 c #e1a131",
"u0 c #694415",
"v0 c #915c18",
"w0 c #da870b",
"x0 c #eda01c",
"y0 c #f1b94f",
"z0 c #f5d180",
"01 c #fbecb8",
"11 c #fff9ca",
"21 c #ffe279",
"31 c #e2a12e",
"41 c #87571e",
"51 c #615c62",
"61 c #c4965f",
"71 c #dc8b0d",
"81 c #eda321",
"91 c #f1bc56",
":1 c #f6d487",
";1 c #fbedba",
"A1 c #fed769",
"B1 c #e3a22f",
"C1 c #9f8569",
"D1 c #50576b",
"E1 c #adbbe2",
"F1 c #d5a361",
"G1 c #d78404",
"H1 c #eea21f",
"I1 c #f1bc55",
"J1 c #f6d486",
"K1 c #fbeebd",
"L1 c #fff7c2",
"M1 c #ffe37a",
"N1 c #e3a02a",
"O1 c #bc9f83",
"P1 c #a3b4dc",
"Q1 c #6b7691",
"R1 c #9ba8cf",
"S1 c #eff2fa",
"T1 c #f6f2ec",
"U1 c #d7aa6c",
"V1 c #db8807",
"W1 c #eda221",
"X1 c #f1bb53",
"Y1 c #f6d385",
"Z1 c #fdf1be",
"a1 c #f9e7aa",
"b1 c #cf9c4d",
"c1 c #ebdbc7",
"d1 c #f1f4fb",
"e1 c #dee5f7",
"f1 c #b1bcda",
"g1 c #7985a3",
"h1 c #7884a8",
"i1 c #dee3f6",
"j1 c #f7faff",
"k1 c #f0ebe9",
"l1 c #d39846",
"m1 c #e08c05",
"n1 c #eea525",
"o1 c #f3c05d",
"p1 c #f2cb7a",
"q1 c #daa24a",
"r1 c #c0afa2",
"s1 c #eef2fd",
"t1 c #dbe3f6",
"u1 c #a7b3d8",
"v1 c #72789a",
"w1 c #484763",
"x1 c #545371",
"y1 c #5e5e7e",
"z1 c #636383",
"02 c #5d5d7b",
"12 c #565471",
"22 c #393649",
"32 c #626d8d",
"42 c #cad2ed",
"52 c #f5f7fe",
"62 c #f1ebe6",
"72 c #dba34f",
"82 c #e18d05",
"92 c #ea9f1f",
":2 c #d9a24e",
";2 c #d4c2b0",
"A2 c #cccedc",
"B2 c #ccccd7",
"C2 c #c8c8d4",
"D2 c #bebecb",
"E2 c #dbdbe2",
"F2 c #9896ab",
"G2 c #797996",
"H2 c #969cb2",
"I2 c #b3c7d4",
"J2 c #bfdae3",
"K2 c #c2e3e9",
"L2 c #bfe3e9",
"M2 c #b9dde8",
"N2 c #abcbdd",
"O2 c #a0b3cb",
"P2 c #888ba6",
"Q2 c #5a576f",
"R2 c #4b526b",
"S2 c #b8c2e2",
"T2 c #f6faff",
"U2 c #f1e7db",
"V2 c #e0a54e",
"W2 c #dd9932",
"X2 c #cec0b4",
"Y2 c #b7bcd3",
"Z2 c #d4d4dd",
"a2 c #aaabbc",
"b2 c #6a6b89",
"c2 c #8d92a8",
"d2 c #d0e2e8",
"e2 c #c9ffff",
"f2 c #c2faff",
"g2 c #baebfb",
"h2 c #a2bbd4",
"i2 c #878da9",
"j2 c #4a485a",
"k2 c #a2afdb",
"l2 c #f6f7fc",
"m2 c #f8fbff",
"n2 c #f8f3ee",
"o2 c #f8f0e6",
"p2 c #f2f1f3",
"q2 c #9d9db1",
"r2 c #a4a4b6",
"s2 c #b4b3c3",
"t2 c #71708e",
"u2 c #c4cdd7",
"v2 c #ccffff",
"w2 c #c5f9fe",
"x2 c #c3f9ff",
"y2 c #b9f3ff",
"z2 c #a9dbf6",
"03 c #9fa6c0",
"13 c #68657b",
"23 c #8793b9",
"33 c #e2e6f6",
"43 c #fafafd",
"53 c #f4f3f8",
"63 c #f8f8fa",
"73 c #f1f1f8",
"83 c #e9edf7",
"93 c #d3daec",
":3 c #c2c7dc",
";3 c #9c9cb0",
"A3 c #aeaebf",
"B3 c #6e6e8c",
"C3 c #c7cdd8",
"D3 c #faffff",
"E3 c #bef3fe",
"F3 c #b4edff",
"G3 c #a6d9f7",
"H3 c #9da6c1",
"I3 c #5b586a",
"J3 c #717ca3",
"K3 c #cfd6f0",
"L3 c #f3f2f7",
"M3 c #ecedf4",
"N3 c #eaebf3",
"O3 c #dde0ee",
"P3 c #c8cee4",
"Q3 c #b5bfdb",
"R3 c #a3afd3",
"S3 c #9da9d1",
"T3 c #a2afd3",
"U3 c #b9c2de",
"V3 c #c6cce1",
"W3 c #a7a7ba",
"X3 c #787793",
"Y3 c #c7cdd7",
"Z3 c #b1ebff",
"a3 c #a2d3f4",
"b3 c #a0a4bd",
"c3 c #656f93",
"d3 c #c5cde9",
"e3 c #b6bddc",
"f3 c #a5b0d4",
"g3 c #a3afd4",
"h3 c #b2bcdb",
"i3 c #c4cbe3",
"j3 c #d1d7e9",
"k3 c #e1e5f1",
"l3 c #eef0f7",
"m3 c #f9fafc",
"n3 c #9f9fb2",
"o3 c #9497ac",
"p3 c #fdffff",
"q3 c #d0ffff",
"r3 c #bff5fe",
"s3 c #aee5fc",
"t3 c #a6e3ff",
"u3 c #9ec5e8",
"v3 c #908fa4",
"w3 c #515a78",
"x3 c #a9b5e1",
"y3 c #f6f7fb",
"z3 c #eff0f6",
"04 c #929ecb",
"14 c #9ba7d0",
"24 c #c3cae3",
"34 c #fefeff",
"44 c #fffefe",
"54 c #f6f6f8",
"64 c #8988a1",
"74 c #d3dde4",
"84 c #f9ffff",
"94 c #fbffff",
":4 c #f7ffff",
";4 c #f2ffff",
"A4 c #c9fcff",
"B4 c #bff4fe",
"C4 c #b6ecfd",
"D4 c #ade4fb",
"E4 c #a6e0fa",
"F4 c #afe7fd",
"G4 c #9fd7fa",
"H4 c #adb4cb",
"I4 c #393f55",
"J4 c #a2aed4",
"K4 c #eef1f9",
"L4 c #bfc5e0",
"M4 c #cbcad6",
"N4 c #a4a8ba",
"O4 c #f1ffff",
"P4 c #f5ffff",
"Q4 c #f6ffff",
"R4 c #f4ffff",
"S4 c #e6ffff",
"T4 c #c7fbff",
"U4 c #b5ebfc",
"V4 c #ace4fb",
"W4 c #a2dbfa",
"X4 c #afe7fb",
"Y4 c #9fdcfc",
"Z4 c #a3c7ec",
"a4 c #878594",
"b4 c #8996c6",
"c4 c #e4e8f6",
"d4 c #fafafc",
"e4 c #ececf3",
"f4 c #a9b3d6",
"g4 c #d2d8ea",
"h4 c #fdfcfd",
"i4 c #a6a4b8",
"j4 c #bac6d2",
"k4 c #edffff",
"l4 c #f0ffff",
"m4 c #ecffff",
"n4 c #e8ffff",
"o4 c #cafbfe",
"p4 c #c4f6fe",
"q4 c #baf0fd",
"r4 c #ace5fb",
"s4 c #9fd9fa",
"t4 c #a5e0fb",
"u4 c #8fc7f6",
"v4 c #a7abbf",
"w4 c #707ba3",
"x4 c #d3d9ef",
"y4 c #dadceb",
"z4 c #96a2ce",
"05 c #eaecf5",
"15 c #faf9fc",
"25 c #8e8ea5",
"35 c #cadde4",
"45 c #e9ffff",
"55 c #e7ffff",
"65 c #d4feff",
"75 c #caf9fe",
"85 c #c3f4fd",
"95 c #bdf1fd",
":5 c #bff4fd",
";5 c #9ad5f9",
"A5 c #91ccf8",
"B5 c #b1bdd7",
"C5 c #5e688d",
"D5 c #bfc8eb",
"E5 c #e3e3ee",
"F5 c #eeedf5",
"G5 c #c1c6e0",
"H5 c #b4bcdb",
"I5 c #e7e7ee",
"J5 c #8a8aa2",
"K5 c #d3ebef",
"L5 c #e4ffff",
"M5 c #e1ffff",
"N5 c #e2ffff",
"O5 c #bef4fd",
"P5 c #a9e2fb",
"Q5 c #b6edfd",
"R5 c #aee6fb",
"S5 c #a8e1fb",
"T5 c #96d2fa",
"U5 c #b2c3e0",
"V5 c #58555c",
"W5 c #4b5271",
"X5 c #b0bae0",
"Y5 c #fbfcfd",
"Z5 c #e0e0ed",
"a5 c #ebeaf3",
"b5 c #a2acd3",
"c5 c #b9c1de",
"d5 c #dedee7",
"e5 c #8e8fa6",
"f5 c #d5f0f3",
"g5 c #dcffff",
"h5 c #c8fdff",
"i5 c #c2f7fe",
"j5 c #b2e9fc",
"k5 c #b0e6fc",
"l5 c #9bd6f9",
"m5 c #a1dcfa",
"n5 c #97d3fb",
"o5 c #b4c7e4",
"p5 c #5b585e",
"q5 c #95a2d0",
"r5 c #e9ecf7",
"s5 c #d7d9ea",
"t5 c #94a0cd",
"u5 c #e3e7f2",
"v5 c #faf9fb",
"w5 c #f5f5fa",
"x5 c #e4e3eb",
"y5 c #9393aa",
"z5 c #cfedf1",
"06 c #daffff",
"16 c #d9ffff",
"26 c #d7ffff",
"36 c #d5ffff",
"46 c #d6ffff",
"56 c #deffff",
"66 c #c4f8fe",
"76 c #cbf4fd",
"86 c #dbfafe",
"96 c #dafeff",
":6 c #b0e9fb",
";6 c #a8e2fb",
"A6 c #a0dbfa",
"B6 c #93d0f9",
"C6 c #b8cae6",
"D6 c #5d5a60",
"E6 c #8c98c8",
"F6 c #dfe4f4",
"G6 c #e1e1ee",
"H6 c #d1d5e8",
"I6 c #a8b1d6",
"J6 c #f9f9fc",
"K6 c #f1f1f6",
"L6 c #edecf3",
"M6 c #a09fb2",
"N6 c #c5e5ea",
"O6 c #d3ffff",
"P6 c #d9feff",
"Q6 c #c2f8fe",
"R6 c #d2f5fe",
"S6 c #fcffff",
"T6 c #efffff",
"U6 c #e0ffff",
"V6 c #d4ffff",
"W6 c #c5fafe",
"X6 c #a7e0fb",
"Y6 c #8bc8f7",
"Z6 c #c0cde6",
"a6 c #687194",
"b6 c #abb6de",
"c6 c #c6ceea",
"d6 c #edeff7",
"e6 c #e4e4ef",
"f6 c #f3f1f7",
"g6 c #aeb7d8",
"h6 c #b6bedd",
"i6 c #fefefe",
"j6 c #b8b5c5",
"k6 c #bad4de",
"l6 c #ceffff",
"m6 c #cdffff",
"n6 c #ccfeff",
"o6 c #c8fcff",
"p6 c #d2feff",
"q6 c #d1fbff",
"r6 c #b9f1fd",
"s6 c #bceffd",
"t6 c #ebfdff",
"u6 c #f8ffff",
"v6 c #ebffff",
"w6 c #dfffff",
"x6 c #99d6fa",
"y6 c #87c1f6",
"z6 c #bfc4d6",
"07 c #68739c",
"17 c #94a1ce",
"27 c #cbd2ef",
"37 c #f7f9ff",
"47 c #efeef5",
"57 c #e5e6f1",
"67 c #a0aad2",
"77 c #eaedf6",
"87 c #f3f3f9",
"97 c #d1cfdb",
":7 c #b9c5d2",
";7 c #cafeff",
"A7 c #cbfeff",
"B7 c #c6fbff",
"C7 c #c4f9fe",
"D7 c #caf9ff",
"E7 c #cefafe",
"F7 c #b2eafc",
"G7 c #c3f0fd",
"H7 c #eaffff",
"I7 c #e3ffff",
"J7 c #dbffff",
"K7 c #8dcdf9",
"L7 c #9ec8f4",
"M7 c #b9b7bf",
"N7 c #7d87ab",
"O7 c #a8b1d5",
"P7 c #c8cfe6",
"Q7 c #f4f6fa",
"R7 c #fffffe",
"S7 c #f7f7fa",
"T7 c #eeeef5",
"U7 c #d0d4e8",
"V7 c #9ea9d2",
"W7 c #f3f4f9",
"X7 c #b8b6c5",
"Y7 c #c3e5f0",
"Z7 c #c3faff",
"a7 c #c3f7fe",
"b7 c #bcf2fd",
"c7 c #bdf2fd",
"d7 c #b8effd",
"e7 c #baeffd",
"f7 c #ccfcff",
"g7 c #b8ebfc",
"h7 c #ddffff",
"i7 c #d8ffff",
"j7 c #d2ffff",
"k7 c #c6fafe",
"l7 c #b9effd",
"m7 c #9dd8fa",
"n7 c #8cc9f7",
"o7 c #ced9ed",
"p7 c #7986b5",
"q7 c #a5b0d7",
"r7 c #afb8d9",
"s7 c #f8f8fb",
"t7 c #f0eff5",
"u7 c #afb7d8",
"v7 c #c6cde4",
"w7 c #fdfdfd",
"x7 c #f0f1f7",
"y7 c #c5c3d0",
"z7 c #b5c1d1",
"08 c #b9f0ff",
"18 c #c0f6fe",
"28 c #b3e9fc",
"38 c #b1e8fc",
"48 c #abe4fb",
"58 c #bdf2fe",
"68 c #c0f4fd",
"78 c #c8f9fe",
"88 c #cfffff",
"98 c #ccfdff",
":8 c #c6faff",
";8 c #bbf1fd",
"A8 c #b0e7fb",
"B8 c #9fc8f2",
"C8 c #d4d2db",
"D8 c #626c93",
"E8 c #b1bbe0",
"F8 c #fcfcfd",
"G8 c #f7f8fb",
"H8 c #bec4de",
"I8 c #a0abd2",
"J8 c #d9dded",
"K8 c #fbfafd",
"L8 c #9ca7d0",
"M8 c #d8dded",
"N8 c #f6f5f9",
"O8 c #bebdca",
"P8 c #c1dbec",
"Q8 c #b0ebff",
"R8 c #bdf3fd",
"S8 c #a5defa",
"T8 c #a3ddfa",
"U8 c #bcf1fd",
"V8 c #b9effc",
"W8 c #b7edfd",
"X8 c #c0f5fe",
"Y8 c #bcf2fe",
"Z8 c #b7eefc",
"a8 c #afe7fc",
"b8 c #a6dffa",
"c8 c #94d2f9",
"d8 c #8cc2f5",
"e8 c #dee2f0",
"f8 c #404760",
"g8 c #a8b2da",
"h8 c #f4f5fa",
"i8 c #e7e6f0",
"j8 c #dfdfed",
"k8 c #bcc2dd",
"l8 c #a3add3",
"m8 c #b5bedc",
"n8 c #ccd2e7",
"o8 c #eceef6",
"p8 c #cfd4e8",
"q8 c #a7b1d6",
"r8 c #eeedf4",
"s8 c #efeff7",
"t8 c #dbdae4",
"u8 c #c0bfcc",
"v8 c #b7dcf2",
"w8 c #abe5fe",
"x8 c #b7effd",
"y8 c #b4ebfc",
"z8 c #abe3fb",
"09 c #a4ddfa",
"19 c #9ed8f9",
"29 c #b4eafc",
"39 c #b3eafc",
"49 c #b1e8fb",
"59 c #afe6fb",
"69 c #aae3fb",
"79 c #a4defa",
"89 c #94d3f9",
"99 c #87c2f6",
":9 c #cedef4",
";9 c #b6b2b5",
"A9 c #97a4d4",
"B9 c #eff1fa",
"C9 c #f2f2f8",
"D9 c #dfdfec",
"E9 c #e6e5f0",
"F9 c #eae9f1",
"G9 c #d6d8e9",
"H9 c #b5bcdb",
"I9 c #98a3ce",
"J9 c #b1bada",
"K9 c #e5e8f3",
"L9 c #c7cde4",
"M9 c #c0c8e2",
"N9 c #f9f8fb",
"O9 c #d8d8e2",
"P9 c #c7c5d0",
"Q9 c #b9d8ef",
"R9 c #9edbfc",
"S9 c #aae5fc",
"T9 c #b1e9fc",
"U9 c #b0e8fb",
"V9 c #ade5fb",
"W9 c #aae2fb",
"X9 c #a8e1fa",
"Y9 c #a7e0fa",
"Z9 c #a5dffa",
"a9 c #a2dcfa",
"b9 c #9ad7f9",
"c9 c #8bcbf9",
"d9 c #8cc1f4",
"e9 c #d3ddee",
"f9 c #bab8bf",
"g9 c #8a97c5",
"h9 c #e2e6f5",
"i9 c #e1e1ed",
"j9 c #e2e2ee",
"k9 c #e7e7f0",
"l9 c #eaeaf2",
"m9 c #eeeef4",
"n9 c #e1e2ef",
"o9 c #c9cee4",
"p9 c #b5bddc",
"q9 c #adb6d8",
"r9 c #b8c0de",
"s9 c #97a2ce",
"t9 c #e1e4f1",
"u9 c #e8e8f1",
"v9 c #dfdee7",
"w9 c #cfcfd9",
"x9 c #c1d0e2",
"y9 c #afd8f5",
"z9 c #98d4fb",
"0: c #96d4fa",
"1: c #9edafa",
"2: c #a2ddfa",
"3: c #9fdafa",
"4: c #9bd7f9",
"5: c #90d0f8",
"6: c #83c4f7",
"7: c #8fc6f7",
"8: c #b4d0ef",
"9: c #d5dbe8",
":: c #f3f1f3",
";: c #aab4d0",
"A: c #8996c5",
"B: c #a9b4db",
"C: c #e1e6f8",
"D: c #fcfdff",
"E: c #f4f4f8",
"F: c #e4e4f0",
"G: c #e5e5ef",
"H: c #f0f0f6",
"I: c #f1f0f6",
"J: c #d6d9ea",
"K: c #aab3d7",
"L: c #8b97c9",
"M: c #a9b3d7",
"N: c #ececf5",
"O: c #e7e7ef",
"P: c #d5d2db",
"Q: c #d5d4dc",
"R: c #ced9ea",
"S: c #b1d4f3",
"T: c #99cbf6",
"U: c #88c3f5",
"V: c #84c0f5",
"W: c #89c1f4",
"X: c #9bc7f4",
"Y: c #bad2f0",
"Z: c #dbdfea",
"a: c #e6e2e6",
"b: c #eeecf0",
"c: c #d8e0f5",
"d: c #5f6a86",
"e: c #5d6688",
"f: c #99a4ce",
"g: c #bec7e9",
"h: c #e1e6f6",
"i: c #fbfbfc",
"j: c #e9e9f2",
"k: c #f2f1f7",
"l: c #e3e5f1",
"m: c #aab4d7",
"n: c #afb9da",
"o: c #f7f8fa",
"p: c #e7e7f1",
"q: c #e9e9f1",
"r: c #eaeaf3",
"s: c #e3e3ec",
"t: c #e2dfe7",
"u: c #e3e0e7",
"v: c #dcdde6",
"w: c #d7dbe7",
"x: c #d9dde8",
"y: c #dfe2ea",
"z: c #edecef",
"0; c #f9f5f4",
"1; c #f9f7f7",
"2; c #f4f7ff",
"3; c #98a3c6",
"4; c #707aa2",
"5; c #b0b9da",
"6; c #dde2f5",
"7; c #f2f4fa",
"8; c #fffeff",
"9; c #f3f3f8",
":; c #efeff5",
";; c #ebebf3",
"A; c #eaebf4",
"B; c #9fa9d2",
"C; c #d9deee",
"D; c #f8f7fa",
"E; c #e5e5f0",
"F; c #e6e6f0",
"G; c #e6e6f1",
"H; c #e8e8f2",
"I; c #f4f3f7",
"J; c #faf8fa",
"K; c #fffdfc",
"L; c #fefdfd",
"M; c #f9fafe",
"N; c #f0f3fc",
"O; c #ecf0ff",
"P; c #dce2f6",
"Q; c #bfc5d9",
"R; c #a2abc8",
"S; c #7c85a3",
"T; c #6c7592",
"U; c #68739a",
"V; c #94a1cf",
"W; c #c5cdec",
"X; c #f4f6fd",
"Y; c #fdfdfe",
"Z; c #f3f3f7",
"a; c #ededf5",
"b; c #ededf4",
"c; c #efeff6",
"d; c #f5f5f9",
"e; c #e7e8f2",
"f; c #a1acd3",
"g; c #eff0f7",
"h; c #ececf4",
"i; c #edecf4",
"j; c #f5f4f8",
"k; c #fcfbfd",
"l; c #fbfdff",
"m; c #e6ebfa",
"n; c #cfd7f1",
"o; c #b3bde1",
"p; c #8f9bc3",
"q; c #808cb1",
"r; c #586286",
"s; c #848fb4",
"t; c #c2cbe9",
"u; c #e3e7f7",
"v; c #f9fafd",
"w; c #fdfcfe",
"x; c #f2f2f7",
"y; c #f1f1f7",
"z; c #f6f6f9",
"0A c #b7bfdc",
"1A c #b3bcdb",
"2A c #fcfcfe",
"3A c #f7f7fb",
"4A c #edeff6",
"5A c #e6eaf9",
"6A c #d9dff4",
"7A c #bec4d9",
"8A c #a2abca",
"9A c #7c85a7",
":A c #626c8d",
";A c #6e78a0",
"AA c #9ca8d3",
"BA c #d4daf3",
"CA c #fafbff",
"DA c #fbfbfd",
"EA c #f6f6fa",
"FA c #f4f4f9",
"GA c #b1b9da",
"HA c #abb4d8",
"IA c #a2add4",
"JA c #98a5d5",
"KA c #636d8f",
"LA c #8c96bd",
"MA c #bbc4e7",
"NA c #dadff0",
"OA c #f5f6fa",
"PA c #e4e8f3",
"QA c #b0bce4",
"RA c #7e8bba",
"SA c #b0badf",
"TA c #e3e7fa",
"UA c #feffff",
"VA c #ffffff",
"WA c #c5ceee",
"XA c #5f698c",
"YA c #525b79",
"ZA c #9fa9cf",
"aA c #bbc5ed",
"bA c #616b8d",
"                                                                                                ",
"                                                                                                ",
"                                          bAaAZAYA                                              ",
"                                        XAWAVAUATASARA                                          ",
"                                        QAPAOAVAVAVANAMALA                                      ",
"                                    KAJAIAHAGAFAEADAVAVACABAAA;A                                ",
"                          :A9A8A7A6A5A4A3A2A1A0Az;y;x;z;w;VAv;u;t;s;r;                          ",
"                  q;p;o;n;m;l;VAVAVAk;j;i;h;g;f;e;d;c;b;a;Z;Y;VAVAX;W;V;U;                      ",
"      T;S;R;Q;P;O;N;M;L;K;J;I;y;c;h;H;G;F;E;D;C;B;A;d;c;b;;;;;:;9;8;VA7;6;5;4;                  ",
"      3;2;VAVAVA1;0;z:y:x:w:v:u:t:s:r:r:q:p:p:o:n:m:l:k:k:b;;;H;F;j:x;i:VAVAh:g:f:e:            ",
"      d:c:VAb:a:Z:Y:X:W:V:U:T:S:R:Q:P:O:N:j:p:b;VAM:L:K:J:I:H:h;q:G;G:F:p:E:VAVAD:C:B:A:        ",
"        ;:::9:8:7:6:5:4:3:2:1:0:z9y9x9w9v9N:r:u9D;t9s9r9q9p9o9n9m9l9k9E;j9i9F;FAVAVAh9g9        ",
"        f9e9d9c9b9a9Z9Y9X9W9V9U9T9S9R9Q9P9O9a;r:u9N9M9L9VAK9J9I9H9G9u9F9E9j9D9C9VAB9A9          ",
"      ;9:99989796959493929791909z8y8x8w8v8u8t8s8r:r8i:q8p8VAVAo8n8m8l8k8j8i8FAVAh8g8f8          ",
"      e8d8c8b8a8Z8Y8X8W8V8U8T8a9S8W9W8R8Q8P8O8u9b;l9N8M8L8H:K8VAVAVAJ8I8I9H8G8F8E8D8            ",
"    C8B8c979A8;8:8988878z8685848a83828;81808z7y7x7b;;;w7v7u7t7H:x;s7VAVAK9v7r7q7p7              ",
"    o7n7m769l7k7j7i7h7h7g759f7e7d7;8c7b7a7Z7Y7X7F9c;h;y;W7V7U7x;;;r:T7S7R7VAQ7P7O7N7            ",
"  M7L7K7a9381888J7I7H7H7G7F7E7D718C7k7B7:8A7;7:79787T7h;z;77675747;;j:p:u9b;i:VAVA37271707      ",
"  z6y6x6S829C7j7w6v6u6t6s6r6q6p6o6n6m6l6m6l6l6k6j687H:c;:;i6h6g6f6;;r:u9p:e6E;b;EAi6VAd6c6b6a6  ",
"  Z6Y63:X639W6V6U6T6S6R6r6Q6P6i788j7O6V6V6O6O6N6M6L69;K6c;K6J6I6H6I:r:j:p:F;E;j9G6j9a;VAVAF6E6  ",
"D6C6B6A669;6:6f7968676R866A756463626160616i7i7z5y5x5w5x;y;:;v5u5t5s5T7j:H;p:G:e6j9i99;VAr5q5    ",
"p5o5n5m5z839l5T8k5j5x8i5h546563606g556w656h7h7f5e5d53A9;C9y;H:w7c5b547a5H;p:G:e6Z5h;VAY5X5W5    ",
"V5U5T579S5R5Q5P5z8y8O5B746N516J7w6M5I7L5L5I7N5K5J5I5s7FA9;C9y;E:Y5H5G5F5H;p:F;E5h;Y;VAD5C5      ",
"  B5A5X6P5;539:595857565h72606U6L555H7v6H745453525K6s7EAFAFA9;x;1505z4y4h;p:E;l9i6VAx4w4        ",
"  v4u4t4V9s4s4r4q4p4o488O6i756L5n4m4T6l4l4k4T6j4i4Y;s7S7w5d;FAE:y;h4g4f4e4u9u9d4VAc4b4          ",
"  a4Z4Y4X4P5W4V4U4R8T4l6V6J7U6S4H7T6R4Q4P4O4O4N4M4VAs7s7S7S7S7J6d4VAVAm:L4l93AVAK4J4I4          ",
"    H4G4F4j5E4D4C4B4A48846J7M555k4;4:4948484746454Y;F844VAVAVA34Q7e8241404z3VAy3x3w3            ",
"    v3u3t3U4s3V9W8r3A4q346g5M555k4;4u6p3S6S6o3n3VAVAm3l3k3j3i3h3g3f3f4e3U7i6Y;d3c3              ",
"      b3a3Z3q439U4:5o68836J7U655m4O4P4u6UAY3X3W3V3U3T3S3R3Q3P3O3N3M347L3VAVAK3J3                ",
"      I3H3G3F3E3e7U8k7m6V61656L545k4O4D3C3B3A3;3:393F68373S76353y;:;T743VA3323                  ",
"        1303z2y2x2i5w2v2j726g5N5S4k4R4u2t2s2r2q2p2UAo2n2m2E:9;y;H::;EAVAl2k2                    ",
"          j2i2h2g2f2e288V6i7h7L545d2c2b2r2a2u8Z2Y2X2W2V2U2T29;x;H:d;VA43S2R2                    ",
"              Q2P2O2N2M2L2K2J2I2H2G2F2E2D2C2B2A2;2:29282726252x;FAY;VA4232                      ",
"                  221202z1y1x1w1v1u1t1VAVAVAs1r1q1p1o1n1m1l1k1j1VAVAi1h1                        ",
"                                    g1f1e1d1c1b1a1Z1Y1X1W1V1U1T1VAS1R1                          ",
"                                        Q1P1O1N1M1L1K1J1I1H1G1F1W7E1                            ",
"                                            D1C1B1A1L1;1:19181716151                            ",
"                                                4131211101z0y0x0w0v0                            ",
"                                                  u0t0s0r0q0p0y0o0n0m0                          ",
"                                                    l0k0j011i0p0y0h0g0f0                        ",
"                                                      e0d0c0b0a0Z0Y0X0W0V0                      ",
"                                                        U0T0S0R0Q0Z0P0O0N0                      ",
"                                                          M0L0K0J0I0H0G0F0                      ",
"                                                            E0D0C0B0A0;0:0                      ",
"                                                              908070605040                      ",
"                                                                30201000                        ",
"                                                                                                ",
"                                                                                                "};
