/* XPM */
static char *image[] = {
"48 48 638 2",
"   c None",
"00 c #0f0007",
"10 c #947406",
"20 c #765900",
"30 c #1c1000",
"40 c #846400",
"50 c #ce9c00",
"60 c #eeba06",
"70 c #f3cf57",
"80 c #f1ca4f",
"90 c #f0c317",
":0 c #deaa00",
";0 c #786000",
"A0 c #2e2d17",
"B0 c #edb700",
"C0 c #f1c400",
"D0 c #f7d200",
"E0 c #fbe000",
"F0 c #fff56f",
"G0 c #fdea25",
"H0 c #f4cc00",
"I0 c #c19600",
"J0 c #0e0a00",
"K0 c #00000f",
"L0 c #000004",
"M0 c #493700",
"N0 c #a27a00",
"O0 c #e4ab00",
"P0 c #efbf00",
"Q0 c #f3cb00",
"R0 c #ffffff",
"S0 c #fff680",
"T0 c #f7d300",
"U0 c #ecb500",
"V0 c #c09200",
"W0 c #0f0b02",
"X0 c #000210",
"Y0 c #3a2b00",
"Z0 c #936f00",
"a0 c #dda700",
"b0 c #da9900",
"c0 c #ca8000",
"d0 c #d29300",
"e0 c #fffffe",
"f0 c #fff791",
"g0 c #f4ca00",
"h0 c #ecb400",
"i0 c #a27b00",
"j0 c #080913",
"k0 c #080a16",
"l0 c #483500",
"m0 c #cc9800",
"n0 c #e4a800",
"o0 c #d18a00",
"p0 c #c36f00",
"q0 c #c66d00",
"r0 c #e1a400",
"s0 c #edbe00",
"t0 c #f0c400",
"u0 c #fffde0",
"v0 c #fffffa",
"w0 c #fff9a1",
"x0 c #f1c100",
"y0 c #efbd0b",
"z0 c #2c2100",
"01 c #06070e",
"11 c #926d00",
"21 c #e2a700",
"31 c #c57e00",
"41 c #b96300",
"51 c #c66a00",
"61 c #e4a801",
"71 c #edd108",
"81 c #cdb604",
"91 c #ccac01",
":1 c #fffdde",
";1 c #fffff4",
"A1 c #fffbc2",
"B1 c #6c5f17",
"C1 c #735300",
"D1 c #ce9000",
"E1 c #af6200",
"F1 c #bd6500",
"G1 c #c96e00",
"H1 c #e2a200",
"I1 c #ebbd07",
"J1 c #bda712",
"K1 c #3f2300",
"L1 c #2c1800",
"M1 c #c5a400",
"N1 c #ffffee",
"O1 c #ffed26",
"P1 c #4e4917",
"Q1 c #ae8000",
"R1 c #ecb300",
"S1 c #bc6500",
"T1 c #ca6e00",
"U1 c #cf7700",
"V1 c #df9b00",
"W1 c #ecbe0b",
"X1 c #9d8617",
"Y1 c #361d00",
"Z1 c #221200",
"a1 c #fffdd5",
"b1 c #ffffe7",
"c1 c #ffffdc",
"d1 c #ffef39",
"e1 c #dfa200",
"f1 c #edc010",
"g1 c #9a8720",
"h1 c #2b1800",
"i1 c #180d00",
"j1 c #b69700",
"k1 c #fffdd0",
"l1 c #ffffe1",
"m1 c #ffffd6",
"n1 c #fff255",
"o1 c #1d2233",
"p1 c #e09c00",
"q1 c #e7ac00",
"r1 c #efc61a",
"s1 c #96882a",
"t1 c #0e0700",
"u1 c #796500",
"v1 c #e5c200",
"w1 c #fffdcc",
"x1 c #ffffdb",
"y1 c #ffffcf",
"z1 c #fff67a",
"02 c #090d1b",
"12 c #e4a600",
"22 c #eab80f",
"32 c #d6c741",
"42 c #514011",
"52 c #170d00",
"62 c #0f0d00",
"72 c #d8ba00",
"82 c #ffffd4",
"92 c #ffffc9",
":2 c #fffca9",
";2 c #fde501",
"A2 c #080b17",
"B2 c #da8f00",
"C2 c #e5a904",
"D2 c #e1cb39",
"E2 c #402904",
"F2 c #ffffce",
"G2 c #ffffc3",
"H2 c #fefeb7",
"I2 c #fde714",
"J2 c #080a14",
"K2 c #db9200",
"L2 c #ecbc17",
"M2 c #816715",
"N2 c #2b1700",
"O2 c #170c00",
"P2 c #7b6b00",
"Q2 c #fffdbd",
"R2 c #ffffc7",
"S2 c #ffffbc",
"T2 c #fdfca9",
"U2 c #fbea39",
"V2 c #2a2a2d",
"W2 c #db9100",
"X2 c #f0c51e",
"Y2 c #62490a",
"Z2 c #211200",
"a2 c #0d0700",
"b2 c #b9a000",
"c2 c #fffdb9",
"d2 c #ffffc1",
"e2 c #fefeb5",
"f2 c #faf68c",
"g2 c #f6e847",
"h2 c #f9da00",
"i2 c #ce7500",
"j2 c #d38100",
"k2 c #da8e00",
"l2 c #ecb910",
"m2 c #664d07",
"n2 c #160c00",
"o2 c #040200",
"p2 c #5c4e00",
"q2 c #fff45e",
"r2 c #fffdb4",
"s2 c #ffffbb",
"t2 c #fdfba2",
"u2 c #f7ee6c",
"v2 c #f1e133",
"w2 c #f6d902",
"x2 c #080912",
"y2 c #e3a100",
"z2 c #cd7400",
"03 c #d88b00",
"13 c #e19d00",
"23 c #e7ab03",
"33 c #c79b09",
"43 c #1a1200",
"53 c #0f0c00",
"63 c #887100",
"73 c #f7d500",
"83 c #f9db00",
"93 c #fce100",
":3 c #fee700",
";3 c #ffed24",
"A3 c #f4d746",
"B3 c #f4de84",
"C3 c #f4df86",
"D3 c #f5e573",
"E3 c #f4e74b",
"F3 c #eeda14",
"G3 c #f0d600",
"H3 c #f6cf00",
"I3 c #1e2436",
"J3 c #cc7100",
"K3 c #d17c00",
"L3 c #d78800",
"M3 c #e4a500",
"N3 c #e8ae00",
"O3 c #ebb301",
"P3 c #b08900",
"Q3 c #c19a00",
"R3 c #f0c300",
"S3 c #f2c900",
"T3 c #f5cf00",
"U3 c #f2ca00",
"V3 c #ecb900",
"W3 c #e4a400",
"X3 c #dd9400",
"Y3 c #e09f22",
"Z3 c #e7b63b",
"a3 c #eabd43",
"b3 c #eabd42",
"c3 c #db940d",
"d3 c #e1ab01",
"e3 c #ead000",
"f3 c #f4d000",
"g3 c #090e1e",
"h3 c #e09f00",
"i3 c #c96d00",
"j3 c #cf7800",
"k3 c #d48300",
"l3 c #d98d00",
"m3 c #df9900",
"n3 c #e5a900",
"o3 c #ebb800",
"p3 c #eebd00",
"q3 c #e9b200",
"r3 c #e2a000",
"s3 c #d98a00",
"t3 c #e2a72c",
"u3 c #edc551",
"v3 c #f7e475",
"w3 c #fffb90",
"x3 c #fffb8b",
"y3 c #fffa88",
"z3 c #fffa85",
"04 c #efcc51",
"14 c #dc9510",
"24 c #e6b300",
"34 c #f2c400",
"44 c #090c1a",
"54 c #de9e00",
"64 c #c26800",
"74 c #cd7300",
"84 c #d17d00",
"94 c #d68700",
":4 c #db9000",
";4 c #df9800",
"A4 c #e19e00",
"B4 c #de9500",
"C4 c #da8c08",
"D4 c #e5ae34",
"E4 c #f2d462",
"F4 c #fffb98",
"G4 c #ecdb7b",
"H4 c #cca84a",
"I4 c #b37e24",
"J4 c #b37e23",
"K4 c #c69d3c",
"L4 c #dfc65d",
"M4 c #fcf27c",
"N4 c #e2a628",
"O4 c #e09900",
"P4 c #fbea46",
"Q4 c #3f3e17",
"R4 c #da9d00",
"S4 c #b66200",
"T4 c #c86c00",
"U4 c #ce7600",
"V4 c #d37f00",
"W4 c #d68500",
"X4 c #d98a07",
"Y4 c #f2d45d",
"Z4 c #fffb8c",
"a4 c #fffb91",
"b4 c #fffb96",
"c4 c #fffb9d",
"d4 c #fffb9f",
"e4 c #bf933c",
"f4 c #8b5717",
"g4 c #715b41",
"h4 c #6b5e4e",
"i4 c #685f55",
"j4 c #705f4a",
"k4 c #855a25",
"l4 c #ac7419",
"m4 c #f7ed74",
"n4 c #e5ae31",
"o4 c #e5a811",
"p4 c #3b2c00",
"q4 c #d79b00",
"r4 c #a65b00",
"s4 c #c36c00",
"t4 c #d37c00",
"u4 c #e2a624",
"v4 c #f2d454",
"w4 c #fffa80",
"x4 c #fffa87",
"y4 c #fffb93",
"z4 c #fffb99",
"05 c #fffb9e",
"15 c #fffba2",
"25 c #fffca8",
"35 c #e5d280",
"45 c #835823",
"55 c #515151",
"65 c #8a8a8a",
"75 c #959595",
"85 c #805d33",
"95 c #caa211",
":5 c #f0df20",
";5 c #dd9718",
"A5 c #392900",
"B5 c #b18600",
"C5 c #d89800",
"D5 c #c97d06",
"E5 c #eabd35",
"F5 c #f9ea62",
"G5 c #fffa78",
"H5 c #fffa7f",
"I5 c #fffa86",
"J5 c #fffb8d",
"K5 c #fffb94",
"L5 c #fffb9a",
"M5 c #fffba0",
"N5 c #fffca5",
"O5 c #fffcaa",
"P5 c #fffcae",
"Q5 c #fffcb1",
"R5 c #fffcb3",
"S5 c #ecdc92",
"T5 c #6d5c47",
"U5 c #74624d",
"V5 c #d9bc5b",
"W5 c #eeda12",
"X5 c #fbf36b",
"Y5 c #3f3e20",
"Z5 c #342700",
"a5 c #a77000",
"b5 c #e2a61d",
"c5 c #f9ea58",
"d5 c #fff96c",
"e5 c #f2e565",
"f5 c #d2b145",
"g5 c #cca741",
"h5 c #cca845",
"i5 c #cca848",
"j5 c #ecdb7d",
"k5 c #fffba1",
"l5 c #fffca7",
"m5 c #fffcac",
"n5 c #fffcb2",
"o5 c #fffcb6",
"p5 c #fffcbc",
"q5 c #fffcbd",
"r5 c #888777",
"s5 c #484848",
"t5 c #9e9e9e",
"u5 c #d8d8d8",
"v5 c #88836c",
"w5 c #fdf88f",
"x5 c #edd809",
"y5 c #fcf679",
"z5 c #7f7d42",
"06 c #3c3100",
"16 c #baab3b",
"26 c #fff960",
"36 c #fff968",
"46 c #cca737",
"56 c #955405",
"66 c #7a5323",
"76 c #64533e",
"86 c #65543f",
"96 c #6a553a",
":6 c #805520",
";6 c #b37e29",
"A6 c #f8f1a3",
"B6 c #fffcb4",
"C6 c #fffcbe",
"D6 c #fffdc2",
"E6 c #89887b",
"F6 c #dadada",
"G6 c #8d8a64",
"H6 c #eeda13",
"I6 c #f3e338",
"J6 c #fffb8f",
"K6 c #2f2f19",
"L6 c #3e3700",
"M6 c #fff962",
"N6 c #ecda56",
"O6 c #8c540f",
"P6 c #4b4742",
"Q6 c #8e8e8e",
"R6 c #755732",
"S6 c #d2b265",
"T6 c #fffcba",
"U6 c #fffdc6",
"V6 c #fffdca",
"W6 c #fffdcf",
"X6 c #8a897e",
"Y6 c #bbbbbb",
"Z6 c #dcdcdc",
"a6 c #8d885b",
"b6 c #f7ed66",
"c6 c #fffb9c",
"d6 c #8f8d53",
"e6 c #5e5200",
"f6 c #bfba47",
"g6 c #fff965",
"h6 c #ecda58",
"i6 c #765329",
"j6 c #2b2b2b",
"k6 c #d2d2d2",
"l6 c #98938e",
"m6 c #d2b369",
"n6 c #fffcc0",
"o6 c #fffdc7",
"p6 c #fffdd2",
"q6 c #fffdd8",
"r6 c #8b8b81",
"s6 c #545454",
"t6 c #91907d",
"u6 c #dfdc93",
"v6 c #4f4e32",
"w6 c #5f5d24",
"x6 c #fff967",
"y6 c #fffa6f",
"z6 c #a29c5d",
"07 c #fafafa",
"17 c #c8bfac",
"27 c #f8f2b2",
"37 c #fffdc5",
"47 c #fffdcd",
"57 c #fffdd4",
"67 c #fffdda",
"77 c #fdfbd0",
"87 c #f7ef8b",
"97 c #8a8768",
":7 c #bcbcbc",
";7 c #e1e1e1",
"A7 c #62625d",
"B7 c #2f2a00",
"C7 c #cfca55",
"D7 c #fffa71",
"E7 c #aaa766",
"F7 c #595959",
"G7 c #f5f5f5",
"H7 c #d1d0c0",
"I7 c #fffdc1",
"J7 c #fffdc9",
"K7 c #fbf5aa",
"L7 c #f5e96c",
"M7 c #efdd29",
"N7 c #ecd600",
"O7 c #f0e03b",
"P7 c #8b886b",
"Q7 c #565656",
"R7 c #535353",
"S7 c #302d0d",
"T7 c #efea6b",
"U7 c #aaa867",
"V7 c #5b5b5b",
"W7 c #ededed",
"X7 c #cbc8a5",
"Y7 c #f1e23c",
"Z7 c #edd80c",
"a7 c #eedb1b",
"b7 c #f3e553",
"c7 c #f9f19f",
"d7 c #fdfbdf",
"e7 c #fffef3",
"f7 c #7e7e7c",
"g7 c #a0a0a0",
"h7 c #e5e5e5",
"i7 c #302e10",
"j7 c #7b7951",
"k7 c #292929",
"l7 c #5c5c5c",
"m7 c #c6c3a0",
"n7 c #f6eb6e",
"o7 c #fcf8b4",
"p7 c #fffdd6",
"q7 c #cfceb5",
"r7 c #8f8e82",
"s7 c #4f4f4b",
"t7 c #242424",
"u7 c #c9c9c9",
"v7 c #d1d1d1",
"w7 c #474747",
"x7 c #b6b6b6",
"y7 c #cfcfcf",
"z7 c #aeaea2",
"08 c #8f8e6e",
"18 c #5f5e4c",
"28 c #1f1f1a",
"38 c #212121",
"48 c #7b7b7b",
"58 c #343434",
"68 c #272727",
"78 c #5f5f5f",
"88 c #a6a6a6",
"98 c #808080",
":8 c #1e1900",
";8 c #404040",
"A8 c #1b1b1b",
"B8 c #4f4f4f",
"C8 c #dedede",
"D8 c #a7a7a7",
"E8 c #3b3b3b",
"F8 c #303030",
"G8 c #606060",
"H8 c #969696",
"I8 c #3d3100",
"J8 c #333333",
"K8 c #a9a9a9",
"L8 c #bdbdbd",
"M8 c #e6e6e6",
"N8 c #2e2e2e",
"O8 c #424242",
"P8 c #393939",
"Q8 c #868686",
"R8 c #8d8d8d",
"S8 c #787878",
"T8 c #2e2500",
"U8 c #525252",
"V8 c #3d3d3d",
"W8 c #616161",
"X8 c #b2b2b2",
"Y8 c #d0d0d0",
"Z8 c #c4c4c4",
"a8 c #2f2f2f",
"b8 c #434343",
"c8 c #636363",
"d8 c #767676",
"e8 c #777777",
"f8 c #2d2d2d",
"g8 c #1a1a1a",
"h8 c #282828",
"i8 c #656565",
"j8 c #575757",
"k8 c #b9b9b9",
"l8 c #e3e3e3",
"m8 c #1e1e1e",
"n8 c #4c4c4c",
"o8 c #646464",
"p8 c #8f8f8f",
"q8 c #acacac",
"r8 c #d5d5d5",
"s8 c #b4b4b4",
"t8 c #3c3c3c",
"u8 c #0c0c0c",
"v8 c #5d5d5d",
"w8 c #878787",
"x8 c #c7c7c7",
"y8 c #cbcbcb",
"z8 c #4d4316",
"09 c #4a4a4a",
"19 c #5e5e5e",
"29 c #626262",
"39 c #686868",
"49 c #6a6a6a",
"59 c #6d6d6d",
"69 c #727272",
"79 c #d4d4d4",
"89 c #191919",
"99 c #666666",
":9 c #676767",
";9 c #696969",
"A9 c #6c6c6c",
"B9 c #6e6e6e",
"C9 c #717171",
"D9 c #c2c2c2",
"E9 c #c3c3c3",
"F9 c #747474",
"G9 c #0f0f0f",
"H9 c #605e35",
"I9 c #3a3a3a",
"J9 c #6b6b6b",
"K9 c #707070",
"L9 c #848484",
"M9 c #939393",
"N9 c #9f9f9f",
"O9 c #aeaeae",
"P9 c #c5c5c5",
"Q9 c #a8a8a8",
"R9 c #585858",
"S9 c #070707",
"T9 c #221807",
"U9 c #353535",
"V9 c #6f6f6f",
"W9 c #828282",
"X9 c #949494",
"Y9 c #9c9c9c",
"Z9 c #a3a3a3",
"a9 c #a4a4a4",
"b9 c #ababab",
"c9 c #bababa",
"d9 c #a5a5a5",
"e9 c #7d7d7d",
"f9 c #252525",
"g9 c #2e2a25",
"h9 c #141414",
"i9 c #4b4b4b",
"j9 c #757575",
"k9 c #818181",
"l9 c #888888",
"m9 c #8c8c8c",
"n9 c #919191",
"o9 c #898989",
"p9 c #555555",
"q9 c #2c2c2c",
"r9 c #383838",
"s9 c #100c06",
"t9 c #1c1c1c",
"u9 c #1d1d1d",
"v9 c #161616",
"w9 c #000000",
"                                                                                                ",
"                                                                                                ",
"                                              w9w9v9u9t9t9s9r9                                  ",
"                                          w9q9p9o9n9m9l9k9j9i9h9g9                              ",
"                                      w9f9e9d9c9b9a9Z9Y9X9m9W9V9U9T9                            ",
"                                    S9R9Q9P9O9N9M9L9K9V9K9j9j9K9J9I9H9                          ",
"                                  G9F9E9D9d9X9e9C9K9V9B9A9J9;9:9:99989                          ",
"                                S9e979D9a9l969C9K9V959A9J9493929191909z8                        ",
"                              w939y8x8Q9w869K949:9999999;939:929p9p9v8u8                        ",
"                              t8s8r8q8p869J999993949J93939:9:9o8n8n8p9m8                        ",
"                            G9M9l8k8Q96929j8i8J9j8h8g8f859e8d8c8b8b809a8                        ",
"                            09Z8Y8X8W9W8V8U8J9a8w9    T8S8R8Q829P8P8O8N8                        ",
"                          w9e9M8L8K8K9f8J8o8h8w9      I8W9Z9H8G8F8F8E8N8                        ",
"                          u9D8C8X8R8B8A8;809w9        :898k88878686858f8                        ",
"                          I9Z8Y8X84858g8W838    w9281808z7y7x7v8m8m8f8q9                        ",
"                          w7v7u7X8B9g8t749w9s7r7q7p7o7n7m7l8E9l7g8g8k7j7i7                      ",
"                          p9h7L8g7:9g8f8f7e7d7c7b7a7Z7Y7X7W7u7V7g8g8k7U7T7S7                    ",
"                          R7l8L8g7Q7g8f8P7O7N7M7L7K7J7I7H7G7y7F7g8g8h8E7D7C7B7                  ",
"                        w9A7;7:7g7p9g8f897877767574737271707y7R9g8g8h8z6y6x6w6                  ",
"                    w9v6u6t6C8:7N9s6g8q9r6q6p7p647o6n6m6l6k6x8F9g8g8j6i6h6g6f6e6                ",
"                  w9d6c6b6a6Z6Y6N9R7g8q9X6W647V6U6I7T6S6R6W9Q6F9q9a8P6O6N6M6f6L6                ",
"                  K6J6I6H6G6F6c9N9U8g8q9E6U637D6C6T6B6A6;6:696867666564636261606                ",
"                  z5y5x5w5v5u5c9t5s5g8j6r5q5p5T6o5n5m5l5k5j5i5h5g5f5e5d5c5b5a5Z5                ",
"                  Y5X5W5V5U5r8k8t5q9g8j6T5S5R5Q5P5O5N5M5L5K5J5I5H5G5F5E5D5C5B5w9                ",
"                  A5;5:5958575Z965j6a8554535O525N51505z4y4J5x4w4v4u4t4s4r4q4B5w9                ",
"                  p4o4n4m4l4k4j4i4h4g4f4e415k5d4c4L5b4a4Z4Y4n4X4W4V4U4T4S4R4B5w9                ",
"                  Q4P4O4N4M4L4K4J4I4H4G4z4z4F4b4K5a4E4D4C4B4A4;4:49484746454B544                ",
"                  Q4P434241404z3y3x3J5J6w3w3v3u3t3s3r3q3p3o3q3n3m3l3k3j3i3h3B5g3                ",
"                  Q4P434f3e3d3c3N4b3a3Z3Y3X3W3V3U3T3S3R3Q3P3O3N3M3X3L3K3J3r3B5I3                ",
"                  Q4P434H3G3F3E3D3C3B3A3;3:3938373T36353w9w94333231303V4z2y2B5x2                ",
"                  Q4P434H3w2v2u2t2s2r2q2;3:3938373p2w9w9w9o2n2m2l2r3k2j2i2y2B5x2                ",
"                  Q4P434H3h2g2f2e2d2c2q2;3:39383b2w9w9w9w9a2Z2Y2X2r3W2j2i2y2B5V2                ",
"                  Q4P434H3h2U2T2S2R2Q2q2;3:39383P2w9w9w9o2O2N2M2L2r3K2V4z2y2B5J2                ",
"                  Q4P434H3h2I2H2G2F2D6q2;3:39383P2w9w9w9a2Z2E2D2C2r3B2K3J3r3B5A2                ",
"                  Q4P434H3h2;2:29282o6q2;3:393837262w9o25242322212r3L3j3i3h3B502                ",
"                  Q4P434H3h2;2z1y1x1w1q2;3:3938373v1u1t1Z2s1r1q112p184746454B5o1                ",
"                  Q4P434H3h2;2n1m1l1k1q2;3:3938373T3j1i1h1g1f1q11203U4T4S4e1B5x2                ",
"                  Q4P434H3h2;2d1c1b1a1q2;3:3938373T3j1Z1Y1X1W1q1V1U1T1S1r4R1Q1x2                ",
"                  P1P434H3h2;2O1k1N167q2;3:3938373T3M1L1K1J1I1H1U1G1F1E1D1R1C1                  ",
"                  B1P434H3h2;2O1A1;1:1q2;3:3938373T3S3918171617451413121R11101                  ",
"                  z0y0x0H3h2;2O1w0v0u0q2;3:3938373T3S3t0s0r0q0p0o0n0R1m0l0k0                    ",
"                  j0i0h0g0h2;2O1f0e0u0q2;3:3938373T3S3R3d0c0b0R1a0Z0Y0X0                        ",
"                    W0V0U0T0;2O1S0R0u0q2;3:3938373Q0P0O0R1a0N0M0L0K0                            ",
"                      J0I0R1H0G0F0R0u0q2;3E0D0C0B0R1a0Z0M0w9w9                                  ",
"                        A0;0:0R19080709060R1R15040M0w9w9                                        ",
"                            30M020B5B51020M0J000                                                ",
"                                                                                                ",
"                                                                                                "};
